<?xml version="1.0" encoding="UTF-8" standalone="no"?>
<svg
   xmlns:dc="http://purl.org/dc/elements/1.1/"
   xmlns:cc="http://creativecommons.org/ns#"
   xmlns:rdf="http://www.w3.org/1999/02/22-rdf-syntax-ns#"
   xmlns:svg="http://www.w3.org/2000/svg"
   xmlns="http://www.w3.org/2000/svg"
   xmlns:sodipodi="http://sodipodi.sourceforge.net/DTD/sodipodi-0.dtd"
   xmlns:inkscape="http://www.inkscape.org/namespaces/inkscape"
   width="30.48mm"
   height="128.5mm"
   viewBox="0 0 30.479999 128.5"
   version="1.1"
   id="svg8"
   inkscape:version="1.0.1 (c497b03c, 2020-09-10)"
   sodipodi:docname="Lilac.svg"
   inkscape:export-filename="/Users/grough/Desktop/VCV Junk/Lilac Progress 20201003-2.png"
   inkscape:export-xdpi="300"
   inkscape:export-ydpi="300">
  <defs
     id="defs2">
    <inkscape:perspective
       sodipodi:type="inkscape:persp3d"
       inkscape:vp_x="0 : 64.25 : 1"
       inkscape:vp_y="0 : 1000 : 0"
       inkscape:vp_z="30.479999 : 64.25 : 1"
       inkscape:persp3d-origin="15.239999 : 42.833333 : 1"
       id="perspective3344" />
  </defs>
  <sodipodi:namedview
     id="base"
     pagecolor="#303030"
     bordercolor="#666666"
     borderopacity="1.0"
     inkscape:pageopacity="0"
     inkscape:pageshadow="2"
     inkscape:zoom="1.7338646"
     inkscape:cx="44.739732"
     inkscape:cy="192.40455"
     inkscape:document-units="mm"
     inkscape:current-layer="layer1"
     inkscape:document-rotation="0"
     showgrid="false"
     inkscape:window-width="1280"
     inkscape:window-height="1314"
     inkscape:window-x="1280"
     inkscape:window-y="23"
     inkscape:window-maximized="0"
     inkscape:snap-page="true"
     inkscape:snap-grids="true"
     inkscape:snap-to-guides="true"
     inkscape:snap-others="true"
     inkscape:object-nodes="false"
     inkscape:snap-nodes="true"
     inkscape:snap-global="true"
     showguides="false"
     inkscape:guide-bbox="true"
     inkscape:snap-bbox="true"
     inkscape:showpageshadow="false"
     showborder="false">
    <sodipodi:guide
       position="27.516667,71.085418"
       orientation="1,0"
       id="guide1308" />
    <sodipodi:guide
       position="3.0427083,63.941668"
       orientation="1,0"
       id="guide1310" />
    <inkscape:grid
       type="xygrid"
       id="grid3645" />
  </sodipodi:namedview>
  <metadata
     id="metadata5">
    <rdf:RDF>
      <cc:Work
         rdf:about="">
        <dc:format>image/svg+xml</dc:format>
        <dc:type
           rdf:resource="http://purl.org/dc/dcmitype/StillImage" />
        <dc:title></dc:title>
      </cc:Work>
    </rdf:RDF>
  </metadata>
  <g
     inkscape:groupmode="layer"
     id="layer6"
     inkscape:label="Panel"
     style="display:inline">
    <rect
       style="display:inline;opacity:1;mix-blend-mode:normal;fill:#dad5d5;fill-opacity:1;fill-rule:evenodd;stroke-width:0.264583"
       id="rect28"
       width="30.48"
       height="128.5"
       x="0"
       y="0" />
  </g>
  <g
     inkscape:groupmode="layer"
     id="layer2"
     inkscape:label="Panel graphics"
     style="display:inline">
    <rect
       style="display:inline;opacity:1;mix-blend-mode:normal;fill:#2b2d2b;fill-opacity:1;stroke-width:1;stroke-miterlimit:4;stroke-dasharray:none"
       id="output"
       width="9.6999998"
       height="14.2"
       x="17.827087"
       y="103.5"
       rx="1"
       ry="1" />
    <circle
       style="display:inline;mix-blend-mode:normal;fill:#d7b7bf;fill-opacity:1;stroke-width:0.952;stroke-miterlimit:4;stroke-dasharray:none"
       id="circle3672"
       cx="21.96748"
       cy="-69.484146"
       transform="scale(1,-1)"
       r="6.25" />
    <circle
       style="display:inline;mix-blend-mode:normal;fill:#d7b7bf;fill-opacity:1;stroke-width:0.952343"
       id="circle3727"
       cx="21.950937"
       cy="88.485802"
       r="6.25" />
    <circle
       style="display:inline;mix-blend-mode:normal;fill:#d7b7bf;fill-opacity:1;stroke-width:0.952;stroke-miterlimit:4;stroke-dasharray:none"
       id="circle3831"
       cx="21.967365"
       cy="-26.937107"
       r="6.25"
       transform="scale(1,-1)" />
    <path
       style="display:inline;opacity:1;mix-blend-mode:normal;fill:none;stroke:#d7b7bf;stroke-width:0.5;stroke-linecap:butt;stroke-linejoin:miter;stroke-miterlimit:4;stroke-dasharray:none;stroke-opacity:1"
       d="m 7.734561,26.937108 h 14.00995"
       id="path3855"
       sodipodi:nodetypes="cc"
       inkscape:export-filename="/Users/grough/Desktop/VCV Junk/path3666.png"
       inkscape:export-xdpi="300"
       inkscape:export-ydpi="300" />
    <path
       style="display:inline;opacity:1;mix-blend-mode:normal;fill:none;stroke:#d7b7bf;stroke-width:0.5;stroke-linecap:butt;stroke-linejoin:miter;stroke-miterlimit:4;stroke-dasharray:none;stroke-opacity:1"
       d="M 7.9714208,94.376535 21.981371,88.57007"
       id="path3668"
       sodipodi:nodetypes="cc"
       inkscape:export-filename="/Users/grough/Desktop/VCV Junk/path3666.png"
       inkscape:export-xdpi="300"
       inkscape:export-ydpi="300" />
    <path
       style="display:inline;opacity:1;mix-blend-mode:normal;fill:none;stroke:#d7b7bf;stroke-width:0.5;stroke-linecap:butt;stroke-linejoin:miter;stroke-miterlimit:4;stroke-dasharray:none;stroke-opacity:1"
       d="M 7.9714208,74.797368 21.981371,69.530582"
       id="path3666"
       sodipodi:nodetypes="cc"
       inkscape:export-filename="/Users/grough/Desktop/VCV Junk/path3666.png"
       inkscape:export-xdpi="300"
       inkscape:export-ydpi="300" />
    <path
       style="display:inline;fill:none;fill-opacity:1;stroke:#d1c7cc;stroke-width:0.5;stroke-linecap:butt;stroke-linejoin:miter;stroke-miterlimit:4;stroke-dasharray:none;stroke-opacity:1"
       d="M 8.9920623,58.171019 V 35.745897 h 7.6514697 v 3.431094 h 10.856645"
       id="path3821"
       sodipodi:nodetypes="ccccc"
       inkscape:export-filename="/Users/grough/Desktop/VCV Junk/path3666.png"
       inkscape:export-xdpi="300"
       inkscape:export-ydpi="300" />
    <circle
       style="display:inline;fill:#b70701;fill-opacity:1;stroke:#d7b7bf;stroke-width:0"
       id="circle3615"
       cx="5.0971284"
       cy="-38.939503"
       transform="scale(1,-1)"
       r="1.3999995" />
    <path
       style="display:inline;fill:#5f891f;fill-opacity:1;stroke:none;stroke-width:0.30268;stroke-linecap:butt;stroke-linejoin:miter;stroke-miterlimit:4;stroke-dasharray:none;stroke-opacity:1"
       d="m 11.828752,37.339503 2.753943,1.527476 -2.753943,1.34574"
       id="path3619"
       sodipodi:nodetypes="ccc" />
    <g
       id="g2580"
       transform="translate(-117.96713,19.326542)"
       style="display:inline">
      <rect
         style="display:inline;opacity:1;mix-blend-mode:normal;fill:#d1c7cc;fill-opacity:1;stroke-width:1.0218"
         id="rect2524"
         width="21.186956"
         height="3.5982471"
         x="123.05335"
         y="-5.6163926"
         transform="rotate(-3.2917922)" />
      <path
         id="path2526"
         style="display:inline;fill:#d7b7bf;fill-opacity:1;stroke-width:0.0169999"
         d="m 136.89677,-12.325437 c -0.0224,0 -0.1128,0.02384 -0.20102,0.05323 -0.17827,0.05939 -0.25169,0.119442 -0.37465,0.306441 -0.0664,0.10105 -0.0778,0.14229 -0.13539,0.498161 -0.0328,0.202707 -0.0536,0.247013 -0.11576,0.247013 -0.0404,0 -0.15598,0.06734 -0.17415,0.101286 -0.01,0.01806 -0.0176,0.04868 -0.0176,0.06821 0,0.05034 0.12653,0.18127 0.18655,0.19327 0.0664,0.01327 0.0928,0.06453 0.0703,0.135392 -0.01,0.02993 -0.0174,0.117344 -0.0176,0.194304 -1.9e-4,0.08518 -0.014,0.194442 -0.0357,0.279052 -0.0221,0.08656 -0.0317,0.161938 -0.0253,0.199988 0.006,0.03359 -0.001,0.1367926 -0.015,0.2294436 -0.0271,0.1797489 -0.0217,0.2091949 0.0455,0.2563151 0.0471,0.033 0.22564,0.018629 0.27182,-0.021701 0.0465,-0.04067 0.0835,-0.2185961 0.11524,-0.5560387 0.01,-0.102848 0.0297,-0.232771 0.0444,-0.288871 0.0147,-0.0561 0.0263,-0.113621 0.0259,-0.127641 -0.002,-0.06512 0.0196,-0.15601 0.0424,-0.1788 0.0294,-0.02943 0.29103,-0.03495 0.42581,-0.0093 0.0449,0.0085 0.15046,0.0248 0.23461,0.03617 0.17905,0.02415 0.39439,0.07581 0.42633,0.102319 0.0374,0.03101 0.059,0.182828 0.0641,0.450101 0.006,0.2982386 0.0338,0.3907557 0.14883,0.4831757 0.0589,0.04738 0.0761,0.05279 0.13436,0.04289 0.0859,-0.01451 0.21135,-0.110681 0.23564,-0.1803511 0.0246,-0.07067 0.0245,-0.1393579 -0.001,-0.1648478 -0.0112,-0.011189 -0.0261,-0.06043 -0.0326,-0.1095538 -0.006,-0.04912 -0.0236,-0.119706 -0.0382,-0.157097 -0.0202,-0.05131 -0.0247,-0.103355 -0.0176,-0.212389 0.006,-0.08674 0.002,-0.175246 -0.01,-0.221175 -0.0109,-0.04208 -0.0259,-0.10318 -0.0331,-0.13591 -0.0113,-0.05108 -0.0492,-0.130138 -0.16226,-0.34003 -0.0126,-0.02337 -0.0467,-0.119868 -0.076,-0.214458 -0.0689,-0.222975 -0.18537,-0.458813 -0.26302,-0.532782 -0.0338,-0.03222 -0.0615,-0.06856 -0.0615,-0.08113 0,-0.03832 -0.13649,-0.152088 -0.23668,-0.196888 -0.15125,-0.06763 -0.38358,-0.147794 -0.42788,-0.147794 z m -0.0331,0.427364 c 0.07,-0.0049 0.16703,0.01949 0.24857,0.06615 0.14017,0.0802 0.2241,0.207883 0.30437,0.462504 0.0527,0.167275 0.0485,0.226345 -0.0181,0.251665 -0.0536,0.0204 -0.0636,0.0197 -0.16846,-0.01033 -0.0551,-0.01583 -0.15385,-0.0235 -0.28061,-0.0217 -0.20854,0.003 -0.33322,-0.02135 -0.34778,-0.06873 -0.009,-0.03069 0.0147,-0.258707 0.0403,-0.379305 0.022,-0.103741 0.10921,-0.256864 0.16226,-0.285254 0.0157,-0.0084 0.0361,-0.01335 0.0594,-0.01499 z" />
      <path
         style="display:inline;fill:#d7b7bf;fill-opacity:1;stroke-width:0.0169999"
         d="m 132.45257,-13.414005 c -0.005,-0.01356 -0.009,-0.0095 -0.0102,0.01027 -7.2e-4,0.01792 0.003,0.02796 0.009,0.02231 0.006,-0.0057 0.006,-0.02031 0.001,-0.03258 z"
         id="path2528" />
      <path
         style="display:inline;fill:#d7b7bf;fill-opacity:1;stroke-width:0.0169999"
         d="m 132.47049,-10.935059 c -0.24305,-0.0157 -0.33195,-0.05085 -0.51824,-0.204902 -0.0755,-0.06245 -0.0773,-0.06718 -0.11681,-0.308432 -0.007,-0.04366 -0.0235,-0.092 -0.0363,-0.107428 -0.0182,-0.02199 -0.0231,-0.111392 -0.0226,-0.413625 10e-4,-0.701288 0.0393,-1.128434 0.12846,-1.44326 0.0657,-0.231929 0.0812,-0.252512 0.22806,-0.302424 0.09,-0.0306 0.09,-0.0306 0.15668,0.01558 0.0367,0.0254 0.0842,0.07929 0.10568,0.119767 0.039,0.07359 0.039,0.07359 -0.0192,0.190182 -0.0409,0.08189 -0.0568,0.134615 -0.0531,0.17714 0.003,0.0333 -0.0106,0.102149 -0.0299,0.152999 -0.0255,0.06713 -0.0351,0.132059 -0.0352,0.237066 -10e-6,0.07954 -0.008,0.171336 -0.0172,0.203999 -0.0229,0.07901 -0.0245,0.837392 -0.002,0.934883 0.0565,0.244045 0.0871,0.295246 0.21342,0.356377 0.0676,0.03271 0.0782,0.03296 0.36693,0.0087 0.16354,-0.01374 0.33009,-0.03274 0.3701,-0.04223 0.04,-0.0095 0.0901,-0.0129 0.11129,-0.0076 0.0212,0.0053 0.0738,-0.0023 0.11691,-0.01694 0.13543,-0.04598 0.24797,-0.04179 0.3408,0.0127 0.0497,0.02917 0.0807,0.05937 0.0807,0.07854 0,0.06874 -0.0562,0.183844 -0.12325,0.252169 -0.0708,0.07225 -0.0708,0.07225 -0.27554,0.07253 -0.1126,1.34e-4 -0.28886,0.0074 -0.39171,0.01605 -0.10284,0.0087 -0.22907,0.01927 -0.2805,0.02354 -0.0514,0.0043 -0.1853,0.0018 -0.2975,-0.0054 z"
         id="path2530" />
      <path
         style="display:inline;fill:#d7b7bf;fill-opacity:1;stroke-width:0.0169999"
         d="m 125.9842,-10.144596 c -0.0982,-0.01114 -0.20004,-0.02931 -0.22636,-0.04033 -0.0263,-0.01102 -0.0691,-0.02004 -0.0951,-0.02004 -0.026,0 -0.0705,-0.0116 -0.0989,-0.02577 -0.0639,-0.03186 -0.60235,-0.06302 -0.66756,-0.03863 -0.0243,0.0091 -0.0752,0.01 -0.119,0.0021 -0.0421,-0.0076 -0.15053,-0.01386 -0.24101,-0.01397 -0.1575,-1.83e-4 -0.16666,-0.0023 -0.21514,-0.04858 -0.0684,-0.0654 -0.12554,-0.244904 -0.12022,-0.377942 0.002,-0.05536 -0.006,-0.135085 -0.0176,-0.17716 -0.0534,-0.188749 -0.0711,-0.417291 -0.0696,-0.90171 8.3e-4,-0.266868 0.01,-0.526966 0.0194,-0.577998 0.01,-0.05103 0.0236,-0.157809 0.0306,-0.237283 0.0116,-0.132048 0.0469,-0.285639 0.11423,-0.496422 0.0232,-0.07257 0.035,-0.08473 0.12831,-0.131337 0.12025,-0.06009 0.1485,-0.05311 0.20095,0.04971 0.0421,0.08259 0.0425,0.109459 0.002,0.176601 -0.0699,0.117062 -0.0949,0.321932 -0.13702,1.124001 -0.008,0.14745 -0.004,0.206774 0.0185,0.280499 0.0156,0.05143 0.0376,0.200347 0.049,0.330938 0.0113,0.130589 0.0273,0.26059 0.0354,0.288886 0.008,0.0283 0.0148,0.0886 0.0148,0.13401 0,0.07179 0.008,0.09038 0.0599,0.142436 0.0582,0.05817 0.0626,0.05957 0.15725,0.04921 0.0536,-0.0059 0.2542,-0.01137 0.44587,-0.01217 0.29558,-0.0013 0.35882,0.003 0.4165,0.02799 0.0403,0.01747 0.12345,0.03165 0.204,0.03479 0.38295,0.0149 0.48399,0.02245 0.51383,0.03843 0.0422,0.02259 0.12366,0.140159 0.12366,0.178501 0,0.042 -0.0408,0.115266 -0.0876,0.157251 -0.0336,0.0301 -0.10506,0.05956 -0.23629,0.09733 -0.0135,0.0039 -0.10489,-0.0021 -0.20307,-0.01323 z"
         id="path2532" />
      <path
         style="display:inline;fill:#d7b7bf;fill-opacity:1;stroke-width:0.0169999"
         d="m 141.19491,-9.8132114 c -0.0374,-0.01452 -0.0978,-0.04949 -0.13433,-0.07773 -0.0365,-0.02823 -0.0947,-0.0611 -0.12936,-0.07304 -0.10154,-0.03498 -0.22214,-0.1128116 -0.27389,-0.1767466 -0.031,-0.03831 -0.0636,-0.11668 -0.092,-0.220829 -0.0369,-0.135624 -0.0448,-0.204956 -0.0492,-0.433447 -0.004,-0.182154 0.002,-0.300075 0.0165,-0.356998 0.0294,-0.114562 0.0994,-0.267717 0.13635,-0.298178 0.0166,-0.01365 0.0554,-0.06433 0.0864,-0.112626 0.031,-0.04829 0.0813,-0.105249 0.11193,-0.126566 0.0306,-0.02132 0.0901,-0.06876 0.13215,-0.105427 0.0687,-0.05989 0.18789,-0.12389 0.42971,-0.230797 0.0858,-0.03795 0.23351,-0.0479 0.30538,-0.02058 0.0222,0.0084 0.0845,0.06929 0.13843,0.135251 0.0981,0.119927 0.0981,0.119927 0.0862,0.215665 -0.014,0.111875 -0.0893,0.22501 -0.16694,0.25076 -0.0803,0.02663 -0.1743,-0.01127 -0.21436,-0.08644 -0.0682,-0.128021 -0.0682,-0.127993 -0.17938,-0.08544 -0.0736,0.02814 -0.12427,0.06473 -0.20102,0.144993 -0.0565,0.05904 -0.11836,0.136427 -0.13756,0.171967 -0.10761,0.199181 -0.12534,0.238658 -0.13609,0.303096 -0.006,0.03888 -0.004,0.09777 0.005,0.130878 0.0101,0.03668 0.0108,0.08628 0.002,0.126966 -0.0107,0.04736 -0.008,0.09553 0.0108,0.165646 0.0338,0.129954 0.0803,0.202154 0.14788,0.230047 0.0303,0.0125 0.10724,0.05483 0.17098,0.09406 0.0733,0.04515 0.14595,0.07547 0.19777,0.0826 0.11377,0.01564 0.47077,-0.02167 0.55334,-0.05785 0.0374,-0.01639 0.0888,-0.035 0.11431,-0.04138 0.0255,-0.0063 0.0752,-0.03119 0.1105,-0.05515 0.0487,-0.03305 0.0765,-0.04094 0.11519,-0.03272 0.028,0.006 0.0878,0.01694 0.13273,0.02439 0.11603,0.01924 0.19887,0.100983 0.19851,0.195902 -1.9e-4,0.0379 -0.006,0.07747 -0.0127,0.08794 -0.0269,0.04091 -0.19441,0.1082866 -0.4128,0.1660166 -0.19992,0.05285 -0.26931,0.06264 -0.55168,0.07786 -0.39749,0.021439 -0.42529,0.02078 -0.51,-0.012099 z"
         id="path2534" />
      <path
         style="display:inline;fill:#d7b7bf;fill-opacity:1;stroke-width:0.0169999"
         d="m 129.10467,-8.9822472 c -0.0692,-0.06924 -0.0817,-0.1745221 -0.11287,-0.9560049 -0.005,-0.1262219 -0.0162,-0.2830479 -0.0249,-0.3484969 -0.0487,-0.369091 -0.008,-1.291272 0.0712,-1.601551 0.01,-0.03936 0.0133,-0.09108 0.007,-0.114937 -0.0154,-0.06143 0.0441,-0.134901 0.14417,-0.177949 0.10156,-0.04369 0.1358,-0.04394 0.18989,-0.0014 0.0235,0.01851 0.0628,0.04127 0.0873,0.05058 0.0415,0.01579 0.0445,0.0241 0.0445,0.124439 0,0.05914 -0.007,0.114788 -0.0153,0.12367 -0.008,0.0089 -0.0288,0.134725 -0.0452,0.279649 -0.0467,0.41241 -0.0405,1.6438877 0.0103,2.0399877 0.009,0.07012 0.0201,0.2166649 0.0246,0.3256439 0.008,0.1981441 0.008,0.1981441 -0.0517,0.2507491 -0.0539,0.04734 -0.071,0.0526 -0.17113,0.0526 -0.0988,0 -0.11647,-0.0053 -0.15821,-0.04699 z"
         id="path2536" />
    </g>
    <path
       id="path3649"
       style="display:inline;fill:#8f8400;fill-opacity:1;stroke:#d7b7bf;stroke-width:0"
       d="m 12.444735,57.113491 v -1.107142 h -1.107143 v -0.885714 h 1.107143 v -1.107143 h 0.885714 v 1.107143 h 1.107142 v 0.885714 h -1.107142 v 1.107142 z" />
    <rect
       style="display:inline;fill:#006a99;fill-opacity:1;stroke:none;stroke-width:0.219094;stroke-miterlimit:4;stroke-dasharray:none"
       id="rect3653"
       width="2.0999999"
       height="2.0999999"
       x="4.1004939"
       y="54.478691" />
  </g>
  <g
     inkscape:label="Control mocks"
     inkscape:groupmode="layer"
     id="layer1"
     style="display:none;opacity:1;mix-blend-mode:normal">
    <g
       id="g2708"
       transform="translate(-85.317693,-96.4393)">
      <path
         inkscape:connector-curvature="0"
         id="path2702"
         d="m 92.788964,127.42922 c -2.235179,0 -4.05281,-1.81762 -4.05281,-4.05282 0,-2.23516 1.817631,-4.05281 4.05281,-4.05281 2.235176,0 4.05281,1.81765 4.05281,4.05281 0,2.2352 -1.817634,4.05282 -4.05281,4.05282"
         style="fill:#e6e6e6;fill-opacity:1;fill-rule:nonzero;stroke:#636663;stroke-width:0.25;stroke-miterlimit:4;stroke-dasharray:none;stroke-opacity:1" />
      <path
         inkscape:connector-curvature="0"
         id="path2704"
         d="m 92.788964,126.29511 c -1.609548,0 -2.918685,-1.30916 -2.918685,-2.91871 0,-1.60954 1.309137,-2.91867 2.918685,-2.91867 1.609549,0 2.918682,1.30913 2.918682,2.91867 0,1.60955 -1.309133,2.91871 -2.918682,2.91871"
         style="fill:#e6e6e6;fill-opacity:1;fill-rule:nonzero;stroke:#636663;stroke-width:0.25;stroke-miterlimit:4;stroke-dasharray:none;stroke-opacity:1" />
      <path
         inkscape:connector-curvature="0"
         id="path2706"
         d="m 94.588681,123.3764 c 0,0.99357 -0.806153,1.79974 -1.799717,1.79974 -0.993567,0 -1.79972,-0.80617 -1.79972,-1.79974 0,-0.99356 0.806153,-1.79969 1.79972,-1.79969 0.993564,0 1.799717,0.80613 1.799717,1.79969"
         style="fill:#000000;fill-opacity:1;fill-rule:nonzero;stroke:none;stroke-width:0.352778" />
    </g>
    <g
       id="g2690"
       transform="translate(-85.317693,-11.076425)">
      <path
         inkscape:connector-curvature="0"
         id="path2684"
         d="m 92.788964,127.42922 c -2.235179,0 -4.05281,-1.81762 -4.05281,-4.05282 0,-2.23516 1.817631,-4.05281 4.05281,-4.05281 2.235176,0 4.05281,1.81765 4.05281,4.05281 0,2.2352 -1.817634,4.05282 -4.05281,4.05282"
         style="fill:#e6e6e6;fill-opacity:1;fill-rule:nonzero;stroke:#636663;stroke-width:0.25;stroke-miterlimit:4;stroke-dasharray:none;stroke-opacity:1" />
      <path
         inkscape:connector-curvature="0"
         id="path2686"
         d="m 92.788964,126.29511 c -1.609548,0 -2.918685,-1.30916 -2.918685,-2.91871 0,-1.60954 1.309137,-2.91867 2.918685,-2.91867 1.609549,0 2.918682,1.30913 2.918682,2.91867 0,1.60955 -1.309133,2.91871 -2.918682,2.91871"
         style="fill:#e6e6e6;fill-opacity:1;fill-rule:nonzero;stroke:#636663;stroke-width:0.25;stroke-miterlimit:4;stroke-dasharray:none;stroke-opacity:1" />
      <path
         inkscape:connector-curvature="0"
         id="path2688"
         d="m 94.588681,123.3764 c 0,0.99357 -0.806153,1.79974 -1.799717,1.79974 -0.993567,0 -1.79972,-0.80617 -1.79972,-1.79974 0,-0.99356 0.806153,-1.79969 1.79972,-1.79969 0.993564,0 1.799717,0.80613 1.799717,1.79969"
         style="fill:#000000;fill-opacity:1;fill-rule:nonzero;stroke:none;stroke-width:0.352778" />
    </g>
    <g
       id="g2700"
       transform="translate(-70.140101,-11.076425)">
      <path
         inkscape:connector-curvature="0"
         id="path2694"
         d="m 92.788964,127.42922 c -2.235179,0 -4.05281,-1.81762 -4.05281,-4.05282 0,-2.23516 1.817631,-4.05281 4.05281,-4.05281 2.235176,0 4.05281,1.81765 4.05281,4.05281 0,2.2352 -1.817634,4.05282 -4.05281,4.05282"
         style="fill:#e6e6e6;fill-opacity:1;fill-rule:nonzero;stroke:#636663;stroke-width:0.25;stroke-miterlimit:4;stroke-dasharray:none;stroke-opacity:1" />
      <path
         inkscape:connector-curvature="0"
         id="path2696"
         d="m 92.788964,126.29511 c -1.609548,0 -2.918685,-1.30916 -2.918685,-2.91871 0,-1.60954 1.309137,-2.91867 2.918685,-2.91867 1.609549,0 2.918682,1.30913 2.918682,2.91867 0,1.60955 -1.309133,2.91871 -2.918682,2.91871"
         style="fill:#e6e6e6;fill-opacity:1;fill-rule:nonzero;stroke:#636663;stroke-width:0.25;stroke-miterlimit:4;stroke-dasharray:none;stroke-opacity:1" />
      <path
         inkscape:connector-curvature="0"
         id="path2698"
         d="m 94.588681,123.3764 c 0,0.99357 -0.806153,1.79974 -1.799717,1.79974 -0.993567,0 -1.79972,-0.80617 -1.79972,-1.79974 0,-0.99356 0.806153,-1.79969 1.79972,-1.79969 0.993564,0 1.799717,0.80613 1.799717,1.79969"
         style="fill:#000000;fill-opacity:1;fill-rule:nonzero;stroke:none;stroke-width:0.352778" />
    </g>
    <g
       id="g2601"
       style="display:inline;mix-blend-mode:normal;stroke-width:1.29362"
       transform="matrix(0.34233969,0,0,-0.34239009,-76.746899,476.91191)">
      <g
         transform="translate(301.93513,1189.951)"
         id="g2595"
         style="stroke-width:1.29362">
        <path
           inkscape:connector-curvature="0"
           id="path2593"
           style="fill:#212221;fill-opacity:1;fill-rule:nonzero;stroke:none;stroke-width:1.29362"
           d="m 0,0 c 0,-7.5 -6.083,-13.58 -13.584,-13.58 -7.5,0 -13.582,6.08 -13.582,13.58 0,7.503 6.082,13.582 13.582,13.582 C -6.083,13.582 0,7.503 0,0" />
      </g>
      <circle
         style="opacity:1;vector-effect:none;fill:#676967;fill-opacity:1;fill-rule:nonzero;stroke:none;stroke-width:1.29362;stroke-linecap:butt;stroke-linejoin:miter;stroke-miterlimit:4;stroke-dasharray:none;stroke-dashoffset:0;stroke-opacity:1"
         id="circle2597"
         cx="288.35214"
         cy="-1190.6586"
         r="11.277138"
         transform="scale(1,-1)" />
      <circle
         transform="scale(1,-1)"
         r="11.277138"
         cy="-1189.952"
         cx="288.35214"
         id="circle2599"
         style="opacity:1;vector-effect:none;fill:#2b2d2b;fill-opacity:1;fill-rule:nonzero;stroke:none;stroke-width:1.29362;stroke-linecap:butt;stroke-linejoin:miter;stroke-miterlimit:4;stroke-dasharray:none;stroke-dashoffset:0;stroke-opacity:1" />
    </g>
    <g
       id="g2611"
       style="display:inline;mix-blend-mode:normal;stroke-width:1.29362"
       transform="matrix(0.34233969,0,0,-0.34239009,-76.763441,495.91357)">
      <g
         transform="translate(301.93513,1189.951)"
         id="g2605"
         style="stroke-width:1.29362">
        <path
           inkscape:connector-curvature="0"
           id="path2603"
           style="fill:#212221;fill-opacity:1;fill-rule:nonzero;stroke:none;stroke-width:1.29362"
           d="m 0,0 c 0,-7.5 -6.083,-13.58 -13.584,-13.58 -7.5,0 -13.582,6.08 -13.582,13.58 0,7.503 6.082,13.582 13.582,13.582 C -6.083,13.582 0,7.503 0,0" />
      </g>
      <circle
         style="opacity:1;vector-effect:none;fill:#676967;fill-opacity:1;fill-rule:nonzero;stroke:none;stroke-width:1.29362;stroke-linecap:butt;stroke-linejoin:miter;stroke-miterlimit:4;stroke-dasharray:none;stroke-dashoffset:0;stroke-opacity:1"
         id="circle2607"
         cx="288.35214"
         cy="-1190.6586"
         r="11.277138"
         transform="scale(1,-1)" />
      <circle
         transform="scale(1,-1)"
         r="11.277138"
         cy="-1189.952"
         cx="288.35214"
         id="circle2609"
         style="opacity:1;vector-effect:none;fill:#2b2d2b;fill-opacity:1;fill-rule:nonzero;stroke:none;stroke-width:1.29362;stroke-linecap:butt;stroke-linejoin:miter;stroke-miterlimit:4;stroke-dasharray:none;stroke-dashoffset:0;stroke-opacity:1" />
    </g>
    <g
       id="g2650"
       transform="translate(-85.317693,-48.600594)"
       style="display:inline;mix-blend-mode:normal">
      <path
         inkscape:connector-curvature="0"
         id="path7255"
         d="m 92.788964,127.42922 c -2.235179,0 -4.05281,-1.81762 -4.05281,-4.05282 0,-2.23516 1.817631,-4.05281 4.05281,-4.05281 2.235176,0 4.05281,1.81765 4.05281,4.05281 0,2.2352 -1.817634,4.05282 -4.05281,4.05282"
         style="fill:#e6e6e6;fill-opacity:1;fill-rule:nonzero;stroke:#636663;stroke-width:0.25;stroke-miterlimit:4;stroke-dasharray:none;stroke-opacity:1" />
      <path
         inkscape:connector-curvature="0"
         id="path7261"
         d="m 92.788964,126.29511 c -1.609548,0 -2.918685,-1.30916 -2.918685,-2.91871 0,-1.60954 1.309137,-2.91867 2.918685,-2.91867 1.609549,0 2.918682,1.30913 2.918682,2.91867 0,1.60955 -1.309133,2.91871 -2.918682,2.91871"
         style="fill:#e6e6e6;fill-opacity:1;fill-rule:nonzero;stroke:#636663;stroke-width:0.25;stroke-miterlimit:4;stroke-dasharray:none;stroke-opacity:1" />
      <path
         inkscape:connector-curvature="0"
         id="path7265"
         d="m 94.588681,123.3764 c 0,0.99357 -0.806153,1.79974 -1.799717,1.79974 -0.993567,0 -1.79972,-0.80617 -1.79972,-1.79974 0,-0.99356 0.806153,-1.79969 1.79972,-1.79969 0.993564,0 1.799717,0.80613 1.799717,1.79969"
         style="fill:#000000;fill-opacity:1;fill-rule:nonzero;stroke:none;stroke-width:0.352778" />
    </g>
    <g
       id="g2682"
       transform="translate(-85.317693,-29.550611)"
       style="display:inline;mix-blend-mode:normal">
      <path
         inkscape:connector-curvature="0"
         id="path2676"
         d="m 92.788964,127.42922 c -2.235179,0 -4.05281,-1.81762 -4.05281,-4.05282 0,-2.23516 1.817631,-4.05281 4.05281,-4.05281 2.235176,0 4.05281,1.81765 4.05281,4.05281 0,2.2352 -1.817634,4.05282 -4.05281,4.05282"
         style="fill:#e6e6e6;fill-opacity:1;fill-rule:nonzero;stroke:#636663;stroke-width:0.25;stroke-miterlimit:4;stroke-dasharray:none;stroke-opacity:1" />
      <path
         inkscape:connector-curvature="0"
         id="path2678"
         d="m 92.788964,126.29511 c -1.609548,0 -2.918685,-1.30916 -2.918685,-2.91871 0,-1.60954 1.309137,-2.91867 2.918685,-2.91867 1.609549,0 2.918682,1.30913 2.918682,2.91867 0,1.60955 -1.309133,2.91871 -2.918682,2.91871"
         style="fill:#e6e6e6;fill-opacity:1;fill-rule:nonzero;stroke:#636663;stroke-width:0.25;stroke-miterlimit:4;stroke-dasharray:none;stroke-opacity:1" />
      <path
         inkscape:connector-curvature="0"
         id="path2680"
         d="m 94.588681,123.3764 c 0,0.99357 -0.806153,1.79974 -1.799717,1.79974 -0.993567,0 -1.79972,-0.80617 -1.79972,-1.79974 0,-0.99356 0.806153,-1.79969 1.79972,-1.79969 0.993564,0 1.799717,0.80613 1.799717,1.79969"
         style="fill:#000000;fill-opacity:1;fill-rule:nonzero;stroke:none;stroke-width:0.352778" />
    </g>
    <g
       id="g3843"
       style="display:inline;mix-blend-mode:normal;stroke-width:1.29362"
       transform="matrix(0.34233969,0,0,-0.34239009,-76.747013,434.36488)">
      <g
         transform="translate(301.93513,1189.951)"
         id="g3837"
         style="stroke-width:1.29362">
        <path
           inkscape:connector-curvature="0"
           id="path3835"
           style="fill:#212221;fill-opacity:1;fill-rule:nonzero;stroke:none;stroke-width:1.29362"
           d="m 0,0 c 0,-7.5 -6.083,-13.58 -13.584,-13.58 -7.5,0 -13.582,6.08 -13.582,13.58 0,7.503 6.082,13.582 13.582,13.582 C -6.083,13.582 0,7.503 0,0" />
      </g>
      <circle
         style="opacity:1;vector-effect:none;fill:#676967;fill-opacity:1;fill-rule:nonzero;stroke:none;stroke-width:1.29362;stroke-linecap:butt;stroke-linejoin:miter;stroke-miterlimit:4;stroke-dasharray:none;stroke-dashoffset:0;stroke-opacity:1"
         id="circle3839"
         cx="288.35214"
         cy="-1190.6586"
         r="11.277138"
         transform="scale(1,-1)" />
      <circle
         transform="scale(1,-1)"
         r="11.277138"
         cy="-1189.952"
         cx="288.35214"
         id="circle3841"
         style="opacity:1;vector-effect:none;fill:#2b2d2b;fill-opacity:1;fill-rule:nonzero;stroke:none;stroke-width:1.29362;stroke-linecap:butt;stroke-linejoin:miter;stroke-miterlimit:4;stroke-dasharray:none;stroke-dashoffset:0;stroke-opacity:1" />
    </g>
    <g
       transform="matrix(0.34127197,0,0,-0.34127197,-246.65217,448.30262)"
       id="g3893"
       style="display:inline;mix-blend-mode:normal;stroke-width:1.28171">
      <path
         d="m 783.5078,1167.3652 c 0,0.779 0.639,1.418 1.418,1.418 h 10.622 c 0.779,0 1.418,-0.639 1.418,-1.418 v -17.007 c 0,-0.779 -0.639,-1.417 -1.418,-1.417 h -10.622 c -0.779,0 -1.418,0.638 -1.418,1.417 z"
         style="fill:#000000;fill-opacity:1;fill-rule:nonzero;stroke:none;stroke-width:1.28171"
         id="path3873"
         inkscape:connector-curvature="0" />
      <g
         style="fill:#282828;fill-opacity:1;stroke-width:1.28171"
         id="g3879">
        <g
           style="fill:#282828;fill-opacity:1;stroke-width:1.28171"
           id="g3877">
          <path
             inkscape:connector-curvature="0"
             id="path3875"
             style="fill:#282828;fill-opacity:1;stroke:none;stroke-width:1.28171"
             d="m 785.616,1167.502 c -0.468,0 -0.85,-0.382 -0.85,-0.85 v 0 -15.724 c 0,-0.468 0.382,-0.851 0.85,-0.851 v 0 h 9.241 c 0.466,0 0.849,0.383 0.849,0.851 v 0 15.724 c 0,0.468 -0.383,0.85 -0.849,0.85 v 0 z" />
        </g>
      </g>
      <path
         inkscape:connector-curvature="0"
         id="path3881"
         style="fill:#444444;fill-opacity:1;fill-rule:nonzero;stroke:none;stroke-width:1.28171"
         d="m 784.767,1158.581 h 10.94 v -8.504 h -10.94 z" />
      <path
         inkscape:connector-curvature="0"
         id="path3883"
         style="fill:#999999;fill-opacity:1;fill-rule:nonzero;stroke:none;stroke-width:1.28171"
         d="m 784.767,1154.797 h 10.94 v -0.936 h -10.94 z" />
      <path
         inkscape:connector-curvature="0"
         id="path3885"
         style="fill:#999999;fill-opacity:1;fill-rule:nonzero;stroke:none;stroke-width:1.28171"
         d="m 784.767,1151.013 h 10.94 v -0.936 h -10.94 z" />
      <path
         inkscape:connector-curvature="0"
         id="path3887"
         style="fill:#999999;fill-opacity:1;fill-rule:nonzero;stroke:none;stroke-width:1.28171"
         d="m 784.767,1152.904 h 10.94 v -0.936 h -10.94 z" />
      <path
         inkscape:connector-curvature="0"
         id="path3889"
         style="fill:#999999;fill-opacity:1;fill-rule:nonzero;stroke:none;stroke-width:1.28171"
         d="m 784.767,1156.689 h 10.94 v -0.936 h -10.94 z" />
      <path
         inkscape:connector-curvature="0"
         id="path3891"
         style="fill:#999999;fill-opacity:1;fill-rule:nonzero;stroke:none;stroke-width:1.28171"
         d="m 784.767,1158.581 h 10.94 v -0.936 h -10.94 z" />
    </g>
    <path
       id="path3895"
       style="display:inline;mix-blend-mode:normal;fill:#303030;fill-opacity:1;stroke-width:1.6"
       inkscape:label="STOP"
       d="m 14.537594,43.728491 a 1.5999997,1.6000002 0 0 1 -1.600001,1.6 1.5999997,1.6000002 0 0 1 -1.600001,-1.6 1.5999997,1.6000002 0 0 1 1.600001,-1.600001 1.5999997,1.6000002 0 0 1 1.600001,1.600001 z" />
    <path
       id="path3897"
       style="display:inline;mix-blend-mode:normal;fill:#303030;fill-opacity:1;stroke-width:1.6"
       inkscape:label="STOP"
       d="m 6.6971296,43.728491 a 1.5999997,1.6000002 0 0 1 -1.600001,1.6 1.5999997,1.6000002 0 0 1 -1.600001,-1.6 1.5999997,1.6000002 0 0 1 1.600001,-1.600001 1.5999997,1.6000002 0 0 1 1.600001,1.600001 z" />
    <path
       id="path3871-1"
       style="display:inline;mix-blend-mode:normal;fill:#303030;fill-opacity:1;stroke-width:1.6"
       inkscape:label="STOP"
       d="m 14.537593,50.607659 a 1.5999997,1.6000002 0 0 1 -1.600001,1.6 1.5999997,1.6000002 0 0 1 -1.600001,-1.6 1.5999997,1.6000002 0 0 1 1.600001,-1.600001 1.5999997,1.6000002 0 0 1 1.600001,1.600001 z" />
    <path
       id="path3547-8"
       style="display:inline;mix-blend-mode:normal;fill:#303030;fill-opacity:1;stroke-width:1.6"
       inkscape:label="STOP"
       d="m 6.7471288,50.607659 a 1.5999997,1.6000002 0 0 1 -1.600001,1.6 1.5999997,1.6000002 0 0 1 -1.6000007,-1.6 1.5999997,1.6000002 0 0 1 1.6000007,-1.600001 1.5999997,1.6000002 0 0 1 1.600001,1.600001 z" />
  </g>
  <g
     inkscape:groupmode="layer"
     id="layer11"
     inkscape:label="Screws"
     style="display:none">
    <g
       transform="matrix(0.32902218,0,0,-0.32902194,-168.63328,212.14136)"
       id="g18792"
       style="display:inline;opacity:1;mix-blend-mode:normal;stroke-width:1.14853">
      <path
         d="m 535.6665,631.5 c -3.511,0 -6.367,2.855 -6.367,6.366 0,3.511 2.856,6.367 6.367,6.367 3.511,0 6.367,-2.856 6.367,-6.367 0,-3.511 -2.856,-6.366 -6.367,-6.366"
         style="fill:#bcbcbc;fill-opacity:1;fill-rule:nonzero;stroke:#acacac;stroke-width:1.06117;stroke-miterlimit:4;stroke-dasharray:none;stroke-opacity:1"
         id="path6833"
         inkscape:connector-curvature="0" />
      <path
         inkscape:connector-curvature="0"
         id="path6843"
         style="fill:#727272;fill-opacity:1;fill-rule:nonzero;stroke:none;stroke-width:1.14853"
         d="m 536.448,633.741 h -1.562 v 8.25 h 1.562 z" />
      <path
         inkscape:connector-curvature="0"
         id="path6845"
         style="fill:#727272;fill-opacity:1;fill-rule:nonzero;stroke:none;stroke-width:1.14853"
         d="m 539.792,637.085 h -8.25 v 1.562 h 8.25 z" />
    </g>
    <g
       transform="matrix(0.32902218,0,0,-0.32902194,-153.28744,212.14136)"
       id="g3243"
       style="display:inline;opacity:1;mix-blend-mode:normal;stroke-width:1.14853">
      <path
         d="m 535.6665,631.5 c -3.511,0 -6.367,2.855 -6.367,6.366 0,3.511 2.856,6.367 6.367,6.367 3.511,0 6.367,-2.856 6.367,-6.367 0,-3.511 -2.856,-6.366 -6.367,-6.366"
         style="fill:#bcbcbc;fill-opacity:1;fill-rule:nonzero;stroke:#acacac;stroke-width:1.06117;stroke-miterlimit:4;stroke-dasharray:none;stroke-opacity:1"
         id="path3237"
         inkscape:connector-curvature="0" />
      <path
         inkscape:connector-curvature="0"
         id="path3239"
         style="fill:#727272;fill-opacity:1;fill-rule:nonzero;stroke:none;stroke-width:1.14853"
         d="m 536.448,633.741 h -1.562 v 8.25 h 1.562 z" />
      <path
         inkscape:connector-curvature="0"
         id="path3241"
         style="fill:#727272;fill-opacity:1;fill-rule:nonzero;stroke:none;stroke-width:1.14853"
         d="m 539.792,637.085 h -8.25 v 1.562 h 8.25 z" />
    </g>
    <g
       transform="matrix(0.32902218,0,0,-0.32902194,-168.63328,336.10277)"
       id="g3251"
       style="display:inline;opacity:1;mix-blend-mode:normal;stroke-width:1.14853">
      <path
         d="m 535.6665,631.5 c -3.511,0 -6.367,2.855 -6.367,6.366 0,3.511 2.856,6.367 6.367,6.367 3.511,0 6.367,-2.856 6.367,-6.367 0,-3.511 -2.856,-6.366 -6.367,-6.366"
         style="fill:#bcbcbc;fill-opacity:1;fill-rule:nonzero;stroke:#acacac;stroke-width:1.06117;stroke-miterlimit:4;stroke-dasharray:none;stroke-opacity:1"
         id="path3245"
         inkscape:connector-curvature="0" />
      <path
         inkscape:connector-curvature="0"
         id="path3247"
         style="fill:#727272;fill-opacity:1;fill-rule:nonzero;stroke:none;stroke-width:1.14853"
         d="m 536.448,633.741 h -1.562 v 8.25 h 1.562 z" />
      <path
         inkscape:connector-curvature="0"
         id="path3249"
         style="fill:#727272;fill-opacity:1;fill-rule:nonzero;stroke:none;stroke-width:1.14853"
         d="m 539.792,637.085 h -8.25 v 1.562 h 8.25 z" />
    </g>
    <g
       transform="matrix(0.32902218,0,0,-0.32902194,-153.28744,336.10277)"
       id="g3259"
       style="display:inline;opacity:1;mix-blend-mode:normal;stroke-width:1.14853">
      <path
         d="m 535.6665,631.5 c -3.511,0 -6.367,2.855 -6.367,6.366 0,3.511 2.856,6.367 6.367,6.367 3.511,0 6.367,-2.856 6.367,-6.367 0,-3.511 -2.856,-6.366 -6.367,-6.366"
         style="fill:#bcbcbc;fill-opacity:1;fill-rule:nonzero;stroke:#acacac;stroke-width:1.06117;stroke-miterlimit:4;stroke-dasharray:none;stroke-opacity:1"
         id="path3253"
         inkscape:connector-curvature="0" />
      <path
         inkscape:connector-curvature="0"
         id="path3255"
         style="fill:#727272;fill-opacity:1;fill-rule:nonzero;stroke:none;stroke-width:1.14853"
         d="m 536.448,633.741 h -1.562 v 8.25 h 1.562 z" />
      <path
         inkscape:connector-curvature="0"
         id="path3257"
         style="fill:#727272;fill-opacity:1;fill-rule:nonzero;stroke:none;stroke-width:1.14853"
         d="m 539.792,637.085 h -8.25 v 1.562 h 8.25 z" />
    </g>
  </g>
  <g
     inkscape:groupmode="layer"
     id="g4969"
     inkscape:label="Type"
     style="display:inline">
    <g
       aria-label="IN"
       id="text4937"
       style="font-style:normal;font-weight:normal;font-size:2.11667px;line-height:1.25;font-family:sans-serif;letter-spacing:0.529167px;fill:#2b2d2b;fill-opacity:1;stroke:none;stroke-width:0.264583"
       transform="translate(-0.50644195,0.46302076)">
      <path
         d="m 7.3769262,106.15687 v -0.14182 H 7.1927759 v -1.27635 h 0.1841503 v -0.13547 H 6.6678418 v 0.13547 h 0.1820336 v 1.28058 H 6.6678418 v 0.13759 z"
         style="font-style:normal;font-variant:normal;font-weight:900;font-stretch:normal;font-size:2.11667px;font-family:'Bell Gothic Std';-inkscape-font-specification:'Bell Gothic Std Heavy';text-align:center;text-anchor:middle;fill:#2b2d2b;fill-opacity:1;stroke-width:0.264583"
         id="path5055" />
      <path
         d="m 8.1657491,106.15687 h 0.3132671 v -0.72814 c 0,-0.0402 -0.00847,-0.23706 -0.010583,-0.28151 h 0.010583 c 0.080433,0.18838 0.08255,0.19473 0.1164169,0.25611 l 0.4127506,0.75354 h 0.2794004 v -1.55364 H 8.974317 v 0.57785 c 0,0.0593 0,0.072 0.00635,0.1778 l 0.00847,0.15664 H 8.978554 c -0.00635,-0.0106 -0.027517,-0.0677 -0.033867,-0.0804 -0.014817,-0.0318 -0.035983,-0.0741 -0.052917,-0.10583 L 8.4917163,104.60323 H 8.1657491 Z"
         style="font-style:normal;font-variant:normal;font-weight:900;font-stretch:normal;font-size:2.11667px;font-family:'Bell Gothic Std';-inkscape-font-specification:'Bell Gothic Std Heavy';text-align:center;text-anchor:middle;fill:#2b2d2b;fill-opacity:1;stroke-width:0.264583"
         id="path5057" />
    </g>
    <g
       aria-label="OUT"
       id="text4941"
       style="font-style:normal;font-weight:normal;font-size:2.11667px;line-height:1.25;font-family:sans-serif;letter-spacing:0.529167px;fill:#dad5d5;fill-opacity:1;stroke:none;stroke-width:0.264583"
       transform="translate(0.18708866,0.46302076)">
      <path
         d="m 20.321282,105.12817 c 0,-0.0614 0,-0.23919 0.188383,-0.23919 0.179917,0 0.179917,0.13124 0.179917,0.23919 v 0.53975 c 0,0.10795 0,0.2794 -0.18415,0.2794 -0.1524,0 -0.18415,-0.11642 -0.18415,-0.2794 z m -0.347134,0.4699 c 0,0.0677 0.0064,0.2032 0.04022,0.31326 0.07832,0.26247 0.328083,0.3175 0.480484,0.3175 0.09948,0 0.28575,-0.0148 0.414867,-0.15451 0.09737,-0.10584 0.13335,-0.24554 0.13335,-0.46355 V 105.234 c 0,-0.24977 -0.04868,-0.38735 -0.135467,-0.48048 -0.103717,-0.11219 -0.249767,-0.15029 -0.408517,-0.15029 -0.14605,0 -0.2921,0.0402 -0.389467,0.14817 -0.10795,0.11853 -0.135467,0.27093 -0.135467,0.42968 z"
         style="font-style:normal;font-variant:normal;font-weight:900;font-stretch:normal;font-size:2.11667px;font-family:'Bell Gothic Std';-inkscape-font-specification:'Bell Gothic Std Heavy';text-align:center;text-anchor:middle;fill:#dad5d5;fill-opacity:1;stroke-width:0.264583"
         id="path5060" />
      <path
         d="m 21.946818,105.63828 c 0,0.1397 0.0064,0.3175 0.156633,0.45932 0.09525,0.0889 0.262467,0.12912 0.425451,0.12912 0.141817,0 0.275167,-0.0318 0.383117,-0.11854 0.15875,-0.12911 0.160867,-0.35348 0.160867,-0.44661 v -1.02871 h -0.345017 v 1.02659 c 0,0.28363 -0.1524,0.28363 -0.218017,0.28363 -0.209551,0 -0.209551,-0.19261 -0.209551,-0.28575 v -1.02447 h -0.353483 z"
         style="font-style:normal;font-variant:normal;font-weight:900;font-stretch:normal;font-size:2.11667px;font-family:'Bell Gothic Std';-inkscape-font-specification:'Bell Gothic Std Heavy';text-align:center;text-anchor:middle;fill:#dad5d5;fill-opacity:1;stroke-width:0.264583"
         id="path5062" />
      <path
         d="m 23.882843,104.63286 v 0.28364 h 0.395817 v 1.27 h 0.3556 v -1.27 h 0.387351 v -0.28364 z"
         style="font-style:normal;font-variant:normal;font-weight:900;font-stretch:normal;font-size:2.11667px;font-family:'Bell Gothic Std';-inkscape-font-specification:'Bell Gothic Std Heavy';text-align:center;text-anchor:middle;fill:#dad5d5;fill-opacity:1;stroke-width:0.264583"
         id="path5064" />
    </g>
    <g
       aria-label="STOP"
       id="text4380"
       style="font-style:normal;font-weight:normal;font-size:2.82222px;line-height:1.25;font-family:sans-serif;letter-spacing:0.264583px;display:inline;fill:#6d4a58;fill-opacity:1;stroke:none;stroke-width:0.264583">
      <path
         d="M 4.6005401,66.216492 C 4.4735402,65.93427 4.2477626,65.776225 3.9316739,65.776225 c -0.3245553,0 -0.589844,0.220133 -0.589844,0.5334 0,0.143933 0.033867,0.237066 0.062089,0.287866 0.064911,0.115711 0.2144887,0.220133 0.3414886,0.276578 L 4.112296,67.04058 c 0.2173109,0.09878 0.2539998,0.220133 0.2539998,0.316088 0,0.225778 -0.1890887,0.333022 -0.3640664,0.333022 -0.2793998,0 -0.4176886,-0.206022 -0.4769552,-0.372533 l -0.2483553,0.155222 c 0.047978,0.09878 0.098778,0.2032 0.231422,0.313267 0.1439332,0.121355 0.3471331,0.163689 0.474133,0.163689 0.1100666,0 0.2793998,0 0.448733,-0.146756 0.1326443,-0.112889 0.2031998,-0.273755 0.2031998,-0.468488 0,-0.1524 -0.045156,-0.231422 -0.070556,-0.2794 -0.087489,-0.1524 -0.2398887,-0.237067 -0.3104442,-0.270933 L 3.8413629,66.597491 c -0.067733,-0.03104 -0.2257776,-0.110066 -0.2257776,-0.296333 0,-0.200377 0.1890887,-0.273755 0.3160886,-0.273755 0.2398887,0 0.3301998,0.141111 0.4261553,0.333022 z"
         style="font-style:normal;font-variant:normal;font-weight:bold;font-stretch:normal;font-size:2.82222px;font-family:'Bell Gothic Std';-inkscape-font-specification:'Bell Gothic Std Bold';text-align:center;text-anchor:middle;fill:#6d4a58;fill-opacity:1;stroke-width:0.264583"
         id="path4113" />
      <path
         d="m 5.1962488,65.818559 v 0.262466 h 0.6039551 v 1.809043 H 6.096537 v -1.809043 h 0.6011329 v -0.262466 z"
         style="font-style:normal;font-variant:normal;font-weight:bold;font-stretch:normal;font-size:2.82222px;font-family:'Bell Gothic Std';-inkscape-font-specification:'Bell Gothic Std Bold';text-align:center;text-anchor:middle;fill:#6d4a58;fill-opacity:1;stroke-width:0.264583"
         id="path4115" />
      <path
         d="m 8.3376,66.868424 c 0,0.524933 -0.1128888,0.826911 -0.4063996,0.826911 -0.3612442,0 -0.3979331,-0.553155 -0.3979331,-0.815622 0,-0.217311 0.022578,-0.400755 0.062089,-0.524933 0.059267,-0.194733 0.1693332,-0.318911 0.347133,-0.318911 0.3697109,0 0.3951108,0.5588 0.3951107,0.832555 z m -0.4007552,-1.08091 c -0.1523999,0 -0.358422,0.03104 -0.5305774,0.307622 -0.1185332,0.189089 -0.1693332,0.476955 -0.1693332,0.793044 0,0.553155 0.191911,1.063977 0.6999106,1.063977 0.5587996,0 0.6970884,-0.598311 0.6970884,-1.092199 0,-0.143934 -0.016933,-0.386644 -0.079022,-0.570089 -0.084667,-0.248355 -0.2681109,-0.502355 -0.6180664,-0.502355 z"
         style="font-style:normal;font-variant:normal;font-weight:bold;font-stretch:normal;font-size:2.82222px;font-family:'Bell Gothic Std';-inkscape-font-specification:'Bell Gothic Std Bold';text-align:center;text-anchor:middle;fill:#6d4a58;fill-opacity:1;stroke-width:0.264583"
         id="path4117" />
      <path
         d="m 9.8759304,66.061269 c 0.1439336,0 0.5616216,0 0.5616216,0.383822 0,0.335845 -0.2794,0.375356 -0.6265327,0.375356 -0.039511,0 -0.0762,0 -0.1128888,-0.0028 V 66.061269 Z M 9.4102641,67.890068 H 9.6981305 V 67.06598 h 0.2511776 c 0.1919109,0 0.4092219,-0.01129 0.5870219,-0.1524 0.08467,-0.06773 0.211666,-0.2032 0.211666,-0.462844 0,-0.208844 -0.08749,-0.372533 -0.253999,-0.488244 -0.180622,-0.129822 -0.412045,-0.143933 -0.6349999,-0.143933 h -0.448733 z"
         style="font-style:normal;font-variant:normal;font-weight:bold;font-stretch:normal;font-size:2.82222px;font-family:'Bell Gothic Std';-inkscape-font-specification:'Bell Gothic Std Bold';text-align:center;text-anchor:middle;fill:#6d4a58;fill-opacity:1;stroke-width:0.264583"
         id="path4119" />
    </g>
    <g
       aria-label="ERASE"
       id="text3794"
       style="font-style:normal;font-weight:normal;font-size:2.82222px;line-height:1.25;font-family:sans-serif;letter-spacing:0.264583px;display:inline;fill:#6d4a58;fill-opacity:1;stroke:none;stroke-width:0.264583">
      <path
         d="M 3.3744012,86.93441 H 4.7149557 V 86.671944 H 3.6763787 V 85.9805 H 4.4016893 V 85.718033 H 3.6707343 V 85.1169 H 4.6613336 V 84.862901 H 3.3744012 Z"
         style="font-style:normal;font-variant:normal;font-weight:bold;font-stretch:normal;font-size:2.82222px;font-family:'Bell Gothic Std';-inkscape-font-specification:'Bell Gothic Std Bold';text-align:center;text-anchor:middle;fill:#6d4a58;fill-opacity:1;stroke-width:0.264583"
         id="path4122" />
      <path
         d="M 5.524139,86.93441 H 5.8148277 V 86.014366 H 6.1337386 L 6.6248049,86.93441 H 6.9634713 L 6.421605,85.977677 c 0.1862665,-0.05927 0.4430886,-0.163688 0.4430886,-0.553155 0,-0.211666 -0.1241777,-0.561621 -0.7027328,-0.561621 H 5.524139 Z m 0.5729107,-1.828799 c 0.3104442,0 0.474133,0.107245 0.474133,0.349956 0,0.231422 -0.1777999,0.290688 -0.2906887,0.316088 -0.1072444,0.02258 -0.3104442,0.02258 -0.4684885,0.01976 v -0.6858 z"
         style="font-style:normal;font-variant:normal;font-weight:bold;font-stretch:normal;font-size:2.82222px;font-family:'Bell Gothic Std';-inkscape-font-specification:'Bell Gothic Std Bold';text-align:center;text-anchor:middle;fill:#6d4a58;fill-opacity:1;stroke-width:0.264583"
         id="path4124" />
      <path
         d="m 7.9363433,86.262722 0.307622,-1.052688 c 0.00282,-0.0056 0.00564,-0.01411 0.014111,-0.01411 0.00847,0 0.011289,0.0056 0.014111,0.01129 l 0.3273776,1.055511 z M 8.8225204,86.93441 H 9.124498 L 8.4245874,84.862901 H 8.1000321 L 7.4311659,86.93441 h 0.3019776 l 0.1298221,-0.4318 h 0.8184438 z"
         style="font-style:normal;font-variant:normal;font-weight:bold;font-stretch:normal;font-size:2.82222px;font-family:'Bell Gothic Std';-inkscape-font-specification:'Bell Gothic Std Bold';text-align:center;text-anchor:middle;fill:#6d4a58;fill-opacity:1;stroke-width:0.264583"
         id="path4126" />
      <path
         d="m 10.992014,85.260834 c -0.127,-0.282222 -0.352778,-0.440267 -0.668866,-0.440267 -0.3245557,0 -0.5898443,0.220133 -0.5898443,0.5334 0,0.143933 0.033867,0.237066 0.062089,0.287866 0.064911,0.115711 0.2144883,0.220133 0.3414883,0.276578 l 0.366889,0.166511 c 0.217311,0.09878 0.254,0.220133 0.254,0.316088 0,0.225778 -0.189089,0.333022 -0.364067,0.333022 -0.2794,0 -0.4176882,-0.206022 -0.4769548,-0.372533 l -0.2483554,0.155223 c 0.047978,0.09878 0.098778,0.203199 0.231422,0.313266 0.1439332,0.121355 0.3471332,0.163689 0.4741332,0.163689 0.110066,0 0.279399,0 0.448733,-0.146756 0.132644,-0.112889 0.203199,-0.273755 0.203199,-0.468488 0,-0.1524 -0.04516,-0.231422 -0.07056,-0.2794 -0.08749,-0.1524 -0.239889,-0.237067 -0.310444,-0.270933 l -0.412044,-0.186267 c -0.06773,-0.03104 -0.225778,-0.110066 -0.225778,-0.296333 0,-0.200377 0.189089,-0.273755 0.316089,-0.273755 0.239888,0 0.330199,0.141111 0.426155,0.333022 z"
         style="font-style:normal;font-variant:normal;font-weight:bold;font-stretch:normal;font-size:2.82222px;font-family:'Bell Gothic Std';-inkscape-font-specification:'Bell Gothic Std Bold';text-align:center;text-anchor:middle;fill:#6d4a58;fill-opacity:1;stroke-width:0.264583"
         id="path4128" />
      <path
         d="m 11.813501,86.93441 h 1.340554 V 86.671944 H 12.115478 V 85.9805 h 0.725311 V 85.718033 H 12.109834 V 85.1169 h 0.990599 v -0.253999 h -1.286932 z"
         style="font-style:normal;font-variant:normal;font-weight:bold;font-stretch:normal;font-size:2.82222px;font-family:'Bell Gothic Std';-inkscape-font-specification:'Bell Gothic Std Bold';text-align:center;text-anchor:middle;fill:#6d4a58;fill-opacity:1;stroke-width:0.264583"
         id="path4130" />
    </g>
    <g
       aria-label="TOGGLE"
       id="text3853"
       style="font-style:normal;font-weight:normal;font-size:2.82222px;line-height:1.25;font-family:sans-serif;letter-spacing:0.264583px;display:inline;fill:#6d4a58;fill-opacity:1;stroke:none;stroke-width:0.264583">
      <path
         d="m 3.2769191,17.447867 v 0.262467 h 0.6039551 v 1.809043 h 0.2963331 v -1.809043 h 0.6011328 v -0.262467 z"
         style="font-style:normal;font-variant:normal;font-weight:bold;font-stretch:normal;font-size:2.82222px;font-family:'Bell Gothic Std';-inkscape-font-specification:'Bell Gothic Std Bold';text-align:center;text-anchor:middle;fill:#6d4a58;fill-opacity:1;stroke-width:0.264583"
         id="path4100" />
      <path
         d="m 6.4182703,18.497733 c 0,0.524933 -0.1128888,0.826911 -0.4063997,0.826911 -0.3612442,0 -0.397933,-0.553156 -0.397933,-0.815622 0,-0.217311 0.022578,-0.400755 0.062089,-0.524933 0.059267,-0.194733 0.1693332,-0.318911 0.3471331,-0.318911 0.3697108,0 0.3951108,0.5588 0.3951106,0.832555 z m -0.4007552,-1.08091 c -0.1523999,0 -0.358422,0.03104 -0.5305774,0.307622 -0.1185333,0.189089 -0.1693332,0.476955 -0.1693332,0.793044 0,0.553155 0.1919109,1.063977 0.6999106,1.063977 0.5587995,0 0.6970883,-0.598311 0.6970883,-1.0922 0,-0.143933 -0.016933,-0.386644 -0.079022,-0.570088 -0.084667,-0.248355 -0.268111,-0.502355 -0.6180663,-0.502355 z"
         style="font-style:normal;font-variant:normal;font-weight:bold;font-stretch:normal;font-size:2.82222px;font-family:'Bell Gothic Std';-inkscape-font-specification:'Bell Gothic Std Bold';text-align:center;text-anchor:middle;fill:#6d4a58;fill-opacity:1;stroke-width:0.264583"
         id="path4102" />
      <path
         d="m 8.6593333,17.907889 c -0.056444,-0.259644 -0.2709331,-0.499533 -0.6237106,-0.499533 -0.1213555,0 -0.3781775,0.05645 -0.5446885,0.335844 -0.1298221,0.214489 -0.166511,0.522111 -0.166511,0.762 0,0.231422 0.045156,0.62371 0.2398888,0.860777 0.1749776,0.217311 0.3640663,0.217311 0.4487329,0.217311 0.2201332,0 0.358422,-0.121356 0.4148664,-0.169333 0.014111,-0.01129 0.033867,-0.03104 0.045155,-0.04233 0.011289,-0.0085 0.0254,-0.01411 0.036689,-0.01411 0.016933,0 0.036689,0.01976 0.062089,0.07338 l 0.064911,0.129822 H 8.7383555 V 18.565466 H 8.0638449 v 0.262467 h 0.4007553 c -0.00564,0.138289 -0.011289,0.248355 -0.1213555,0.375355 -0.031044,0.03387 -0.1298221,0.121356 -0.2850442,0.121356 -0.059267,0 -0.2285999,-0.01129 -0.333022,-0.225778 -0.084667,-0.174978 -0.1100666,-0.386644 -0.1100666,-0.6096 0,-0.0085 0,-0.287866 0.053622,-0.468488 0.098778,-0.338667 0.3104442,-0.366889 0.3838219,-0.366889 0.2342443,0 0.307622,0.217311 0.3386664,0.310444 z"
         style="font-style:normal;font-variant:normal;font-weight:bold;font-stretch:normal;font-size:2.82222px;font-family:'Bell Gothic Std';-inkscape-font-specification:'Bell Gothic Std Bold';text-align:center;text-anchor:middle;fill:#6d4a58;fill-opacity:1;stroke-width:0.264583"
         id="path4104" />
      <path
         d="m 10.809071,17.907889 c -0.05644,-0.259644 -0.270933,-0.499533 -0.62371,-0.499533 -0.121356,0 -0.3781777,0.05645 -0.5446887,0.335844 -0.1298221,0.214489 -0.166511,0.522111 -0.166511,0.762 0,0.231422 0.045155,0.62371 0.2398887,0.860777 0.1749777,0.217311 0.364066,0.217311 0.448733,0.217311 0.220133,0 0.358422,-0.121356 0.414866,-0.169333 0.01411,-0.01129 0.03387,-0.03104 0.04516,-0.04233 0.01129,-0.0085 0.0254,-0.01411 0.03669,-0.01411 0.01693,0 0.03669,0.01976 0.06209,0.07338 l 0.06491,0.129822 h 0.1016 v -0.996244 h -0.674511 v 0.262467 h 0.400755 c -0.0056,0.138289 -0.01129,0.248355 -0.121355,0.375355 -0.03105,0.03387 -0.129822,0.121356 -0.285044,0.121356 -0.05927,0 -0.2286003,-0.01129 -0.3330224,-0.225778 C 9.79025,18.923888 9.76485,18.712222 9.76485,18.489266 c 0,-0.0085 0,-0.287866 0.053622,-0.468488 0.098778,-0.338667 0.310444,-0.366889 0.383822,-0.366889 0.234244,0 0.307622,0.217311 0.338667,0.310444 z"
         style="font-style:normal;font-variant:normal;font-weight:bold;font-stretch:normal;font-size:2.82222px;font-family:'Bell Gothic Std';-inkscape-font-specification:'Bell Gothic Std Bold';text-align:center;text-anchor:middle;fill:#6d4a58;fill-opacity:1;stroke-width:0.264583"
         id="path4106" />
      <path
         d="M 11.781943,19.519377 H 13.02372 V 19.25691 h -0.956733 v -1.809043 h -0.285044 z"
         style="font-style:normal;font-variant:normal;font-weight:bold;font-stretch:normal;font-size:2.82222px;font-family:'Bell Gothic Std';-inkscape-font-specification:'Bell Gothic Std Bold';text-align:center;text-anchor:middle;fill:#6d4a58;fill-opacity:1;stroke-width:0.264583"
         id="path4108" />
      <path
         d="m 13.771828,19.519377 h 1.340555 V 19.25691 h -1.038577 v -0.691444 h 0.72531 V 18.303 h -0.730955 v -0.601133 h 0.9906 v -0.254 h -1.286933 z"
         style="font-style:normal;font-variant:normal;font-weight:bold;font-stretch:normal;font-size:2.82222px;font-family:'Bell Gothic Std';-inkscape-font-specification:'Bell Gothic Std Bold';text-align:center;text-anchor:middle;fill:#6d4a58;fill-opacity:1;stroke-width:0.264583"
         id="path4110" />
    </g>
    <g
       aria-label="AFTER RECORD"
       id="text4967"
       style="font-size:2.11667px;line-height:0;font-family:sans-serif;display:inline;fill:#6d4a58;fill-opacity:1;stroke-width:0.264583"
       transform="translate(0.06090423,4.572095)">
      <path
         d="m 19.949361,38.535421 0.230717,-0.789518 c 0.0021,-0.0042 0.0042,-0.01058 0.01058,-0.01058 0.0064,0 0.0085,0.0042 0.01058,0.0085 l 0.245534,0.791635 z m 0.664634,0.503767 h 0.226484 l -0.524934,-1.553635 h -0.243417 l -0.501651,1.553635 h 0.226483 l 0.09737,-0.32385 h 0.613835 z"
         style="font-style:normal;font-variant:normal;font-weight:bold;font-stretch:normal;font-size:2.11667px;line-height:1.5;font-family:'Bell Gothic Std';-inkscape-font-specification:'Bell Gothic Std Bold';text-align:center;text-anchor:middle;fill:#6d4a58;fill-opacity:1;stroke-width:0.264583"
         id="path4998" />
      <path
         d="m 21.136746,39.039188 h 0.222251 v -0.690034 h 0.529167 v -0.19685 h -0.529167 v -0.469901 h 0.734484 v -0.19685 h -0.956735 z"
         style="font-style:normal;font-variant:normal;font-weight:bold;font-stretch:normal;font-size:2.11667px;line-height:1.5;font-family:'Bell Gothic Std';-inkscape-font-specification:'Bell Gothic Std Bold';text-align:center;text-anchor:middle;fill:#6d4a58;fill-opacity:1;stroke-width:0.264583"
         id="path5000" />
      <path
         d="m 22.291026,37.485553 v 0.19685 h 0.452967 v 1.356785 h 0.222251 v -1.356785 h 0.45085 v -0.19685 z"
         style="font-style:normal;font-variant:normal;font-weight:bold;font-stretch:normal;font-size:2.11667px;line-height:1.5;font-family:'Bell Gothic Std';-inkscape-font-specification:'Bell Gothic Std Bold';text-align:center;text-anchor:middle;fill:#6d4a58;fill-opacity:1;stroke-width:0.264583"
         id="path5002" />
      <path
         d="m 23.75434,39.039188 h 1.005418 v -0.19685 h -0.778935 v -0.518584 h 0.543984 v -0.19685 H 23.97659 v -0.450851 h 0.742951 v -0.1905 H 23.75434 Z"
         style="font-style:normal;font-variant:normal;font-weight:bold;font-stretch:normal;font-size:2.11667px;line-height:1.5;font-family:'Bell Gothic Std';-inkscape-font-specification:'Bell Gothic Std Bold';text-align:center;text-anchor:middle;fill:#6d4a58;fill-opacity:1;stroke-width:0.264583"
         id="path5004" />
      <path
         d="m 25.168209,39.039188 h 0.218017 v -0.690034 h 0.239184 l 0.3683,0.690034 h 0.254001 L 25.84131,38.321637 c 0.1397,-0.04445 0.332317,-0.122767 0.332317,-0.414867 0,-0.15875 -0.09313,-0.421217 -0.527051,-0.421217 h -0.478367 z m 0.429684,-1.371602 c 0.232834,0 0.3556,0.08043 0.3556,0.262467 0,0.173567 -0.13335,0.218017 -0.218017,0.237067 -0.08043,0.01693 -0.232833,0.01693 -0.351367,0.01482 v -0.514351 z"
         style="font-style:normal;font-variant:normal;font-weight:bold;font-stretch:normal;font-size:2.11667px;line-height:1.5;font-family:'Bell Gothic Std';-inkscape-font-specification:'Bell Gothic Std Bold';text-align:center;text-anchor:middle;fill:#6d4a58;fill-opacity:1;stroke-width:0.264583"
         id="path5006" />
      <path
         d="m 19.045576,42.214193 h 0.218017 v -0.690034 h 0.239183 l 0.368301,0.690034 h 0.254 l -0.4064,-0.717551 c 0.1397,-0.04445 0.332317,-0.122767 0.332317,-0.414867 0,-0.15875 -0.09313,-0.421217 -0.527051,-0.421217 h -0.478367 z m 0.429684,-1.371602 c 0.232833,0 0.3556,0.08043 0.3556,0.262467 0,0.173567 -0.13335,0.218017 -0.218017,0.237067 -0.08043,0.01693 -0.232833,0.01693 -0.351367,0.01482 v -0.514351 z"
         style="font-style:normal;font-variant:normal;font-weight:bold;font-stretch:normal;font-size:2.11667px;line-height:1.5;font-family:'Bell Gothic Std';-inkscape-font-specification:'Bell Gothic Std Bold';text-align:center;text-anchor:middle;fill:#6d4a58;fill-opacity:1;stroke-width:0.264583"
         id="path5008" />
      <path
         d="m 20.459445,42.214193 h 1.005418 v -0.19685 h -0.778934 v -0.518584 h 0.543984 v -0.19685 h -0.548218 v -0.450851 h 0.742952 v -0.1905 h -0.965202 z"
         style="font-style:normal;font-variant:normal;font-weight:bold;font-stretch:normal;font-size:2.11667px;line-height:1.5;font-family:'Bell Gothic Std';-inkscape-font-specification:'Bell Gothic Std Bold';text-align:center;text-anchor:middle;fill:#6d4a58;fill-opacity:1;stroke-width:0.264583"
         id="path5010" />
      <path
         d="m 22.743266,41.073308 c -0.01058,-0.07408 -0.03175,-0.19685 -0.137584,-0.3048 -0.09525,-0.09737 -0.224367,-0.127001 -0.32385,-0.127001 -0.438151,0 -0.529168,0.452968 -0.529168,0.810685 0,0.747185 0.383118,0.812801 0.510118,0.812801 0.05927,0 0.211667,0 0.345017,-0.13335 0.09313,-0.09313 0.137583,-0.226484 0.14605,-0.34925 l -0.211667,-0.0381 c -0.0042,0.0508 -0.0127,0.1397 -0.05503,0.211666 -0.01905,0.02963 -0.08255,0.118534 -0.205317,0.118534 -0.256117,0 -0.317501,-0.332317 -0.317501,-0.673101 0,-0.01693 0.0063,-0.232834 0.0635,-0.372534 0.03387,-0.08255 0.09948,-0.2032 0.254001,-0.2032 0.169333,0 0.2413,0.135467 0.258233,0.28575 z"
         style="font-style:normal;font-variant:normal;font-weight:bold;font-stretch:normal;font-size:2.11667px;line-height:1.5;font-family:'Bell Gothic Std';-inkscape-font-specification:'Bell Gothic Std Bold';text-align:center;text-anchor:middle;fill:#6d4a58;fill-opacity:1;stroke-width:0.264583"
         id="path5012" />
      <path
         d="m 23.861562,41.447959 c 0,0.3937 -0.08467,0.620184 -0.304801,0.620184 -0.270933,0 -0.29845,-0.414867 -0.29845,-0.611718 0,-0.162983 0.01693,-0.300567 0.04657,-0.3937 0.04445,-0.14605 0.127,-0.239184 0.26035,-0.239184 0.277284,0 0.296334,0.419101 0.296334,0.624418 z m -0.300567,-0.810685 c -0.1143,0 -0.268817,0.02328 -0.397934,0.230717 -0.0889,0.141817 -0.127,0.357717 -0.127,0.594784 0,0.414868 0.143933,0.797985 0.524934,0.797985 0.4191,0 0.522817,-0.448734 0.522817,-0.819151 0,-0.10795 -0.0127,-0.289984 -0.05927,-0.427568 -0.0635,-0.186267 -0.201083,-0.376767 -0.46355,-0.376767 z"
         style="font-style:normal;font-variant:normal;font-weight:bold;font-stretch:normal;font-size:2.11667px;line-height:1.5;font-family:'Bell Gothic Std';-inkscape-font-specification:'Bell Gothic Std Bold';text-align:center;text-anchor:middle;fill:#6d4a58;fill-opacity:1;stroke-width:0.264583"
         id="path5014" />
      <path
         d="m 24.461274,42.214193 h 0.218017 v -0.690034 h 0.239184 l 0.3683,0.690034 h 0.254001 l -0.406401,-0.717551 c 0.1397,-0.04445 0.332317,-0.122767 0.332317,-0.414867 0,-0.15875 -0.09313,-0.421217 -0.52705,-0.421217 h -0.478368 z m 0.429684,-1.371602 c 0.232834,0 0.355601,0.08043 0.355601,0.262467 0,0.173567 -0.13335,0.218017 -0.218017,0.237067 -0.08043,0.01693 -0.232834,0.01693 -0.351367,0.01482 v -0.514351 z"
         style="font-style:normal;font-variant:normal;font-weight:bold;font-stretch:normal;font-size:2.11667px;line-height:1.5;font-family:'Bell Gothic Std';-inkscape-font-specification:'Bell Gothic Std Bold';text-align:center;text-anchor:middle;fill:#6d4a58;fill-opacity:1;stroke-width:0.264583"
         id="path5016" />
      <path
         d="m 26.160894,40.857408 c 0.192617,0 0.304801,0.03175 0.389467,0.13335 0.09948,0.12065 0.122767,0.302684 0.122767,0.444501 0,0.289983 -0.08467,0.582084 -0.455084,0.582084 h -0.160867 v -1.159935 z m 0.01905,1.356785 c 0.410634,0 0.541868,-0.175683 0.609601,-0.296334 0.09525,-0.167216 0.110067,-0.359833 0.110067,-0.459317 0,-0.499534 -0.207434,-0.797984 -0.721785,-0.797984 h -0.33655 v 1.553635 z"
         style="font-style:normal;font-variant:normal;font-weight:bold;font-stretch:normal;font-size:2.11667px;line-height:1.5;font-family:'Bell Gothic Std';-inkscape-font-specification:'Bell Gothic Std Bold';text-align:center;text-anchor:middle;fill:#6d4a58;fill-opacity:1;stroke-width:0.264583"
         id="path5018" />
    </g>
  </g>
  <g
     inkscape:label="components"
     inkscape:groupmode="layer"
     id="components"
     style="display:none;opacity:0.5">
    <circle
       id="circle31"
       style="fill:#ff0000;stroke-width:4.65"
       cx="21.96748"
       cy="26.937189"
       inkscape:label="MODE_TOGGLE"
       r="4.6500001" />
    <circle
       style="fill:#00ff00;stroke-width:4.10001"
       cx="7.97965"
       cy="112.29998"
       inkscape:label="MAIN"
       id="circle43"
       r="4.0999999" />
    <circle
       style="fill:#0000ff;stroke-width:4.10001"
       cx="22.461775"
       cy="112.29998"
       inkscape:label="MAIN"
       id="circle45"
       r="4.0999999" />
    <circle
       style="fill:#ff00ff;stroke-width:1.59999"
       cx="5.0971284"
       cy="43.728489"
       inkscape:label="RECORD_STATUS"
       id="circle253"
       r="1.6" />
    <circle
       style="fill:#00ff00;stroke-width:4.10001"
       cx="7.4547291"
       cy="74.77581"
       inkscape:label="STOP_CV"
       id="circle359"
       r="4.0999999" />
    <circle
       style="fill:#00ff00;stroke-width:4.10001"
       cx="7.471271"
       cy="93.82579"
       inkscape:label="ERASE_CV"
       id="circle361"
       r="4.0999999" />
    <circle
       style="fill:#ff00ff;stroke-width:1.59999"
       cx="12.937593"
       cy="50.607658"
       inkscape:label="OVERDUB_STATUS"
       id="circle423"
       r="1.6" />
    <circle
       style="fill:#ff00ff;stroke-width:1.59999"
       cx="12.937593"
       cy="43.728489"
       inkscape:label="PLAY_STATUS"
       id="circle1362"
       r="1.6" />
    <circle
       id="circle1400"
       style="fill:#ff0000;stroke-width:4.65"
       cx="21.96748"
       cy="69.484131"
       inkscape:label="STOP_BUTTON"
       r="4.6500001" />
    <circle
       id="circle1402"
       style="fill:#ff0000;stroke-width:4.65"
       cx="21.950937"
       cy="88.485794"
       inkscape:label="ERASE_BUTTON"
       r="4.6500001" />
    <circle
       style="fill:#00ff00;stroke-width:4.10001"
       cx="7.4547291"
       cy="26.937105"
       inkscape:label="MODE_CV"
       id="circle1406"
       r="4.0999999" />
    <circle
       style="fill:#ff00ff;stroke-width:1.59999"
       cx="5.1471281"
       cy="50.607658"
       inkscape:label="STOP_STATUS"
       id="circle1613"
       r="1.6" />
    <rect
       style="display:inline;opacity:1;mix-blend-mode:normal;fill:#ff0000;fill-opacity:1;stroke-width:0.2531"
       id="rect1615"
       width="4.5"
       height="7.0999999"
       x="20.73708"
       y="49.429665"
       inkscape:label="AFTER_RECORD" />
  </g>
  <g
     inkscape:groupmode="layer"
     id="layer19"
     inkscape:label="Mask"
     sodipodi:insensitive="true"
     style="display:none">
    <path
       id="rect28-3"
       style="display:inline;opacity:1;mix-blend-mode:normal;fill:#303030;fill-opacity:1;fill-rule:evenodd;stroke-width:1.47704"
       d="M -48.464844,-44.871094 V 530.54102 H 163.66406 V -44.871094 Z M 0,0 H 115.19922 V 485.66992 H 0 Z"
       transform="scale(0.26458333)" />
    <rect
       style="display:inline;opacity:1;mix-blend-mode:normal;fill:#000000;fill-opacity:0;fill-rule:evenodd;stroke-width:0.264583"
       id="rect3814"
       width="30.48"
       height="128.5"
       x="0"
       y="0" />
  </g>
</svg>
