<?xml version="1.0" encoding="UTF-8" standalone="no"?>
<svg
   xmlns:dc="http://purl.org/dc/elements/1.1/"
   xmlns:cc="http://creativecommons.org/ns#"
   xmlns:rdf="http://www.w3.org/1999/02/22-rdf-syntax-ns#"
   xmlns:svg="http://www.w3.org/2000/svg"
   xmlns="http://www.w3.org/2000/svg"
   xmlns:sodipodi="http://sodipodi.sourceforge.net/DTD/sodipodi-0.dtd"
   xmlns:inkscape="http://www.inkscape.org/namespaces/inkscape"
   width="30.48mm"
   height="128.5mm"
   viewBox="0 0 30.479999 128.5"
   version="1.1"
   id="svg8"
   inkscape:version="1.0.1 (c497b03c, 2020-09-10)"
   sodipodi:docname="Looper.svg"
   inkscape:export-filename="/Users/grough/Desktop/VCV Junk/Lilac Progress 20201015-2.png"
   inkscape:export-xdpi="300"
   inkscape:export-ydpi="300">
  <defs
     id="defs2">
    <inkscape:perspective
       sodipodi:type="inkscape:persp3d"
       inkscape:vp_x="0 : 64.25 : 1"
       inkscape:vp_y="0 : 1000 : 0"
       inkscape:vp_z="30.479999 : 64.25 : 1"
       inkscape:persp3d-origin="15.239999 : 42.833333 : 1"
       id="perspective3344" />
  </defs>
  <sodipodi:namedview
     id="base"
     pagecolor="#303030"
     bordercolor="#666666"
     borderopacity="1.0"
     inkscape:pageopacity="0"
     inkscape:pageshadow="2"
     inkscape:zoom="1.0961233"
     inkscape:cx="-89.536926"
     inkscape:cy="306.57075"
     inkscape:document-units="mm"
     inkscape:current-layer="layer1"
     inkscape:document-rotation="0"
     showgrid="false"
     inkscape:window-width="2560"
     inkscape:window-height="1314"
     inkscape:window-x="0"
     inkscape:window-y="23"
     inkscape:window-maximized="0"
     inkscape:snap-page="true"
     inkscape:snap-grids="true"
     inkscape:snap-to-guides="true"
     inkscape:snap-others="true"
     inkscape:object-nodes="false"
     inkscape:snap-nodes="true"
     inkscape:snap-global="true"
     showguides="false"
     inkscape:guide-bbox="true"
     inkscape:snap-bbox="true"
     inkscape:showpageshadow="false"
     showborder="false">
    <sodipodi:guide
       position="27.516667,71.085418"
       orientation="1,0"
       id="guide1308" />
    <sodipodi:guide
       position="3.0427083,63.941668"
       orientation="1,0"
       id="guide1310" />
    <inkscape:grid
       type="xygrid"
       id="grid3645"
       units="mm"
       spacingx="5.08"
       spacingy="32.625"
       empcolor="#3f3fff"
       empopacity="0.1254902" />
  </sodipodi:namedview>
  <metadata
     id="metadata5">
    <rdf:RDF>
      <cc:Work
         rdf:about="">
        <dc:format>image/svg+xml</dc:format>
        <dc:type
           rdf:resource="http://purl.org/dc/dcmitype/StillImage" />
        <dc:title />
      </cc:Work>
    </rdf:RDF>
  </metadata>
  <g
     inkscape:groupmode="layer"
     id="layer6"
     inkscape:label="Panel"
     style="display:inline">
    <rect
       style="display:inline;opacity:1;mix-blend-mode:normal;fill:#dad5d5;fill-opacity:1;fill-rule:evenodd;stroke-width:0.264583"
       id="rect28"
       width="30.48"
       height="128.5"
       x="0"
       y="0" />
  </g>
  <g
     inkscape:groupmode="layer"
     id="layer2"
     inkscape:label="Panel graphics"
     style="display:inline">
    <rect
       style="display:inline;opacity:1;mix-blend-mode:normal;fill:#2b2d2b;fill-opacity:1;stroke-width:1;stroke-miterlimit:4;stroke-dasharray:none"
       id="output"
       width="9.6999998"
       height="14.2"
       x="17.827087"
       y="103.5"
       rx="1"
       ry="1" />
    <circle
       style="display:inline;mix-blend-mode:normal;fill:#d7b7bf;fill-opacity:1;stroke-width:0.91392;stroke-miterlimit:4;stroke-dasharray:none"
       id="circle3672"
       cx="21.96748"
       cy="-68.954971"
       transform="scale(1,-1)"
       r="0" />
    <circle
       style="display:inline;mix-blend-mode:normal;fill:#d7b7bf;fill-opacity:1;stroke-width:0.91425"
       id="circle3727"
       cx="21.950937"
       cy="88.485794"
       r="0" />
    <circle
       style="display:inline;mix-blend-mode:normal;fill:#d7b7bf;fill-opacity:1;stroke-width:0.91392;stroke-miterlimit:4;stroke-dasharray:none"
       id="circle3831"
       cx="21.967365"
       cy="-26.40794"
       transform="scale(1,-1)"
       r="0" />
    <path
       style="display:inline;opacity:1;mix-blend-mode:normal;fill:none;stroke:#d7b7bf;stroke-width:0.5;stroke-linecap:butt;stroke-linejoin:miter;stroke-miterlimit:4;stroke-dasharray:none;stroke-opacity:1"
       d="m 7.734561,26.407941 h 14.00995"
       id="path3855"
       sodipodi:nodetypes="cc"
       inkscape:export-filename="/Users/grough/Desktop/VCV Junk/path3666.png"
       inkscape:export-xdpi="300"
       inkscape:export-ydpi="300" />
    <path
       style="display:inline;opacity:1;mix-blend-mode:normal;fill:none;stroke:#d7b7bf;stroke-width:0.5;stroke-linecap:butt;stroke-linejoin:miter;stroke-miterlimit:4;stroke-dasharray:none;stroke-opacity:1"
       d="M 7.9714208,94.376535 21.981371,88.57007"
       id="path3668"
       sodipodi:nodetypes="cc"
       inkscape:export-filename="/Users/grough/Desktop/VCV Junk/path3666.png"
       inkscape:export-xdpi="300"
       inkscape:export-ydpi="300" />
    <path
       style="display:inline;opacity:1;mix-blend-mode:normal;fill:none;stroke:#d7b7bf;stroke-width:0.5;stroke-linecap:butt;stroke-linejoin:miter;stroke-miterlimit:4;stroke-dasharray:none;stroke-opacity:1"
       d="M 7.9714208,74.268201 21.981371,69.001415"
       id="path3666"
       sodipodi:nodetypes="cc"
       inkscape:export-filename="/Users/grough/Desktop/VCV Junk/path3666.png"
       inkscape:export-xdpi="300"
       inkscape:export-ydpi="300" />
    <path
       style="display:inline;fill:none;fill-opacity:1;stroke:#d1c7cc;stroke-width:0.5;stroke-linecap:butt;stroke-linejoin:miter;stroke-miterlimit:4;stroke-dasharray:none;stroke-opacity:1"
       d="M 8.9920623,58.171019 V 35.745897 h 7.6514697 v 3.431094 h 10.856645"
       id="path3821"
       sodipodi:nodetypes="ccccc"
       inkscape:export-filename="/Users/grough/Desktop/VCV Junk/path3666.png"
       inkscape:export-xdpi="300"
       inkscape:export-ydpi="300" />
    <circle
       style="display:inline;fill:#b70701;fill-opacity:1;stroke:#d7b7bf;stroke-width:0"
       id="circle3615"
       cx="5.0971284"
       cy="-38.939503"
       transform="scale(1,-1)"
       r="1.3999995" />
    <path
       style="display:inline;fill:#5f891f;fill-opacity:1;stroke:none;stroke-width:0.30268;stroke-linecap:butt;stroke-linejoin:miter;stroke-miterlimit:4;stroke-dasharray:none;stroke-opacity:1"
       d="m 11.828752,37.339503 2.753943,1.527476 -2.753943,1.34574"
       id="path3619"
       sodipodi:nodetypes="ccc" />
    <path
       id="path3649"
       style="display:inline;fill:#8f8400;fill-opacity:1;stroke:#d7b7bf;stroke-width:0"
       d="m 12.444735,57.113491 v -1.107142 h -1.107143 v -0.885714 h 1.107143 v -1.107143 h 0.885714 v 1.107143 h 1.107142 v 0.885714 h -1.107142 v 1.107142 z" />
    <rect
       style="display:inline;fill:#006a99;fill-opacity:1;stroke:none;stroke-width:0.219094;stroke-miterlimit:4;stroke-dasharray:none"
       id="rect3653"
       width="2.0999999"
       height="2.0999999"
       x="4.1004939"
       y="54.478691" />
    <circle
       style="display:inline;mix-blend-mode:normal;fill:#d7b7bf;fill-opacity:1;stroke-width:0.91392;stroke-miterlimit:4;stroke-dasharray:none"
       id="ellipse5996"
       cx="21.96748"
       cy="-68.954971"
       transform="scale(1,-1)"
       r="0" />
    <circle
       style="display:inline;mix-blend-mode:normal;fill:#d7b7bf;fill-opacity:1;stroke-width:0.91392;stroke-miterlimit:4;stroke-dasharray:none"
       id="ellipse5998"
       cx="21.96748"
       cy="-68.954971"
       transform="scale(1,-1)"
       r="0" />
    <circle
       style="display:inline;mix-blend-mode:normal;fill:#d7b7bf;fill-opacity:1;stroke-width:0.91392;stroke-miterlimit:4;stroke-dasharray:none"
       id="ellipse6000"
       cx="21.96748"
       cy="-63.663303"
       transform="scale(1,-1)"
       r="0" />
    <circle
       style="display:inline;mix-blend-mode:normal;fill:#d7b7bf;fill-opacity:1;stroke-width:0.91392;stroke-miterlimit:4;stroke-dasharray:none"
       id="circle3672-5"
       cx="21.96748"
       cy="-68.954971"
       transform="scale(1,-1)"
       r="6" />
    <circle
       style="display:inline;mix-blend-mode:normal;fill:#d7b7bf;fill-opacity:1;stroke-width:0.91392;stroke-miterlimit:4;stroke-dasharray:none"
       id="circle7658"
       cx="21.967365"
       cy="-26.407938"
       transform="scale(1,-1)"
       r="6" />
    <circle
       style="display:inline;mix-blend-mode:normal;fill:#d7b7bf;fill-opacity:1;stroke-width:0.91392;stroke-miterlimit:4;stroke-dasharray:none"
       id="circle7660"
       cx="21.950937"
       cy="-88.485794"
       transform="scale(1,-1)"
       r="6" />
    <g
       id="g3371"
       transform="matrix(0.92400001,0,0,0.92400001,1.0526811,9.9720719)"
       style="display:inline;mix-blend-mode:normal">
      <g
         id="g2422"
         transform="matrix(1.1618277,0,0,1.1618277,-2.1847927,-20.500906)">
        <path
           id="path2410"
           style="display:inline;fill:#d7b7bf;fill-opacity:1;stroke-width:0.0131509"
           d="m 16.520736,121.57901 c -0.01732,0 -0.08726,0.0184 -0.155505,0.0412 -0.137907,0.046 -0.194703,0.0924 -0.289823,0.23706 -0.05137,0.0782 -0.06018,0.11007 -0.104735,0.38538 -0.02537,0.1568 -0.04146,0.19108 -0.08955,0.19108 -0.03125,0 -0.120663,0.052 -0.13472,0.0783 -0.0077,0.014 -0.01361,0.0377 -0.01361,0.0527 0,0.0389 0.09788,0.14024 0.144312,0.14951 0.05137,0.0102 0.07179,0.0499 0.05438,0.10475 -0.0077,0.0231 -0.01346,0.0908 -0.01361,0.1503 -1.47e-4,0.066 -0.01084,0.15043 -0.02762,0.21587 -0.0171,0.067 -0.02452,0.12528 -0.01958,0.15471 0.0046,0.026 -7.73e-4,0.10583 -0.01161,0.1775 -0.02097,0.13905 -0.01679,0.16183 0.0352,0.19828 0.03644,0.0256 0.174551,0.0144 0.210275,-0.0168 0.03597,-0.0314 0.0646,-0.1691 0.08915,-0.43015 0.0077,-0.0795 0.02297,-0.18007 0.03434,-0.22346 0.01137,-0.0434 0.02035,-0.0879 0.02003,-0.0987 -0.0016,-0.0504 0.01516,-0.12069 0.0328,-0.13832 0.02275,-0.0228 0.225135,-0.027 0.329399,-0.007 0.03474,0.006 0.116393,0.0192 0.18149,0.028 0.13851,0.0188 0.305093,0.0587 0.329801,0.0792 0.02893,0.024 0.04564,0.14143 0.04958,0.34818 0.0046,0.23072 0.02614,0.30228 0.115133,0.37378 0.04556,0.0367 0.05887,0.0408 0.103938,0.0332 0.06645,-0.0112 0.163497,-0.0857 0.182287,-0.13951 0.01903,-0.0547 0.01895,-0.1078 -7.73e-4,-0.12753 -0.0087,-0.009 -0.02019,-0.0467 -0.02522,-0.0848 -0.0046,-0.038 -0.01825,-0.0926 -0.02955,-0.12153 -0.01563,-0.0397 -0.01911,-0.08 -0.01361,-0.1643 0.0046,-0.0671 0.0016,-0.13556 -0.0077,-0.17109 -0.0084,-0.0326 -0.02004,-0.0798 -0.0256,-0.10514 -0.0088,-0.0395 -0.03806,-0.10067 -0.125521,-0.26304 -0.0097,-0.0181 -0.03613,-0.0927 -0.0588,-0.1659 -0.0533,-0.17249 -0.143399,-0.35493 -0.203468,-0.41216 -0.02614,-0.0249 -0.04758,-0.0531 -0.04758,-0.0627 0,-0.0296 -0.105586,-0.11764 -0.183092,-0.1523 -0.117004,-0.0523 -0.29673,-0.11433 -0.331,-0.11433 z m -0.0256,0.3306 c 0.05415,-0.004 0.129212,0.0151 0.19229,0.0511 0.108433,0.062 0.17336,0.16081 0.235455,0.35778 0.04077,0.1294 0.03752,0.17511 -0.01401,0.19469 -0.04146,0.0158 -0.0492,0.0152 -0.130317,-0.008 -0.04262,-0.0123 -0.119016,-0.0182 -0.217076,-0.0168 -0.161323,0.003 -0.257773,-0.0165 -0.269036,-0.0532 -0.0069,-0.0237 0.01137,-0.20014 0.03117,-0.29344 0.01702,-0.0802 0.08449,-0.1987 0.125521,-0.22066 0.01215,-0.006 0.02792,-0.0103 0.04595,-0.0116 z" />
        <path
           style="display:inline;fill:#d7b7bf;fill-opacity:1;stroke-width:0.0131509"
           d="m 16.022068,120.81791 c -0.0039,-0.0105 -0.0069,-0.008 -0.0079,0.008 -5.57e-4,0.0138 0.0023,0.0216 0.0069,0.0173 0.0046,-0.004 0.0046,-0.0157 7.74e-4,-0.0252 z"
           id="path2412" />
        <path
           style="display:inline;fill:#d7b7bf;fill-opacity:1;stroke-width:0.014294"
           d="m 18.500858,123.53883 c -0.03144,-0.0122 -0.08223,-0.0416 -0.112948,-0.0653 -0.03069,-0.0237 -0.07963,-0.0514 -0.10877,-0.0614 -0.08538,-0.0294 -0.186781,-0.0948 -0.230295,-0.14862 -0.02607,-0.0322 -0.05347,-0.0981 -0.07736,-0.18568 -0.03102,-0.11402 -0.03767,-0.17233 -0.04137,-0.36444 -0.0033,-0.15317 0.0018,-0.25232 0.01387,-0.30018 0.02473,-0.0963 0.08357,-0.22511 0.114648,-0.25072 0.01395,-0.0114 0.04658,-0.054 0.07264,-0.0947 0.02607,-0.0406 0.06836,-0.0885 0.09412,-0.10642 0.02573,-0.0179 0.07576,-0.0579 0.111115,-0.0886 0.05776,-0.0504 0.157984,-0.10416 0.361312,-0.19405 0.07214,-0.0319 0.196343,-0.0403 0.256773,-0.0174 0.01866,0.007 0.07105,0.0583 0.116397,0.11373 0.08248,0.10083 0.08248,0.10083 0.07248,0.18134 -0.01176,0.0941 -0.07509,0.18918 -0.140368,0.21084 -0.06752,0.0223 -0.146557,-0.01 -0.18024,-0.0726 -0.05735,-0.10764 -0.05735,-0.10762 -0.150829,-0.0717 -0.06189,0.0236 -0.104489,0.0544 -0.169023,0.12191 -0.04751,0.0496 -0.09952,0.11471 -0.115664,0.1446 -0.09048,0.16747 -0.10539,0.20067 -0.114429,0.25485 -0.0051,0.0328 -0.0033,0.0822 0.0042,0.11004 0.0085,0.0308 0.009,0.0725 0.0018,0.10676 -0.009,0.0398 -0.0067,0.0803 0.009,0.13929 0.02841,0.10926 0.06752,0.16997 0.124342,0.19342 0.02548,0.0104 0.09017,0.0461 0.143765,0.0791 0.06163,0.038 0.122719,0.0635 0.166291,0.0695 0.09566,0.0131 0.395836,-0.0183 0.465265,-0.0486 0.03144,-0.0138 0.07467,-0.0294 0.09611,-0.0349 0.02144,-0.004 0.06323,-0.0263 0.09292,-0.0463 0.04095,-0.0278 0.06432,-0.0343 0.09685,-0.0275 0.02354,0.004 0.07383,0.0142 0.111603,0.0205 0.09756,0.0162 0.167216,0.085 0.166913,0.16473 -1.59e-4,0.0319 -0.0051,0.0651 -0.01068,0.0738 -0.02262,0.0343 -0.163465,0.091 -0.347095,0.13959 -0.168097,0.0445 -0.226443,0.0526 -0.463868,0.0655 -0.334221,0.018 -0.357596,0.0175 -0.428823,-0.0102 z"
           id="path2414" />
        <path
           style="display:inline;fill:#d7b7bf;fill-opacity:1;stroke-width:0.0131509"
           d="m 13.045297,123.78274 c -0.05353,-0.0535 -0.0632,-0.135 -0.08731,-0.73954 -0.0039,-0.0976 -0.01253,-0.21896 -0.01926,-0.26959 -0.03767,-0.28553 -0.0062,-0.99891 0.05508,-1.23893 0.0077,-0.0305 0.01029,-0.0705 0.0054,-0.0889 -0.01191,-0.0475 0.03411,-0.10436 0.111527,-0.13766 0.07856,-0.0338 0.105052,-0.034 0.146896,-7.7e-4 0.01818,0.0143 0.04858,0.032 0.06753,0.0392 0.0321,0.0122 0.03442,0.0187 0.03442,0.0963 0,0.0457 -0.0054,0.0888 -0.01183,0.0957 -0.0062,0.007 -0.02228,0.10423 -0.03496,0.21634 -0.03613,0.31903 -0.03133,1.27168 0.008,1.5781 0.0069,0.0542 0.01555,0.1676 0.01903,0.2519 0.0062,0.15329 0.0062,0.15329 -0.03999,0.19398 -0.0417,0.0366 -0.05493,0.0407 -0.132383,0.0407 -0.07643,0 -0.0901,-0.004 -0.122389,-0.0363 z"
           id="path2416" />
        <path
           style="display:inline;fill:#d7b7bf;fill-opacity:1;stroke-width:0.0131509"
           d="m 11.385862,123.65354 c -0.188018,-0.0122 -0.256791,-0.0393 -0.400901,-0.15851 -0.0584,-0.0483 -0.05979,-0.0519 -0.09036,-0.23859 -0.0054,-0.0338 -0.01818,-0.0712 -0.02808,-0.0831 -0.01408,-0.017 -0.01787,-0.0862 -0.01748,-0.31997 7.73e-4,-0.54251 0.0304,-0.87294 0.09937,-1.11649 0.05083,-0.17941 0.06282,-0.19533 0.176423,-0.23394 0.06962,-0.0236 0.06962,-0.0236 0.121205,0.0121 0.02839,0.0196 0.06514,0.0613 0.08175,0.0927 0.03017,0.0569 0.03017,0.0569 -0.01485,0.14712 -0.03164,0.0633 -0.04394,0.10414 -0.04108,0.13703 0.0023,0.0258 -0.0082,0.079 -0.02313,0.11837 -0.01973,0.0519 -0.02715,0.10215 -0.02723,0.18338 -7e-6,0.0615 -0.0062,0.13254 -0.0133,0.15781 -0.01772,0.0611 -0.01895,0.6478 -0.0016,0.72321 0.04371,0.18878 0.06738,0.2284 0.165098,0.27569 0.05229,0.0253 0.08233,0.0173 0.174673,0.007 0.126511,-0.0106 0.255351,-0.0253 0.286302,-0.0327 0.03095,-0.007 0.0697,-0.01 0.08609,-0.006 0.0164,0.004 0.05709,-0.002 0.09044,-0.013 0.104767,-0.0356 0.191825,-0.0323 0.263637,0.01 0.03845,0.0226 0.06243,0.046 0.06243,0.0607 0,0.0532 -0.04348,0.14222 -0.09534,0.19507 -0.05477,0.0559 -0.05477,0.0559 -0.213153,0.0561 -0.0871,10e-5 -0.223457,0.005 -0.303021,0.0124 -0.07955,0.007 -0.177204,0.0149 -0.216989,0.0181 -0.03976,0.004 -0.03417,0.002 -0.120963,-0.004 z"
           id="path2418"
           sodipodi:nodetypes="cscccscccccccccsccsccscscccc" />
        <path
           style="display:inline;fill:#d7b7bf;fill-opacity:1;stroke-width:0.0131509"
           d="m 14.558846,123.65354 c -0.188018,-0.0122 -0.256791,-0.0393 -0.400901,-0.15851 -0.0584,-0.0483 -0.05979,-0.0519 -0.09036,-0.23859 -0.0054,-0.0338 -0.01818,-0.0712 -0.02808,-0.0831 -0.01408,-0.017 -0.01787,-0.0862 -0.01748,-0.31997 7.73e-4,-0.54251 0.0304,-0.87294 0.09937,-1.11649 0.05083,-0.17941 0.06282,-0.19533 0.176423,-0.23394 0.06962,-0.0236 0.06962,-0.0236 0.121205,0.0121 0.02839,0.0196 0.06514,0.0613 0.08175,0.0927 0.03017,0.0569 0.03017,0.0569 -0.01485,0.14712 -0.03164,0.0633 -0.04394,0.10414 -0.04108,0.13703 0.0023,0.0258 -0.0082,0.079 -0.02313,0.11837 -0.01973,0.0519 -0.02715,0.10215 -0.02723,0.18338 -7e-6,0.0615 -0.0062,0.13254 -0.0133,0.15781 -0.01772,0.0611 -0.01895,0.6478 -0.0016,0.72321 0.04371,0.18878 0.06738,0.2284 0.165098,0.27569 0.05229,0.0253 0.08233,0.0173 0.174673,0.007 0.126511,-0.0106 0.255351,-0.0253 0.286302,-0.0327 0.03095,-0.007 0.0697,-0.01 0.08609,-0.006 0.0164,0.004 0.05709,-0.002 0.09044,-0.013 0.104767,-0.0356 0.191825,-0.0323 0.263637,0.01 0.03845,0.0226 0.06243,0.046 0.06243,0.0607 0,0.0532 -0.04348,0.14222 -0.09534,0.19507 -0.05477,0.0559 -0.05477,0.0559 -0.213153,0.0561 -0.0871,10e-5 -0.223457,0.005 -0.303021,0.0124 -0.07955,0.007 -0.177204,0.0149 -0.216989,0.0181 -0.03976,0.004 -0.03417,0.002 -0.120963,-0.004 z"
           id="path2420"
           sodipodi:nodetypes="cscccscccccccccsccsccscscccc" />
      </g>
    </g>
    <g
       id="g5898"
       transform="translate(0.11827787,1.1679273)"
       style="display:inline;mix-blend-mode:normal">
      <path
         id="path5872"
         style="fill:#d7b7bf;fill-opacity:1;stroke-width:1.3477;stroke-miterlimit:4;stroke-dasharray:none"
         d="m 9.512045,7.0948536 c -0.099612,-0.00214 -0.196644,0.02663 -0.2934348,0.086448 -0.042012,0.025969 -0.1206168,0.054222 -0.1746864,0.062762 -0.1959864,0.030983 -0.382632,0.2257289 -0.4462642,0.4656415 -0.015232,0.057428 -0.03796,0.1307826 -0.050497,0.1629875 -0.03256,0.08364 -0.028172,0.3217856 0.00816,0.4420795 0.022157,0.073352 0.068534,0.1428882 0.162703,0.2440738 0.119448,0.1283538 0.1479624,0.1472552 0.307002,0.2036923 v 4.27e-5 c 0.1994892,0.070768 0.3137388,0.070612 0.4534956,-7.033e-4 0.045888,-0.023405 0.097044,-0.037346 0.113712,-0.030954 0.068028,0.026096 0.2315304,-0.090577 0.3985297,-0.284455 C 10.082289,8.3402198 10.186227,8.2246845 10.221756,8.1897176 10.3083,8.1045524 10.33404,8.0506097 10.33344,7.9558791 10.332637,7.8279149 10.297128,7.7089307 10.2303,7.6098767 10.149636,7.4903675 9.8427194,7.2000825 9.7503158,7.1559471 9.6685718,7.1169003 9.5895254,7.0965279 9.512051,7.0948467 Z m 0.048924,0.5216229 c 0.044244,-7.743e-4 0.085248,0.00806 0.115092,0.027582 0.053076,0.034781 0.137922,0.1894875 0.137922,0.251508 0,0.060858 -0.1413792,0.2710895 -0.2092584,0.3111872 -0.034692,0.02049 -0.1258236,0.05597 -0.2025156,0.078811 C 9.210575,8.3426427 9.2044862,8.3437897 9.169181,8.3302567 9.0273242,8.2758893 8.9461634,8.0581896 9.0049346,7.8895973 c 0.026628,-0.076373 0.057468,-0.096203 0.181512,-0.1167552 0.055272,-0.00913 0.118008,-0.039445 0.1623372,-0.078365 0.055608,-0.048821 0.1384416,-0.076704 0.212184,-0.077996 z" />
      <path
         id="path5874"
         style="fill:#d7b7bf;fill-opacity:1;stroke-width:1.3477;stroke-miterlimit:4;stroke-dasharray:none"
         d="m 13.455554,7.138646 c -0.09528,-0.00107 -0.329113,0.1289397 -0.454714,0.2528496 -0.06863,0.067717 -0.148324,0.1447555 -0.177043,0.171234 -0.06612,0.060955 -0.157634,0.2978245 -0.17615,0.4558104 -0.01692,0.1444145 0.01259,0.2849418 0.0971,0.4624744 0.05107,0.1073208 0.08046,0.1395305 0.197396,0.2164079 0.235615,0.1549081 0.403695,0.2214201 0.651501,0.2578046 0.0286,0.00418 0.06137,0.00884 0.0728,0.010332 0.07832,0.010224 0.197676,-0.054582 0.314883,-0.1709513 0.07076,-0.070234 0.16702,-0.1593218 0.213931,-0.197963 0.04691,-0.038639 0.09121,-0.094804 0.09839,-0.1247991 0.0072,-0.030001 0.03046,-0.089266 0.05172,-0.1317056 0.02843,-0.056748 0.03864,-0.1228014 0.03846,-0.2495999 -2.32e-4,-0.1858547 -0.04366,-0.3152083 -0.148726,-0.4427877 -0.02825,-0.034325 -0.07237,-0.097164 -0.09803,-0.1396277 -0.08058,-0.1333554 -0.243261,-0.2372476 -0.512321,-0.3272341 -0.0686,-0.022948 -0.144749,-0.041932 -0.169203,-0.042252 z m 0.06712,0.5821959 c 0.1011,5.266e-4 0.224678,0.053902 0.247526,0.1068852 0.01164,0.026844 0.048,0.093784 0.08092,0.1487679 0.05119,0.085506 0.05795,0.1138308 0.04675,0.1955274 -0.01542,0.112494 -0.02828,0.1303504 -0.153846,0.2135244 -0.104724,0.069368 -0.10068,0.068825 -0.233593,0.03076 -0.05148,-0.014748 -0.114156,-0.027553 -0.139262,-0.028476 -0.06955,-0.00253 -0.141753,-0.082542 -0.192846,-0.2136477 -0.05453,-0.1399288 -0.04493,-0.2161524 0.03672,-0.2919719 0.08754,-0.08127 0.240883,-0.1616759 0.307611,-0.1613611 z" />
      <path
         id="path5876"
         style="fill:#d7b7bf;fill-opacity:1;stroke-width:1.3477;stroke-miterlimit:4;stroke-dasharray:none"
         d="m 17.49482,7.0106516 c -0.07141,0.013728 -0.125975,0.038774 -0.242291,0.1030212 -0.258568,0.1428124 -0.322438,0.2234944 -0.352108,0.4445998 -0.01283,0.095648 -0.03048,0.19551 -0.03918,0.2218836 -0.02062,0.062471 -0.02839,0.1686156 -0.02375,0.3248033 0.002,0.06931 -0.0049,0.2156035 -0.01558,0.3251094 -0.01324,0.1364817 -0.0096,0.2766787 0.01128,0.4457577 0.02699,0.2179528 0.03718,0.2565562 0.0875,0.3318815 0.05963,0.089232 0.0805,0.09648 0.239106,0.08286 0.04578,-0.00384 0.09038,-0.00672 0.09918,-0.00648 0.02969,0.00132 0.08368,-0.095172 0.07949,-0.1422696 -0.0023,-0.025717 -0.01518,-0.1129452 -0.02852,-0.193835 -0.02095,-0.1265877 -0.01872,-0.155633 0.01624,-0.2088922 0.05808,-0.088469 0.153859,-0.1268363 0.338438,-0.1355345 0.08543,-0.00398 0.19592,-0.019819 0.245515,-0.035082 0.093,-0.028632 0.244804,-0.1534314 0.304702,-0.2505228 0.01812,-0.029351 0.07576,-0.092899 0.128127,-0.1412229 0.05238,-0.048325 0.103896,-0.115512 0.114516,-0.1492829 0.03085,-0.098146 0.0259,-0.2907341 -0.0095,-0.3653712 -0.05503,-0.1161696 -0.349357,-0.4075062 -0.566127,-0.5602798 l -0.165375,-0.1165224 -0.141778,0.014408 c -0.03047,0.00311 -0.05614,0.00641 -0.07993,0.011016 z m 0.07848,0.4929643 c 0.02736,-0.00553 0.05004,-0.00107 0.0744,0.011448 0.08834,0.045458 0.270201,0.2584128 0.284043,0.3325923 0.0102,0.054805 -0.03018,0.1864601 -0.0654,0.2131347 -0.05963,0.045148 -0.172325,0.06795 -0.298151,0.060304 -0.07042,-0.00427 -0.149268,-0.00835 -0.175179,-0.00904 -0.06576,-0.00175 -0.105756,-0.058399 -0.09188,-0.1301686 0.0062,-0.031614 0.0055,-0.089605 -0.0013,-0.1288775 -0.02033,-0.1165884 0.01802,-0.1968265 0.131163,-0.2744958 0.06427,-0.044118 0.107184,-0.067784 0.142364,-0.074926 z" />
      <path
         style="fill:#d7b7bf;fill-opacity:1;stroke-width:1.3477;stroke-miterlimit:4;stroke-dasharray:none"
         d="m 24.655732,9.1906837 c -0.02672,-0.0108 -0.0579,-0.037668 -0.06928,-0.05976 -0.02616,-0.050909 -0.0584,-0.3408455 -0.0533,-0.4793879 0.002,-0.058001 -0.0095,-0.1631303 -0.02592,-0.233613 -0.03791,-0.1629642 -0.01507,-0.3747699 0.05276,-0.4892073 0.02736,-0.046148 0.063,-0.1212412 0.07919,-0.166864 0.03397,-0.095658 0.201957,-0.3509029 0.230945,-0.3509029 0.01068,0 0.0573,-0.051454 0.103452,-0.114336 0.05789,-0.078851 0.11544,-0.1279681 0.185446,-0.1582619 0.05586,-0.024162 0.136558,-0.076849 0.179387,-0.1170864 0.05887,-0.05532 0.105012,-0.07646 0.189117,-0.086671 0.09755,-0.011844 0.134026,-0.00301 0.296406,0.071477 0.185574,0.085176 0.404432,0.248845 0.404432,0.3024451 0,0.01572 -0.03065,0.089916 -0.0681,0.1648792 -0.0981,0.1963105 -0.140008,0.2011333 -0.527837,0.060742 -0.08359,-0.030254 -0.102984,-0.030565 -0.157249,-0.00253 -0.0996,0.051502 -0.30263,0.3003593 -0.382574,0.4689137 -0.06188,0.1304805 -0.07382,0.1810028 -0.07368,0.3114834 2.5e-4,0.2646792 0.01068,0.4185342 0.03536,0.5248708 0.03077,0.1323624 0.0096,0.210194 -0.08206,0.301871 -0.06224,0.062237 -0.09007,0.0741 -0.171119,0.072934 -0.05323,-7.524e-4 -0.118656,-0.0102 -0.145385,-0.021 z"
         id="path5878" />
      <path
         style="fill:#d7b7bf;fill-opacity:1;stroke-width:1.3477;stroke-miterlimit:4;stroke-dasharray:none"
         d="M 5.2270268,9.1209122 C 5.1582044,9.1049206 5.0783541,9.0791455 5.0495805,9.0636104 5.0208062,9.0480755 4.96673,9.0214066 4.9294119,9.0043073 4.8450477,8.9656981 4.55523,8.6849087 4.5343435,8.6215483 4.5258619,8.5958316 4.4925126,8.5391612 4.4602261,8.4956176 4.3828523,8.3912609 4.3455733,8.2368755 4.3592051,8.0772456 4.3776537,7.8612224 4.4858137,7.3202968 4.5213235,7.1997095 4.6313783,6.8259714 4.6802964,6.6995237 4.7374287,6.6411085 c 0.047143,-0.048208 0.061925,-0.051764 0.165846,-0.03995 0.099934,0.011352 0.1223026,0.022957 0.1802877,0.093502 0.058876,0.071622 0.064794,0.090402 0.053498,0.1698351 -0.00698,0.049121 -0.029753,0.1242908 -0.05059,0.1670466 -0.020839,0.042757 -0.1070928,0.3664719 -0.118596,0.427041 -0.011508,0.060566 -0.033058,0.1433137 -0.047899,0.1838776 -0.014843,0.040562 -0.032612,0.1679726 -0.039493,0.2831298 -0.011352,0.1900724 -0.00827,0.2177906 0.033584,0.3005973 0.08392,0.1660683 0.1179444,0.2142909 0.220772,0.3128903 l 0.1018644,0.097674 0.1484649,-0.00166 c 0.1784116,-0.00194 0.4602201,-0.056136 0.5276361,-0.1013844 0.099594,-0.066852 0.2187742,-0.038435 0.3434728,0.081901 0.06889,0.066473 0.078986,0.08843 0.079934,0.1738183 8.912e-4,0.080065 -0.00942,0.1080072 -0.056988,0.1546157 -0.061976,0.060712 -0.1478609,0.084641 -0.5987686,0.1668998 -0.2710631,0.049442 -0.2823848,0.049704 -0.453428,0.00988 z"
         id="path5880"
         sodipodi:nodetypes="ccscsssssscccccssccssccccc" />
      <path
         id="path5882"
         style="fill:#d7b7bf;fill-opacity:1;stroke-width:1.1844;stroke-miterlimit:4;stroke-dasharray:none"
         d="m 21.801022,7.1102419 c -0.02058,7.59e-5 -0.04442,0.00196 -0.07568,0.00461 -0.07038,0.0059 -0.207172,0.030908 -0.30397,0.055481 -0.170943,0.043391 -0.179797,0.048242 -0.308327,0.1696576 -0.07278,0.06875 -0.147928,0.1579336 -0.167015,0.1981478 -0.01909,0.040215 -0.05514,0.101043 -0.08011,0.1352056 -0.02728,0.037329 -0.04541,0.086945 -0.04541,0.1243152 0,0.034204 -0.01093,0.084384 -0.02426,0.1115343 -0.01607,0.032659 -0.02292,0.10813 -0.02025,0.2230335 0.0065,0.2799493 0.07808,0.4376584 0.286155,0.6306458 0.121313,0.1125153 0.334701,0.2466067 0.392905,0.2469525 0.01797,8.96e-5 0.0779,0.021397 0.133205,0.047344 0.0553,0.025954 0.154005,0.057982 0.219355,0.071196 0.06535,0.013214 0.130498,0.020396 0.144774,0.015998 0.01428,-0.00443 0.06092,-0.01584 0.103645,-0.025416 0.07684,-0.017211 0.206735,-0.082628 0.229497,-0.115579 0.02393,-0.034623 0.03395,-0.160589 0.01554,-0.195005 -0.03276,-0.061236 -0.09405,-0.079277 -0.274091,-0.080694 -0.199621,-0.00163 -0.322327,-0.038089 -0.428821,-0.1276356 -0.08576,-0.072114 -0.0772,-0.094238 0.07829,-0.2022181 0.216234,-0.150163 0.247947,-0.1748845 0.350347,-0.2730522 0.151599,-0.1453337 0.202695,-0.2094389 0.270767,-0.3398512 0.07007,-0.1342323 0.07099,-0.1901825 0.0056,-0.3334953 -0.05368,-0.1178919 -0.111278,-0.170029 -0.293306,-0.2653345 -0.114818,-0.060117 -0.147145,-0.076033 -0.208894,-0.075794 z m 0.01082,0.4392456 c 0.02066,0.00111 0.03178,0.00769 0.04446,0.020313 0.0205,0.020484 0.02532,0.044373 0.01628,0.080404 -0.01626,0.064788 -0.263146,0.3135116 -0.332674,0.3351389 -0.02872,0.00893 -0.09498,0.033094 -0.147273,0.053697 -0.08584,0.033828 -0.09783,0.0347 -0.123386,0.00913 -0.06365,-0.063652 1.37e-4,-0.270448 0.12485,-0.4049723 0.04418,-0.047643 0.06932,-0.05941 0.127064,-0.05941 0.0396,0 0.124662,-0.00971 0.189009,-0.021567 0.05087,-0.00936 0.08101,-0.013815 0.101684,-0.01274 z" />
    </g>
    <g
       aria-label="IN"
       id="text4937"
       style="font-style:normal;font-weight:normal;font-size:2.11667px;line-height:1.25;font-family:sans-serif;letter-spacing:0.529167px;display:inline;fill:#6d4a58;fill-opacity:1;stroke:none;stroke-width:0.264583"
       transform="translate(-0.50644195,0.46302075)">
      <path
         d="m 7.3769262,106.15687 v -0.14182 H 7.1927759 v -1.27635 h 0.1841503 v -0.13547 H 6.6678418 v 0.13547 h 0.1820336 v 1.28058 H 6.6678418 v 0.13759 z"
         style="font-style:normal;font-variant:normal;font-weight:900;font-stretch:normal;font-size:2.11667px;font-family:'Bell Gothic Std';-inkscape-font-specification:'Bell Gothic Std Heavy';text-align:center;text-anchor:middle;fill:#6d4a58;fill-opacity:1;stroke-width:0.264583"
         id="path5055" />
      <path
         d="m 8.1657491,106.15687 h 0.3132671 v -0.72814 c 0,-0.0402 -0.00847,-0.23706 -0.010583,-0.28151 h 0.010583 c 0.080433,0.18838 0.08255,0.19473 0.1164169,0.25611 l 0.4127506,0.75354 h 0.2794004 v -1.55364 H 8.974317 v 0.57785 c 0,0.0593 0,0.072 0.00635,0.1778 l 0.00847,0.15664 H 8.978554 c -0.00635,-0.0106 -0.027517,-0.0677 -0.033867,-0.0804 -0.014817,-0.0318 -0.035983,-0.0741 -0.052917,-0.10583 L 8.4917163,104.60323 H 8.1657491 Z"
         style="font-style:normal;font-variant:normal;font-weight:900;font-stretch:normal;font-size:2.11667px;font-family:'Bell Gothic Std';-inkscape-font-specification:'Bell Gothic Std Heavy';text-align:center;text-anchor:middle;fill:#6d4a58;fill-opacity:1;stroke-width:0.264583"
         id="path5057" />
    </g>
    <g
       aria-label="OUT"
       id="text4941"
       style="font-style:normal;font-weight:normal;font-size:2.11667px;line-height:1.25;font-family:sans-serif;letter-spacing:0.529167px;display:inline;fill:#dad5d5;fill-opacity:1;stroke:none;stroke-width:0.264583"
       transform="translate(0.18708866,0.46302075)">
      <path
         d="m 20.321282,105.12817 c 0,-0.0614 0,-0.23919 0.188383,-0.23919 0.179917,0 0.179917,0.13124 0.179917,0.23919 v 0.53975 c 0,0.10795 0,0.2794 -0.18415,0.2794 -0.1524,0 -0.18415,-0.11642 -0.18415,-0.2794 z m -0.347134,0.4699 c 0,0.0677 0.0064,0.2032 0.04022,0.31326 0.07832,0.26247 0.328083,0.3175 0.480484,0.3175 0.09948,0 0.28575,-0.0148 0.414867,-0.15451 0.09737,-0.10584 0.13335,-0.24554 0.13335,-0.46355 V 105.234 c 0,-0.24977 -0.04868,-0.38735 -0.135467,-0.48048 -0.103717,-0.11219 -0.249767,-0.15029 -0.408517,-0.15029 -0.14605,0 -0.2921,0.0402 -0.389467,0.14817 -0.10795,0.11853 -0.135467,0.27093 -0.135467,0.42968 z"
         style="font-style:normal;font-variant:normal;font-weight:900;font-stretch:normal;font-size:2.11667px;font-family:'Bell Gothic Std';-inkscape-font-specification:'Bell Gothic Std Heavy';text-align:center;text-anchor:middle;fill:#dad5d5;fill-opacity:1;stroke-width:0.264583"
         id="path5060" />
      <path
         d="m 21.946818,105.63828 c 0,0.1397 0.0064,0.3175 0.156633,0.45932 0.09525,0.0889 0.262467,0.12912 0.425451,0.12912 0.141817,0 0.275167,-0.0318 0.383117,-0.11854 0.15875,-0.12911 0.160867,-0.35348 0.160867,-0.44661 v -1.02871 h -0.345017 v 1.02659 c 0,0.28363 -0.1524,0.28363 -0.218017,0.28363 -0.209551,0 -0.209551,-0.19261 -0.209551,-0.28575 v -1.02447 h -0.353483 z"
         style="font-style:normal;font-variant:normal;font-weight:900;font-stretch:normal;font-size:2.11667px;font-family:'Bell Gothic Std';-inkscape-font-specification:'Bell Gothic Std Heavy';text-align:center;text-anchor:middle;fill:#dad5d5;fill-opacity:1;stroke-width:0.264583"
         id="path5062" />
      <path
         d="m 23.882843,104.63286 v 0.28364 h 0.395817 v 1.27 h 0.3556 v -1.27 h 0.387351 v -0.28364 z"
         style="font-style:normal;font-variant:normal;font-weight:900;font-stretch:normal;font-size:2.11667px;font-family:'Bell Gothic Std';-inkscape-font-specification:'Bell Gothic Std Heavy';text-align:center;text-anchor:middle;fill:#dad5d5;fill-opacity:1;stroke-width:0.264583"
         id="path5064" />
    </g>
    <g
       aria-label="STOP"
       id="text4380"
       style="font-style:normal;font-weight:normal;font-size:2.82222px;line-height:1.25;font-family:sans-serif;letter-spacing:0.264583px;display:inline;fill:#6d4a58;fill-opacity:1;stroke:none;stroke-width:0.264583"
       transform="translate(0,-0.52916667)">
      <path
         d="M 4.6005401,66.216492 C 4.4735402,65.93427 4.2477626,65.776225 3.9316739,65.776225 c -0.3245553,0 -0.589844,0.220133 -0.589844,0.5334 0,0.143933 0.033867,0.237066 0.062089,0.287866 0.064911,0.115711 0.2144887,0.220133 0.3414886,0.276578 L 4.112296,67.04058 c 0.2173109,0.09878 0.2539998,0.220133 0.2539998,0.316088 0,0.225778 -0.1890887,0.333022 -0.3640664,0.333022 -0.2793998,0 -0.4176886,-0.206022 -0.4769552,-0.372533 l -0.2483553,0.155222 c 0.047978,0.09878 0.098778,0.2032 0.231422,0.313267 0.1439332,0.121355 0.3471331,0.163689 0.474133,0.163689 0.1100666,0 0.2793998,0 0.448733,-0.146756 0.1326443,-0.112889 0.2031998,-0.273755 0.2031998,-0.468488 0,-0.1524 -0.045156,-0.231422 -0.070556,-0.2794 -0.087489,-0.1524 -0.2398887,-0.237067 -0.3104442,-0.270933 L 3.8413629,66.597491 c -0.067733,-0.03104 -0.2257776,-0.110066 -0.2257776,-0.296333 0,-0.200377 0.1890887,-0.273755 0.3160886,-0.273755 0.2398887,0 0.3301998,0.141111 0.4261553,0.333022 z"
         style="font-style:normal;font-variant:normal;font-weight:bold;font-stretch:normal;font-size:2.82222px;font-family:'Bell Gothic Std';-inkscape-font-specification:'Bell Gothic Std Bold';text-align:center;text-anchor:middle;fill:#6d4a58;fill-opacity:1;stroke-width:0.264583"
         id="path4113" />
      <path
         d="m 5.1962488,65.818559 v 0.262466 h 0.6039551 v 1.809043 H 6.096537 v -1.809043 h 0.6011329 v -0.262466 z"
         style="font-style:normal;font-variant:normal;font-weight:bold;font-stretch:normal;font-size:2.82222px;font-family:'Bell Gothic Std';-inkscape-font-specification:'Bell Gothic Std Bold';text-align:center;text-anchor:middle;fill:#6d4a58;fill-opacity:1;stroke-width:0.264583"
         id="path4115" />
      <path
         d="m 8.3376,66.868424 c 0,0.524933 -0.1128888,0.826911 -0.4063996,0.826911 -0.3612442,0 -0.3979331,-0.553155 -0.3979331,-0.815622 0,-0.217311 0.022578,-0.400755 0.062089,-0.524933 0.059267,-0.194733 0.1693332,-0.318911 0.347133,-0.318911 0.3697109,0 0.3951108,0.5588 0.3951107,0.832555 z m -0.4007552,-1.08091 c -0.1523999,0 -0.358422,0.03104 -0.5305774,0.307622 -0.1185332,0.189089 -0.1693332,0.476955 -0.1693332,0.793044 0,0.553155 0.191911,1.063977 0.6999106,1.063977 0.5587996,0 0.6970884,-0.598311 0.6970884,-1.092199 0,-0.143934 -0.016933,-0.386644 -0.079022,-0.570089 -0.084667,-0.248355 -0.2681109,-0.502355 -0.6180664,-0.502355 z"
         style="font-style:normal;font-variant:normal;font-weight:bold;font-stretch:normal;font-size:2.82222px;font-family:'Bell Gothic Std';-inkscape-font-specification:'Bell Gothic Std Bold';text-align:center;text-anchor:middle;fill:#6d4a58;fill-opacity:1;stroke-width:0.264583"
         id="path4117" />
      <path
         d="m 9.8759304,66.061269 c 0.1439336,0 0.5616216,0 0.5616216,0.383822 0,0.335845 -0.2794,0.375356 -0.6265327,0.375356 -0.039511,0 -0.0762,0 -0.1128888,-0.0028 V 66.061269 Z M 9.4102641,67.890068 H 9.6981305 V 67.06598 h 0.2511776 c 0.1919109,0 0.4092219,-0.01129 0.5870219,-0.1524 0.08467,-0.06773 0.211666,-0.2032 0.211666,-0.462844 0,-0.208844 -0.08749,-0.372533 -0.253999,-0.488244 -0.180622,-0.129822 -0.412045,-0.143933 -0.6349999,-0.143933 h -0.448733 z"
         style="font-style:normal;font-variant:normal;font-weight:bold;font-stretch:normal;font-size:2.82222px;font-family:'Bell Gothic Std';-inkscape-font-specification:'Bell Gothic Std Bold';text-align:center;text-anchor:middle;fill:#6d4a58;fill-opacity:1;stroke-width:0.264583"
         id="path4119" />
    </g>
    <g
       aria-label="ERASE"
       id="text3794"
       style="font-style:normal;font-weight:normal;font-size:2.82222px;line-height:1.25;font-family:sans-serif;letter-spacing:0.264583px;display:inline;fill:#6d4a58;fill-opacity:1;stroke:none;stroke-width:0.264583">
      <path
         d="M 3.3744012,86.93441 H 4.7149557 V 86.671944 H 3.6763787 V 85.9805 H 4.4016893 V 85.718033 H 3.6707343 V 85.1169 H 4.6613336 V 84.862901 H 3.3744012 Z"
         style="font-style:normal;font-variant:normal;font-weight:bold;font-stretch:normal;font-size:2.82222px;font-family:'Bell Gothic Std';-inkscape-font-specification:'Bell Gothic Std Bold';text-align:center;text-anchor:middle;fill:#6d4a58;fill-opacity:1;stroke-width:0.264583"
         id="path4122" />
      <path
         d="M 5.524139,86.93441 H 5.8148277 V 86.014366 H 6.1337386 L 6.6248049,86.93441 H 6.9634713 L 6.421605,85.977677 c 0.1862665,-0.05927 0.4430886,-0.163688 0.4430886,-0.553155 0,-0.211666 -0.1241777,-0.561621 -0.7027328,-0.561621 H 5.524139 Z m 0.5729107,-1.828799 c 0.3104442,0 0.474133,0.107245 0.474133,0.349956 0,0.231422 -0.1777999,0.290688 -0.2906887,0.316088 -0.1072444,0.02258 -0.3104442,0.02258 -0.4684885,0.01976 v -0.6858 z"
         style="font-style:normal;font-variant:normal;font-weight:bold;font-stretch:normal;font-size:2.82222px;font-family:'Bell Gothic Std';-inkscape-font-specification:'Bell Gothic Std Bold';text-align:center;text-anchor:middle;fill:#6d4a58;fill-opacity:1;stroke-width:0.264583"
         id="path4124" />
      <path
         d="m 7.9363433,86.262722 0.307622,-1.052688 c 0.00282,-0.0056 0.00564,-0.01411 0.014111,-0.01411 0.00847,0 0.011289,0.0056 0.014111,0.01129 l 0.3273776,1.055511 z M 8.8225204,86.93441 H 9.124498 L 8.4245874,84.862901 H 8.1000321 L 7.4311659,86.93441 h 0.3019776 l 0.1298221,-0.4318 h 0.8184438 z"
         style="font-style:normal;font-variant:normal;font-weight:bold;font-stretch:normal;font-size:2.82222px;font-family:'Bell Gothic Std';-inkscape-font-specification:'Bell Gothic Std Bold';text-align:center;text-anchor:middle;fill:#6d4a58;fill-opacity:1;stroke-width:0.264583"
         id="path4126" />
      <path
         d="m 10.992014,85.260834 c -0.127,-0.282222 -0.352778,-0.440267 -0.668866,-0.440267 -0.3245557,0 -0.5898443,0.220133 -0.5898443,0.5334 0,0.143933 0.033867,0.237066 0.062089,0.287866 0.064911,0.115711 0.2144883,0.220133 0.3414883,0.276578 l 0.366889,0.166511 c 0.217311,0.09878 0.254,0.220133 0.254,0.316088 0,0.225778 -0.189089,0.333022 -0.364067,0.333022 -0.2794,0 -0.4176882,-0.206022 -0.4769548,-0.372533 l -0.2483554,0.155223 c 0.047978,0.09878 0.098778,0.203199 0.231422,0.313266 0.1439332,0.121355 0.3471332,0.163689 0.4741332,0.163689 0.110066,0 0.279399,0 0.448733,-0.146756 0.132644,-0.112889 0.203199,-0.273755 0.203199,-0.468488 0,-0.1524 -0.04516,-0.231422 -0.07056,-0.2794 -0.08749,-0.1524 -0.239889,-0.237067 -0.310444,-0.270933 l -0.412044,-0.186267 c -0.06773,-0.03104 -0.225778,-0.110066 -0.225778,-0.296333 0,-0.200377 0.189089,-0.273755 0.316089,-0.273755 0.239888,0 0.330199,0.141111 0.426155,0.333022 z"
         style="font-style:normal;font-variant:normal;font-weight:bold;font-stretch:normal;font-size:2.82222px;font-family:'Bell Gothic Std';-inkscape-font-specification:'Bell Gothic Std Bold';text-align:center;text-anchor:middle;fill:#6d4a58;fill-opacity:1;stroke-width:0.264583"
         id="path4128" />
      <path
         d="m 11.813501,86.93441 h 1.340554 V 86.671944 H 12.115478 V 85.9805 h 0.725311 V 85.718033 H 12.109834 V 85.1169 h 0.990599 v -0.253999 h -1.286932 z"
         style="font-style:normal;font-variant:normal;font-weight:bold;font-stretch:normal;font-size:2.82222px;font-family:'Bell Gothic Std';-inkscape-font-specification:'Bell Gothic Std Bold';text-align:center;text-anchor:middle;fill:#6d4a58;fill-opacity:1;stroke-width:0.264583"
         id="path4130" />
    </g>
    <g
       aria-label="TOGGLE"
       id="text3853"
       style="font-style:normal;font-weight:normal;font-size:2.82222px;line-height:1.25;font-family:sans-serif;letter-spacing:0.264583px;display:inline;fill:#6d4a58;fill-opacity:1;stroke:none;stroke-width:0.264583"
       transform="translate(0,-0.52916667)">
      <path
         d="m 3.2769191,17.447867 v 0.262467 h 0.6039551 v 1.809043 h 0.2963331 v -1.809043 h 0.6011328 v -0.262467 z"
         style="font-style:normal;font-variant:normal;font-weight:bold;font-stretch:normal;font-size:2.82222px;font-family:'Bell Gothic Std';-inkscape-font-specification:'Bell Gothic Std Bold';text-align:center;text-anchor:middle;fill:#6d4a58;fill-opacity:1;stroke-width:0.264583"
         id="path4100" />
      <path
         d="m 6.4182703,18.497733 c 0,0.524933 -0.1128888,0.826911 -0.4063997,0.826911 -0.3612442,0 -0.397933,-0.553156 -0.397933,-0.815622 0,-0.217311 0.022578,-0.400755 0.062089,-0.524933 0.059267,-0.194733 0.1693332,-0.318911 0.3471331,-0.318911 0.3697108,0 0.3951108,0.5588 0.3951106,0.832555 z m -0.4007552,-1.08091 c -0.1523999,0 -0.358422,0.03104 -0.5305774,0.307622 -0.1185333,0.189089 -0.1693332,0.476955 -0.1693332,0.793044 0,0.553155 0.1919109,1.063977 0.6999106,1.063977 0.5587995,0 0.6970883,-0.598311 0.6970883,-1.0922 0,-0.143933 -0.016933,-0.386644 -0.079022,-0.570088 -0.084667,-0.248355 -0.268111,-0.502355 -0.6180663,-0.502355 z"
         style="font-style:normal;font-variant:normal;font-weight:bold;font-stretch:normal;font-size:2.82222px;font-family:'Bell Gothic Std';-inkscape-font-specification:'Bell Gothic Std Bold';text-align:center;text-anchor:middle;fill:#6d4a58;fill-opacity:1;stroke-width:0.264583"
         id="path4102" />
      <path
         d="m 8.6593333,17.907889 c -0.056444,-0.259644 -0.2709331,-0.499533 -0.6237106,-0.499533 -0.1213555,0 -0.3781775,0.05645 -0.5446885,0.335844 -0.1298221,0.214489 -0.166511,0.522111 -0.166511,0.762 0,0.231422 0.045156,0.62371 0.2398888,0.860777 0.1749776,0.217311 0.3640663,0.217311 0.4487329,0.217311 0.2201332,0 0.358422,-0.121356 0.4148664,-0.169333 0.014111,-0.01129 0.033867,-0.03104 0.045155,-0.04233 0.011289,-0.0085 0.0254,-0.01411 0.036689,-0.01411 0.016933,0 0.036689,0.01976 0.062089,0.07338 l 0.064911,0.129822 H 8.7383555 V 18.565466 H 8.0638449 v 0.262467 h 0.4007553 c -0.00564,0.138289 -0.011289,0.248355 -0.1213555,0.375355 -0.031044,0.03387 -0.1298221,0.121356 -0.2850442,0.121356 -0.059267,0 -0.2285999,-0.01129 -0.333022,-0.225778 -0.084667,-0.174978 -0.1100666,-0.386644 -0.1100666,-0.6096 0,-0.0085 0,-0.287866 0.053622,-0.468488 0.098778,-0.338667 0.3104442,-0.366889 0.3838219,-0.366889 0.2342443,0 0.307622,0.217311 0.3386664,0.310444 z"
         style="font-style:normal;font-variant:normal;font-weight:bold;font-stretch:normal;font-size:2.82222px;font-family:'Bell Gothic Std';-inkscape-font-specification:'Bell Gothic Std Bold';text-align:center;text-anchor:middle;fill:#6d4a58;fill-opacity:1;stroke-width:0.264583"
         id="path4104" />
      <path
         d="m 10.809071,17.907889 c -0.05644,-0.259644 -0.270933,-0.499533 -0.62371,-0.499533 -0.121356,0 -0.3781777,0.05645 -0.5446887,0.335844 -0.1298221,0.214489 -0.166511,0.522111 -0.166511,0.762 0,0.231422 0.045155,0.62371 0.2398887,0.860777 0.1749777,0.217311 0.364066,0.217311 0.448733,0.217311 0.220133,0 0.358422,-0.121356 0.414866,-0.169333 0.01411,-0.01129 0.03387,-0.03104 0.04516,-0.04233 0.01129,-0.0085 0.0254,-0.01411 0.03669,-0.01411 0.01693,0 0.03669,0.01976 0.06209,0.07338 l 0.06491,0.129822 h 0.1016 v -0.996244 h -0.674511 v 0.262467 h 0.400755 c -0.0056,0.138289 -0.01129,0.248355 -0.121355,0.375355 -0.03105,0.03387 -0.129822,0.121356 -0.285044,0.121356 -0.05927,0 -0.2286003,-0.01129 -0.3330224,-0.225778 C 9.79025,18.923888 9.76485,18.712222 9.76485,18.489266 c 0,-0.0085 0,-0.287866 0.053622,-0.468488 0.098778,-0.338667 0.310444,-0.366889 0.383822,-0.366889 0.234244,0 0.307622,0.217311 0.338667,0.310444 z"
         style="font-style:normal;font-variant:normal;font-weight:bold;font-stretch:normal;font-size:2.82222px;font-family:'Bell Gothic Std';-inkscape-font-specification:'Bell Gothic Std Bold';text-align:center;text-anchor:middle;fill:#6d4a58;fill-opacity:1;stroke-width:0.264583"
         id="path4106" />
      <path
         d="M 11.781943,19.519377 H 13.02372 V 19.25691 h -0.956733 v -1.809043 h -0.285044 z"
         style="font-style:normal;font-variant:normal;font-weight:bold;font-stretch:normal;font-size:2.82222px;font-family:'Bell Gothic Std';-inkscape-font-specification:'Bell Gothic Std Bold';text-align:center;text-anchor:middle;fill:#6d4a58;fill-opacity:1;stroke-width:0.264583"
         id="path4108" />
      <path
         d="m 13.771828,19.519377 h 1.340555 V 19.25691 h -1.038577 v -0.691444 h 0.72531 V 18.303 h -0.730955 v -0.601133 h 0.9906 v -0.254 h -1.286933 z"
         style="font-style:normal;font-variant:normal;font-weight:bold;font-stretch:normal;font-size:2.82222px;font-family:'Bell Gothic Std';-inkscape-font-specification:'Bell Gothic Std Bold';text-align:center;text-anchor:middle;fill:#6d4a58;fill-opacity:1;stroke-width:0.264583"
         id="path4110" />
    </g>
    <g
       aria-label="AFTER RECORD"
       id="text4967"
       style="font-size:2.11667px;line-height:0;font-family:sans-serif;display:inline;fill:#6d4a58;fill-opacity:1;stroke-width:0.264583"
       transform="translate(0.06090423,4.572095)">
      <path
         d="m 19.949361,38.535421 0.230717,-0.789518 c 0.0021,-0.0042 0.0042,-0.01058 0.01058,-0.01058 0.0064,0 0.0085,0.0042 0.01058,0.0085 l 0.245534,0.791635 z m 0.664634,0.503767 h 0.226484 l -0.524934,-1.553635 h -0.243417 l -0.501651,1.553635 h 0.226483 l 0.09737,-0.32385 h 0.613835 z"
         style="font-style:normal;font-variant:normal;font-weight:bold;font-stretch:normal;font-size:2.11667px;line-height:1.5;font-family:'Bell Gothic Std';-inkscape-font-specification:'Bell Gothic Std Bold';text-align:center;text-anchor:middle;fill:#6d4a58;fill-opacity:1;stroke-width:0.264583"
         id="path4998" />
      <path
         d="m 21.136746,39.039188 h 0.222251 v -0.690034 h 0.529167 v -0.19685 h -0.529167 v -0.469901 h 0.734484 v -0.19685 h -0.956735 z"
         style="font-style:normal;font-variant:normal;font-weight:bold;font-stretch:normal;font-size:2.11667px;line-height:1.5;font-family:'Bell Gothic Std';-inkscape-font-specification:'Bell Gothic Std Bold';text-align:center;text-anchor:middle;fill:#6d4a58;fill-opacity:1;stroke-width:0.264583"
         id="path5000" />
      <path
         d="m 22.291026,37.485553 v 0.19685 h 0.452967 v 1.356785 h 0.222251 v -1.356785 h 0.45085 v -0.19685 z"
         style="font-style:normal;font-variant:normal;font-weight:bold;font-stretch:normal;font-size:2.11667px;line-height:1.5;font-family:'Bell Gothic Std';-inkscape-font-specification:'Bell Gothic Std Bold';text-align:center;text-anchor:middle;fill:#6d4a58;fill-opacity:1;stroke-width:0.264583"
         id="path5002" />
      <path
         d="m 23.75434,39.039188 h 1.005418 v -0.19685 h -0.778935 v -0.518584 h 0.543984 v -0.19685 H 23.97659 v -0.450851 h 0.742951 v -0.1905 H 23.75434 Z"
         style="font-style:normal;font-variant:normal;font-weight:bold;font-stretch:normal;font-size:2.11667px;line-height:1.5;font-family:'Bell Gothic Std';-inkscape-font-specification:'Bell Gothic Std Bold';text-align:center;text-anchor:middle;fill:#6d4a58;fill-opacity:1;stroke-width:0.264583"
         id="path5004" />
      <path
         d="m 25.168209,39.039188 h 0.218017 v -0.690034 h 0.239184 l 0.3683,0.690034 h 0.254001 L 25.84131,38.321637 c 0.1397,-0.04445 0.332317,-0.122767 0.332317,-0.414867 0,-0.15875 -0.09313,-0.421217 -0.527051,-0.421217 h -0.478367 z m 0.429684,-1.371602 c 0.232834,0 0.3556,0.08043 0.3556,0.262467 0,0.173567 -0.13335,0.218017 -0.218017,0.237067 -0.08043,0.01693 -0.232833,0.01693 -0.351367,0.01482 v -0.514351 z"
         style="font-style:normal;font-variant:normal;font-weight:bold;font-stretch:normal;font-size:2.11667px;line-height:1.5;font-family:'Bell Gothic Std';-inkscape-font-specification:'Bell Gothic Std Bold';text-align:center;text-anchor:middle;fill:#6d4a58;fill-opacity:1;stroke-width:0.264583"
         id="path5006" />
      <path
         d="m 19.045576,42.214193 h 0.218017 v -0.690034 h 0.239183 l 0.368301,0.690034 h 0.254 l -0.4064,-0.717551 c 0.1397,-0.04445 0.332317,-0.122767 0.332317,-0.414867 0,-0.15875 -0.09313,-0.421217 -0.527051,-0.421217 h -0.478367 z m 0.429684,-1.371602 c 0.232833,0 0.3556,0.08043 0.3556,0.262467 0,0.173567 -0.13335,0.218017 -0.218017,0.237067 -0.08043,0.01693 -0.232833,0.01693 -0.351367,0.01482 v -0.514351 z"
         style="font-style:normal;font-variant:normal;font-weight:bold;font-stretch:normal;font-size:2.11667px;line-height:1.5;font-family:'Bell Gothic Std';-inkscape-font-specification:'Bell Gothic Std Bold';text-align:center;text-anchor:middle;fill:#6d4a58;fill-opacity:1;stroke-width:0.264583"
         id="path5008" />
      <path
         d="m 20.459445,42.214193 h 1.005418 v -0.19685 h -0.778934 v -0.518584 h 0.543984 v -0.19685 h -0.548218 v -0.450851 h 0.742952 v -0.1905 h -0.965202 z"
         style="font-style:normal;font-variant:normal;font-weight:bold;font-stretch:normal;font-size:2.11667px;line-height:1.5;font-family:'Bell Gothic Std';-inkscape-font-specification:'Bell Gothic Std Bold';text-align:center;text-anchor:middle;fill:#6d4a58;fill-opacity:1;stroke-width:0.264583"
         id="path5010" />
      <path
         d="m 22.743266,41.073308 c -0.01058,-0.07408 -0.03175,-0.19685 -0.137584,-0.3048 -0.09525,-0.09737 -0.224367,-0.127001 -0.32385,-0.127001 -0.438151,0 -0.529168,0.452968 -0.529168,0.810685 0,0.747185 0.383118,0.812801 0.510118,0.812801 0.05927,0 0.211667,0 0.345017,-0.13335 0.09313,-0.09313 0.137583,-0.226484 0.14605,-0.34925 l -0.211667,-0.0381 c -0.0042,0.0508 -0.0127,0.1397 -0.05503,0.211666 -0.01905,0.02963 -0.08255,0.118534 -0.205317,0.118534 -0.256117,0 -0.317501,-0.332317 -0.317501,-0.673101 0,-0.01693 0.0063,-0.232834 0.0635,-0.372534 0.03387,-0.08255 0.09948,-0.2032 0.254001,-0.2032 0.169333,0 0.2413,0.135467 0.258233,0.28575 z"
         style="font-style:normal;font-variant:normal;font-weight:bold;font-stretch:normal;font-size:2.11667px;line-height:1.5;font-family:'Bell Gothic Std';-inkscape-font-specification:'Bell Gothic Std Bold';text-align:center;text-anchor:middle;fill:#6d4a58;fill-opacity:1;stroke-width:0.264583"
         id="path5012" />
      <path
         d="m 23.861562,41.447959 c 0,0.3937 -0.08467,0.620184 -0.304801,0.620184 -0.270933,0 -0.29845,-0.414867 -0.29845,-0.611718 0,-0.162983 0.01693,-0.300567 0.04657,-0.3937 0.04445,-0.14605 0.127,-0.239184 0.26035,-0.239184 0.277284,0 0.296334,0.419101 0.296334,0.624418 z m -0.300567,-0.810685 c -0.1143,0 -0.268817,0.02328 -0.397934,0.230717 -0.0889,0.141817 -0.127,0.357717 -0.127,0.594784 0,0.414868 0.143933,0.797985 0.524934,0.797985 0.4191,0 0.522817,-0.448734 0.522817,-0.819151 0,-0.10795 -0.0127,-0.289984 -0.05927,-0.427568 -0.0635,-0.186267 -0.201083,-0.376767 -0.46355,-0.376767 z"
         style="font-style:normal;font-variant:normal;font-weight:bold;font-stretch:normal;font-size:2.11667px;line-height:1.5;font-family:'Bell Gothic Std';-inkscape-font-specification:'Bell Gothic Std Bold';text-align:center;text-anchor:middle;fill:#6d4a58;fill-opacity:1;stroke-width:0.264583"
         id="path5014" />
      <path
         d="m 24.461274,42.214193 h 0.218017 v -0.690034 h 0.239184 l 0.3683,0.690034 h 0.254001 l -0.406401,-0.717551 c 0.1397,-0.04445 0.332317,-0.122767 0.332317,-0.414867 0,-0.15875 -0.09313,-0.421217 -0.52705,-0.421217 h -0.478368 z m 0.429684,-1.371602 c 0.232834,0 0.355601,0.08043 0.355601,0.262467 0,0.173567 -0.13335,0.218017 -0.218017,0.237067 -0.08043,0.01693 -0.232834,0.01693 -0.351367,0.01482 v -0.514351 z"
         style="font-style:normal;font-variant:normal;font-weight:bold;font-stretch:normal;font-size:2.11667px;line-height:1.5;font-family:'Bell Gothic Std';-inkscape-font-specification:'Bell Gothic Std Bold';text-align:center;text-anchor:middle;fill:#6d4a58;fill-opacity:1;stroke-width:0.264583"
         id="path5016" />
      <path
         d="m 26.160894,40.857408 c 0.192617,0 0.304801,0.03175 0.389467,0.13335 0.09948,0.12065 0.122767,0.302684 0.122767,0.444501 0,0.289983 -0.08467,0.582084 -0.455084,0.582084 h -0.160867 v -1.159935 z m 0.01905,1.356785 c 0.410634,0 0.541868,-0.175683 0.609601,-0.296334 0.09525,-0.167216 0.110067,-0.359833 0.110067,-0.459317 0,-0.499534 -0.207434,-0.797984 -0.721785,-0.797984 h -0.33655 v 1.553635 z"
         style="font-style:normal;font-variant:normal;font-weight:bold;font-stretch:normal;font-size:2.11667px;line-height:1.5;font-family:'Bell Gothic Std';-inkscape-font-specification:'Bell Gothic Std Bold';text-align:center;text-anchor:middle;fill:#6d4a58;fill-opacity:1;stroke-width:0.264583"
         id="path5018" />
    </g>
  </g>
  <g
     inkscape:label="Control mocks"
     inkscape:groupmode="layer"
     id="layer1"
     style="display:none;opacity:1;mix-blend-mode:normal">
    <g
       id="g2708"
       transform="translate(-85.317693,-96.968467)">
      <path
         inkscape:connector-curvature="0"
         id="path2702"
         d="m 92.788964,127.42922 c -2.235179,0 -4.05281,-1.81762 -4.05281,-4.05282 0,-2.23516 1.817631,-4.05281 4.05281,-4.05281 2.235176,0 4.05281,1.81765 4.05281,4.05281 0,2.2352 -1.817634,4.05282 -4.05281,4.05282"
         style="fill:#e6e6e6;fill-opacity:1;fill-rule:nonzero;stroke:#636663;stroke-width:0.25;stroke-miterlimit:4;stroke-dasharray:none;stroke-opacity:1" />
      <path
         inkscape:connector-curvature="0"
         id="path2704"
         d="m 92.788964,126.29511 c -1.609548,0 -2.918685,-1.30916 -2.918685,-2.91871 0,-1.60954 1.309137,-2.91867 2.918685,-2.91867 1.609549,0 2.918682,1.30913 2.918682,2.91867 0,1.60955 -1.309133,2.91871 -2.918682,2.91871"
         style="fill:#e6e6e6;fill-opacity:1;fill-rule:nonzero;stroke:#636663;stroke-width:0.25;stroke-miterlimit:4;stroke-dasharray:none;stroke-opacity:1" />
      <path
         inkscape:connector-curvature="0"
         id="path2706"
         d="m 94.588681,123.3764 c 0,0.99357 -0.806153,1.79974 -1.799717,1.79974 -0.993567,0 -1.79972,-0.80617 -1.79972,-1.79974 0,-0.99356 0.806153,-1.79969 1.79972,-1.79969 0.993564,0 1.799717,0.80613 1.799717,1.79969"
         style="fill:#000000;fill-opacity:1;fill-rule:nonzero;stroke:none;stroke-width:0.352778" />
    </g>
    <g
       id="g2690"
       transform="translate(-85.317693,-11.076425)">
      <path
         inkscape:connector-curvature="0"
         id="path2684"
         d="m 92.788964,127.42922 c -2.235179,0 -4.05281,-1.81762 -4.05281,-4.05282 0,-2.23516 1.817631,-4.05281 4.05281,-4.05281 2.235176,0 4.05281,1.81765 4.05281,4.05281 0,2.2352 -1.817634,4.05282 -4.05281,4.05282"
         style="fill:#e6e6e6;fill-opacity:1;fill-rule:nonzero;stroke:#636663;stroke-width:0.25;stroke-miterlimit:4;stroke-dasharray:none;stroke-opacity:1" />
      <path
         inkscape:connector-curvature="0"
         id="path2686"
         d="m 92.788964,126.29511 c -1.609548,0 -2.918685,-1.30916 -2.918685,-2.91871 0,-1.60954 1.309137,-2.91867 2.918685,-2.91867 1.609549,0 2.918682,1.30913 2.918682,2.91867 0,1.60955 -1.309133,2.91871 -2.918682,2.91871"
         style="fill:#e6e6e6;fill-opacity:1;fill-rule:nonzero;stroke:#636663;stroke-width:0.25;stroke-miterlimit:4;stroke-dasharray:none;stroke-opacity:1" />
      <path
         inkscape:connector-curvature="0"
         id="path2688"
         d="m 94.588681,123.3764 c 0,0.99357 -0.806153,1.79974 -1.799717,1.79974 -0.993567,0 -1.79972,-0.80617 -1.79972,-1.79974 0,-0.99356 0.806153,-1.79969 1.79972,-1.79969 0.993564,0 1.799717,0.80613 1.799717,1.79969"
         style="fill:#000000;fill-opacity:1;fill-rule:nonzero;stroke:none;stroke-width:0.352778" />
    </g>
    <g
       id="g2700"
       transform="translate(-70.140101,-11.076425)">
      <path
         inkscape:connector-curvature="0"
         id="path2694"
         d="m 92.788964,127.42922 c -2.235179,0 -4.05281,-1.81762 -4.05281,-4.05282 0,-2.23516 1.817631,-4.05281 4.05281,-4.05281 2.235176,0 4.05281,1.81765 4.05281,4.05281 0,2.2352 -1.817634,4.05282 -4.05281,4.05282"
         style="fill:#e6e6e6;fill-opacity:1;fill-rule:nonzero;stroke:#636663;stroke-width:0.25;stroke-miterlimit:4;stroke-dasharray:none;stroke-opacity:1" />
      <path
         inkscape:connector-curvature="0"
         id="path2696"
         d="m 92.788964,126.29511 c -1.609548,0 -2.918685,-1.30916 -2.918685,-2.91871 0,-1.60954 1.309137,-2.91867 2.918685,-2.91867 1.609549,0 2.918682,1.30913 2.918682,2.91867 0,1.60955 -1.309133,2.91871 -2.918682,2.91871"
         style="fill:#e6e6e6;fill-opacity:1;fill-rule:nonzero;stroke:#636663;stroke-width:0.25;stroke-miterlimit:4;stroke-dasharray:none;stroke-opacity:1" />
      <path
         inkscape:connector-curvature="0"
         id="path2698"
         d="m 94.588681,123.3764 c 0,0.99357 -0.806153,1.79974 -1.799717,1.79974 -0.993567,0 -1.79972,-0.80617 -1.79972,-1.79974 0,-0.99356 0.806153,-1.79969 1.79972,-1.79969 0.993564,0 1.799717,0.80613 1.799717,1.79969"
         style="fill:#000000;fill-opacity:1;fill-rule:nonzero;stroke:none;stroke-width:0.352778" />
    </g>
    <g
       id="g2601"
       style="display:inline;mix-blend-mode:normal;stroke-width:1.29362"
       transform="matrix(0.34233969,0,0,-0.34239009,-76.746899,476.38274)">
      <g
         transform="translate(301.93513,1189.951)"
         id="g2595"
         style="stroke-width:1.29362">
        <path
           inkscape:connector-curvature="0"
           id="path2593"
           style="fill:#212221;fill-opacity:1;fill-rule:nonzero;stroke:none;stroke-width:1.29362"
           d="m 0,0 c 0,-7.5 -6.083,-13.58 -13.584,-13.58 -7.5,0 -13.582,6.08 -13.582,13.58 0,7.503 6.082,13.582 13.582,13.582 C -6.083,13.582 0,7.503 0,0" />
      </g>
      <circle
         style="opacity:1;vector-effect:none;fill:#676967;fill-opacity:1;fill-rule:nonzero;stroke:none;stroke-width:1.29362;stroke-linecap:butt;stroke-linejoin:miter;stroke-miterlimit:4;stroke-dasharray:none;stroke-dashoffset:0;stroke-opacity:1"
         id="circle2597"
         cx="288.35214"
         cy="-1190.6586"
         r="11.277138"
         transform="scale(1,-1)" />
      <circle
         transform="scale(1,-1)"
         r="11.277138"
         cy="-1189.952"
         cx="288.35214"
         id="circle2599"
         style="opacity:1;vector-effect:none;fill:#2b2d2b;fill-opacity:1;fill-rule:nonzero;stroke:none;stroke-width:1.29362;stroke-linecap:butt;stroke-linejoin:miter;stroke-miterlimit:4;stroke-dasharray:none;stroke-dashoffset:0;stroke-opacity:1" />
    </g>
    <g
       id="g2611"
       style="display:inline;mix-blend-mode:normal;stroke-width:1.29362"
       transform="matrix(0.34233969,0,0,-0.34239009,-76.763441,495.91357)">
      <g
         transform="translate(301.93513,1189.951)"
         id="g2605"
         style="stroke-width:1.29362">
        <path
           inkscape:connector-curvature="0"
           id="path2603"
           style="fill:#212221;fill-opacity:1;fill-rule:nonzero;stroke:none;stroke-width:1.29362"
           d="m 0,0 c 0,-7.5 -6.083,-13.58 -13.584,-13.58 -7.5,0 -13.582,6.08 -13.582,13.58 0,7.503 6.082,13.582 13.582,13.582 C -6.083,13.582 0,7.503 0,0" />
      </g>
      <circle
         style="opacity:1;vector-effect:none;fill:#676967;fill-opacity:1;fill-rule:nonzero;stroke:none;stroke-width:1.29362;stroke-linecap:butt;stroke-linejoin:miter;stroke-miterlimit:4;stroke-dasharray:none;stroke-dashoffset:0;stroke-opacity:1"
         id="circle2607"
         cx="288.35214"
         cy="-1190.6586"
         r="11.277138"
         transform="scale(1,-1)" />
      <circle
         transform="scale(1,-1)"
         r="11.277138"
         cy="-1189.952"
         cx="288.35214"
         id="circle2609"
         style="opacity:1;vector-effect:none;fill:#2b2d2b;fill-opacity:1;fill-rule:nonzero;stroke:none;stroke-width:1.29362;stroke-linecap:butt;stroke-linejoin:miter;stroke-miterlimit:4;stroke-dasharray:none;stroke-dashoffset:0;stroke-opacity:1" />
    </g>
    <g
       id="g2650"
       transform="translate(-85.317693,-49.129761)"
       style="display:inline;mix-blend-mode:normal">
      <path
         inkscape:connector-curvature="0"
         id="path7255"
         d="m 92.788964,127.42922 c -2.235179,0 -4.05281,-1.81762 -4.05281,-4.05282 0,-2.23516 1.817631,-4.05281 4.05281,-4.05281 2.235176,0 4.05281,1.81765 4.05281,4.05281 0,2.2352 -1.817634,4.05282 -4.05281,4.05282"
         style="fill:#e6e6e6;fill-opacity:1;fill-rule:nonzero;stroke:#636663;stroke-width:0.25;stroke-miterlimit:4;stroke-dasharray:none;stroke-opacity:1" />
      <path
         inkscape:connector-curvature="0"
         id="path7261"
         d="m 92.788964,126.29511 c -1.609548,0 -2.918685,-1.30916 -2.918685,-2.91871 0,-1.60954 1.309137,-2.91867 2.918685,-2.91867 1.609549,0 2.918682,1.30913 2.918682,2.91867 0,1.60955 -1.309133,2.91871 -2.918682,2.91871"
         style="fill:#e6e6e6;fill-opacity:1;fill-rule:nonzero;stroke:#636663;stroke-width:0.25;stroke-miterlimit:4;stroke-dasharray:none;stroke-opacity:1" />
      <path
         inkscape:connector-curvature="0"
         id="path7265"
         d="m 94.588681,123.3764 c 0,0.99357 -0.806153,1.79974 -1.799717,1.79974 -0.993567,0 -1.79972,-0.80617 -1.79972,-1.79974 0,-0.99356 0.806153,-1.79969 1.79972,-1.79969 0.993564,0 1.799717,0.80613 1.799717,1.79969"
         style="fill:#000000;fill-opacity:1;fill-rule:nonzero;stroke:none;stroke-width:0.352778" />
    </g>
    <g
       id="g2682"
       transform="translate(-85.317693,-29.550611)"
       style="display:inline;mix-blend-mode:normal">
      <path
         inkscape:connector-curvature="0"
         id="path2676"
         d="m 92.788964,127.42922 c -2.235179,0 -4.05281,-1.81762 -4.05281,-4.05282 0,-2.23516 1.817631,-4.05281 4.05281,-4.05281 2.235176,0 4.05281,1.81765 4.05281,4.05281 0,2.2352 -1.817634,4.05282 -4.05281,4.05282"
         style="fill:#e6e6e6;fill-opacity:1;fill-rule:nonzero;stroke:#636663;stroke-width:0.25;stroke-miterlimit:4;stroke-dasharray:none;stroke-opacity:1" />
      <path
         inkscape:connector-curvature="0"
         id="path2678"
         d="m 92.788964,126.29511 c -1.609548,0 -2.918685,-1.30916 -2.918685,-2.91871 0,-1.60954 1.309137,-2.91867 2.918685,-2.91867 1.609549,0 2.918682,1.30913 2.918682,2.91867 0,1.60955 -1.309133,2.91871 -2.918682,2.91871"
         style="fill:#e6e6e6;fill-opacity:1;fill-rule:nonzero;stroke:#636663;stroke-width:0.25;stroke-miterlimit:4;stroke-dasharray:none;stroke-opacity:1" />
      <path
         inkscape:connector-curvature="0"
         id="path2680"
         d="m 94.588681,123.3764 c 0,0.99357 -0.806153,1.79974 -1.799717,1.79974 -0.993567,0 -1.79972,-0.80617 -1.79972,-1.79974 0,-0.99356 0.806153,-1.79969 1.79972,-1.79969 0.993564,0 1.799717,0.80613 1.799717,1.79969"
         style="fill:#000000;fill-opacity:1;fill-rule:nonzero;stroke:none;stroke-width:0.352778" />
    </g>
    <g
       id="g3843"
       style="display:inline;mix-blend-mode:normal;stroke-width:1.29362"
       transform="matrix(0.34233969,0,0,-0.34239009,-76.747013,433.83571)">
      <g
         transform="translate(301.93513,1189.951)"
         id="g3837"
         style="stroke-width:1.29362">
        <path
           inkscape:connector-curvature="0"
           id="path3835"
           style="fill:#212221;fill-opacity:1;fill-rule:nonzero;stroke:none;stroke-width:1.29362"
           d="m 0,0 c 0,-7.5 -6.083,-13.58 -13.584,-13.58 -7.5,0 -13.582,6.08 -13.582,13.58 0,7.503 6.082,13.582 13.582,13.582 C -6.083,13.582 0,7.503 0,0" />
      </g>
      <circle
         style="opacity:1;vector-effect:none;fill:#676967;fill-opacity:1;fill-rule:nonzero;stroke:none;stroke-width:1.29362;stroke-linecap:butt;stroke-linejoin:miter;stroke-miterlimit:4;stroke-dasharray:none;stroke-dashoffset:0;stroke-opacity:1"
         id="circle3839"
         cx="288.35214"
         cy="-1190.6586"
         r="11.277138"
         transform="scale(1,-1)" />
      <circle
         transform="scale(1,-1)"
         r="11.277138"
         cy="-1189.952"
         cx="288.35214"
         id="circle3841"
         style="opacity:1;vector-effect:none;fill:#2b2d2b;fill-opacity:1;fill-rule:nonzero;stroke:none;stroke-width:1.29362;stroke-linecap:butt;stroke-linejoin:miter;stroke-miterlimit:4;stroke-dasharray:none;stroke-dashoffset:0;stroke-opacity:1" />
    </g>
    <g
       transform="matrix(0.34127197,0,0,0.34127197,-246.65217,-342.67175)"
       id="g3893"
       style="display:inline;mix-blend-mode:normal;stroke-width:1.28171">
      <path
         d="m 783.5078,1167.3652 c 0,0.779 0.639,1.418 1.418,1.418 h 10.622 c 0.779,0 1.418,-0.639 1.418,-1.418 v -17.007 c 0,-0.779 -0.639,-1.417 -1.418,-1.417 h -10.622 c -0.779,0 -1.418,0.638 -1.418,1.417 z"
         style="fill:#000000;fill-opacity:1;fill-rule:nonzero;stroke:none;stroke-width:1.28171"
         id="path3873"
         inkscape:connector-curvature="0" />
      <g
         style="fill:#282828;fill-opacity:1;stroke-width:1.28171"
         id="g3879">
        <g
           style="fill:#282828;fill-opacity:1;stroke-width:1.28171"
           id="g3877">
          <path
             inkscape:connector-curvature="0"
             id="path3875"
             style="fill:#282828;fill-opacity:1;stroke:none;stroke-width:1.28171"
             d="m 785.616,1167.502 c -0.468,0 -0.85,-0.382 -0.85,-0.85 v 0 -15.724 c 0,-0.468 0.382,-0.851 0.85,-0.851 v 0 h 9.241 c 0.466,0 0.849,0.383 0.849,0.851 v 0 15.724 c 0,0.468 -0.383,0.85 -0.849,0.85 v 0 z" />
        </g>
      </g>
      <path
         inkscape:connector-curvature="0"
         id="path3881"
         style="fill:#444444;fill-opacity:1;fill-rule:nonzero;stroke:none;stroke-width:1.28171"
         d="m 784.767,1158.581 h 10.94 v -8.504 h -10.94 z" />
      <path
         inkscape:connector-curvature="0"
         id="path3883"
         style="fill:#999999;fill-opacity:1;fill-rule:nonzero;stroke:none;stroke-width:1.28171"
         d="m 784.767,1154.797 h 10.94 v -0.936 h -10.94 z" />
      <path
         inkscape:connector-curvature="0"
         id="path3885"
         style="fill:#999999;fill-opacity:1;fill-rule:nonzero;stroke:none;stroke-width:1.28171"
         d="m 784.767,1151.013 h 10.94 v -0.936 h -10.94 z" />
      <path
         inkscape:connector-curvature="0"
         id="path3887"
         style="fill:#999999;fill-opacity:1;fill-rule:nonzero;stroke:none;stroke-width:1.28171"
         d="m 784.767,1152.904 h 10.94 v -0.936 h -10.94 z" />
      <path
         inkscape:connector-curvature="0"
         id="path3889"
         style="fill:#999999;fill-opacity:1;fill-rule:nonzero;stroke:none;stroke-width:1.28171"
         d="m 784.767,1156.689 h 10.94 v -0.936 h -10.94 z" />
      <path
         inkscape:connector-curvature="0"
         id="path3891"
         style="fill:#999999;fill-opacity:1;fill-rule:nonzero;stroke:none;stroke-width:1.28171"
         d="m 784.767,1158.581 h 10.94 v -0.936 h -10.94 z" />
    </g>
    <path
       id="path3895"
       style="display:inline;mix-blend-mode:normal;fill:#303030;fill-opacity:1;stroke-width:1.6"
       inkscape:label="STOP"
       d="m 14.537594,43.728491 a 1.5999997,1.6000002 0 0 1 -1.600001,1.6 1.5999997,1.6000002 0 0 1 -1.600001,-1.6 1.5999997,1.6000002 0 0 1 1.600001,-1.600001 1.5999997,1.6000002 0 0 1 1.600001,1.600001 z" />
    <path
       id="path3897"
       style="display:inline;mix-blend-mode:normal;fill:#303030;fill-opacity:1;stroke-width:1.6"
       inkscape:label="STOP"
       d="m 6.6971296,43.728491 a 1.5999997,1.6000002 0 0 1 -1.600001,1.6 1.5999997,1.6000002 0 0 1 -1.600001,-1.6 1.5999997,1.6000002 0 0 1 1.600001,-1.600001 1.5999997,1.6000002 0 0 1 1.600001,1.600001 z" />
    <path
       id="path3871-1"
       style="display:inline;mix-blend-mode:normal;fill:#303030;fill-opacity:1;stroke-width:1.6"
       inkscape:label="STOP"
       d="m 14.537593,50.607659 a 1.5999997,1.6000002 0 0 1 -1.600001,1.6 1.5999997,1.6000002 0 0 1 -1.600001,-1.6 1.5999997,1.6000002 0 0 1 1.600001,-1.600001 1.5999997,1.6000002 0 0 1 1.600001,1.600001 z" />
    <path
       id="path3547-8"
       style="display:inline;mix-blend-mode:normal;fill:#303030;fill-opacity:1;stroke-width:1.6"
       inkscape:label="STOP"
       d="m 6.7471288,50.607659 a 1.5999997,1.6000002 0 0 1 -1.600001,1.6 1.5999997,1.6000002 0 0 1 -1.6000007,-1.6 1.5999997,1.6000002 0 0 1 1.6000007,-1.600001 1.5999997,1.6000002 0 0 1 1.600001,1.600001 z" />
  </g>
  <g
     inkscape:groupmode="layer"
     id="layer11"
     inkscape:label="Screws"
     style="display:none">
    <g
       transform="matrix(0.32902218,0,0,-0.32902194,-168.63328,212.14136)"
       id="g18792"
       style="display:inline;opacity:1;mix-blend-mode:normal;stroke-width:1.14853">
      <path
         d="m 535.6665,631.5 c -3.511,0 -6.367,2.855 -6.367,6.366 0,3.511 2.856,6.367 6.367,6.367 3.511,0 6.367,-2.856 6.367,-6.367 0,-3.511 -2.856,-6.366 -6.367,-6.366"
         style="fill:#bcbcbc;fill-opacity:1;fill-rule:nonzero;stroke:#acacac;stroke-width:1.06117;stroke-miterlimit:4;stroke-dasharray:none;stroke-opacity:1"
         id="path6833"
         inkscape:connector-curvature="0" />
      <path
         inkscape:connector-curvature="0"
         id="path6843"
         style="fill:#727272;fill-opacity:1;fill-rule:nonzero;stroke:none;stroke-width:1.14853"
         d="m 536.448,633.741 h -1.562 v 8.25 h 1.562 z" />
      <path
         inkscape:connector-curvature="0"
         id="path6845"
         style="fill:#727272;fill-opacity:1;fill-rule:nonzero;stroke:none;stroke-width:1.14853"
         d="m 539.792,637.085 h -8.25 v 1.562 h 8.25 z" />
    </g>
    <g
       transform="matrix(0.32902218,0,0,-0.32902194,-153.28744,212.14136)"
       id="g3243"
       style="display:inline;opacity:1;mix-blend-mode:normal;stroke-width:1.14853">
      <path
         d="m 535.6665,631.5 c -3.511,0 -6.367,2.855 -6.367,6.366 0,3.511 2.856,6.367 6.367,6.367 3.511,0 6.367,-2.856 6.367,-6.367 0,-3.511 -2.856,-6.366 -6.367,-6.366"
         style="fill:#bcbcbc;fill-opacity:1;fill-rule:nonzero;stroke:#acacac;stroke-width:1.06117;stroke-miterlimit:4;stroke-dasharray:none;stroke-opacity:1"
         id="path3237"
         inkscape:connector-curvature="0" />
      <path
         inkscape:connector-curvature="0"
         id="path3239"
         style="fill:#727272;fill-opacity:1;fill-rule:nonzero;stroke:none;stroke-width:1.14853"
         d="m 536.448,633.741 h -1.562 v 8.25 h 1.562 z" />
      <path
         inkscape:connector-curvature="0"
         id="path3241"
         style="fill:#727272;fill-opacity:1;fill-rule:nonzero;stroke:none;stroke-width:1.14853"
         d="m 539.792,637.085 h -8.25 v 1.562 h 8.25 z" />
    </g>
    <g
       transform="matrix(0.32902218,0,0,-0.32902194,-168.63328,336.10277)"
       id="g3251"
       style="display:inline;opacity:1;mix-blend-mode:normal;stroke-width:1.14853">
      <path
         d="m 535.6665,631.5 c -3.511,0 -6.367,2.855 -6.367,6.366 0,3.511 2.856,6.367 6.367,6.367 3.511,0 6.367,-2.856 6.367,-6.367 0,-3.511 -2.856,-6.366 -6.367,-6.366"
         style="fill:#bcbcbc;fill-opacity:1;fill-rule:nonzero;stroke:#acacac;stroke-width:1.06117;stroke-miterlimit:4;stroke-dasharray:none;stroke-opacity:1"
         id="path3245"
         inkscape:connector-curvature="0" />
      <path
         inkscape:connector-curvature="0"
         id="path3247"
         style="fill:#727272;fill-opacity:1;fill-rule:nonzero;stroke:none;stroke-width:1.14853"
         d="m 536.448,633.741 h -1.562 v 8.25 h 1.562 z" />
      <path
         inkscape:connector-curvature="0"
         id="path3249"
         style="fill:#727272;fill-opacity:1;fill-rule:nonzero;stroke:none;stroke-width:1.14853"
         d="m 539.792,637.085 h -8.25 v 1.562 h 8.25 z" />
    </g>
    <g
       transform="matrix(0.32902218,0,0,-0.32902194,-153.28744,336.10277)"
       id="g3259"
       style="display:inline;opacity:1;mix-blend-mode:normal;stroke-width:1.14853">
      <path
         d="m 535.6665,631.5 c -3.511,0 -6.367,2.855 -6.367,6.366 0,3.511 2.856,6.367 6.367,6.367 3.511,0 6.367,-2.856 6.367,-6.367 0,-3.511 -2.856,-6.366 -6.367,-6.366"
         style="fill:#bcbcbc;fill-opacity:1;fill-rule:nonzero;stroke:#acacac;stroke-width:1.06117;stroke-miterlimit:4;stroke-dasharray:none;stroke-opacity:1"
         id="path3253"
         inkscape:connector-curvature="0" />
      <path
         inkscape:connector-curvature="0"
         id="path3255"
         style="fill:#727272;fill-opacity:1;fill-rule:nonzero;stroke:none;stroke-width:1.14853"
         d="m 536.448,633.741 h -1.562 v 8.25 h 1.562 z" />
      <path
         inkscape:connector-curvature="0"
         id="path3257"
         style="fill:#727272;fill-opacity:1;fill-rule:nonzero;stroke:none;stroke-width:1.14853"
         d="m 539.792,637.085 h -8.25 v 1.562 h 8.25 z" />
    </g>
  </g>
  <g
     inkscape:label="components"
     inkscape:groupmode="layer"
     id="components"
     style="display:none;opacity:0.5">
    <circle
       id="circle31"
       style="fill:#ff0000;stroke-width:4.65"
       cx="21.967365"
       cy="26.407938"
       inkscape:label="MODE_TOGGLE"
       r="4.6500001" />
    <circle
       style="fill:#00ff00;stroke-width:4.10001"
       cx="7.471271"
       cy="112.29998"
       inkscape:label="MAIN"
       id="circle43"
       r="4.0999999" />
    <circle
       style="fill:#0000ff;stroke-width:4.10001"
       cx="22.648863"
       cy="112.29998"
       inkscape:label="MAIN"
       id="circle45"
       r="4.0999999" />
    <circle
       style="fill:#ff00ff;stroke-width:1.59999"
       cx="5.0971284"
       cy="43.728489"
       inkscape:label="RECORD_STATUS"
       id="circle253"
       r="1.6" />
    <circle
       style="fill:#00ff00;stroke-width:4.10001"
       cx="7.471271"
       cy="74.246643"
       inkscape:label="STOP_CV"
       id="circle359"
       r="4.0999999" />
    <circle
       style="fill:#00ff00;stroke-width:4.10001"
       cx="7.471271"
       cy="93.82579"
       inkscape:label="ERASE_CV"
       id="circle361"
       r="4.0999999" />
    <circle
       style="fill:#ff00ff;stroke-width:1.59999"
       cx="12.937593"
       cy="50.607658"
       inkscape:label="OVERDUB_STATUS"
       id="circle423"
       r="1.6" />
    <circle
       style="fill:#ff00ff;stroke-width:1.59999"
       cx="12.937593"
       cy="43.728489"
       inkscape:label="PLAY_STATUS"
       id="circle1362"
       r="1.6" />
    <circle
       id="circle1400"
       style="fill:#ff0000;stroke-width:4.65"
       cx="21.96748"
       cy="68.954971"
       inkscape:label="STOP_BUTTON"
       r="4.6500001" />
    <circle
       id="circle1402"
       style="fill:#ff0000;stroke-width:4.65"
       cx="21.950937"
       cy="88.485794"
       inkscape:label="ERASE_BUTTON"
       r="4.6500001" />
    <circle
       style="fill:#00ff00;stroke-width:4.10001"
       cx="7.471271"
       cy="26.407938"
       inkscape:label="MODE_CV"
       id="circle1406"
       r="4.0999999" />
    <circle
       style="fill:#ff00ff;stroke-width:1.59999"
       cx="5.1471281"
       cy="50.607658"
       inkscape:label="STOP_STATUS"
       id="circle1613"
       r="1.6" />
    <rect
       style="display:inline;opacity:1;mix-blend-mode:normal;fill:#ff0000;fill-opacity:1;stroke-width:0.2531"
       id="rect1615"
       width="4.5"
       height="7.0999999"
       x="20.73708"
       y="49.429665"
       inkscape:label="AFTER_RECORD" />
  </g>
</svg>
