<?xml version="1.0" encoding="UTF-8" standalone="no"?>
<svg
   width="162.56mm"
   height="128.5mm"
   viewBox="0 0 162.55999 128.5"
   version="1.1"
   id="svg8"
   inkscape:version="1.2.1 (9c6d41e, 2022-07-14)"
   sodipodi:docname="Lopper.svg"
   inkscape:export-filename="/Users/grough/Desktop/VCV Junk/Lilac Progress 20201015-2.png"
   inkscape:export-xdpi="300"
   inkscape:export-ydpi="300"
   xmlns:inkscape="http://www.inkscape.org/namespaces/inkscape"
   xmlns:sodipodi="http://sodipodi.sourceforge.net/DTD/sodipodi-0.dtd"
   xmlns="http://www.w3.org/2000/svg"
   xmlns:svg="http://www.w3.org/2000/svg"
   xmlns:rdf="http://www.w3.org/1999/02/22-rdf-syntax-ns#"
   xmlns:cc="http://creativecommons.org/ns#"
   xmlns:dc="http://purl.org/dc/elements/1.1/">
  <defs
     id="defs2">
    <inkscape:perspective
       sodipodi:type="inkscape:persp3d"
       inkscape:vp_x="0 : 64.25 : 1"
       inkscape:vp_y="0 : 1000 : 0"
       inkscape:vp_z="30.479993 : 64.25 : 1"
       inkscape:persp3d-origin="15.239995 : 42.833333 : 1"
       id="perspective3344" />
  </defs>
  <sodipodi:namedview
     id="base"
     pagecolor="#303030"
     bordercolor="#666666"
     borderopacity="1.0"
     inkscape:pageopacity="0"
     inkscape:pageshadow="2"
     inkscape:zoom="2.5982116"
     inkscape:cx="308.8663"
     inkscape:cy="277.30613"
     inkscape:document-units="mm"
     inkscape:current-layer="layer1"
     inkscape:document-rotation="0"
     showgrid="false"
     inkscape:window-width="1728"
     inkscape:window-height="1051"
     inkscape:window-x="0"
     inkscape:window-y="38"
     inkscape:window-maximized="0"
     inkscape:snap-page="true"
     inkscape:snap-grids="true"
     inkscape:snap-to-guides="true"
     inkscape:snap-others="true"
     inkscape:object-nodes="false"
     inkscape:snap-nodes="true"
     inkscape:snap-global="true"
     showguides="false"
     inkscape:guide-bbox="true"
     inkscape:snap-bbox="true"
     inkscape:showpageshadow="false"
     showborder="true"
     inkscape:lockguides="false"
     inkscape:pagecheckerboard="0"
     inkscape:deskcolor="#303030">
    <sodipodi:guide
       position="23.599999,30.137244"
       orientation="-1,0"
       id="guide1308"
       inkscape:locked="false"
       inkscape:label=""
       inkscape:color="rgb(0,0,255)" />
    <sodipodi:guide
       position="1.7999999,59.075037"
       orientation="-1,0"
       id="guide1310"
       inkscape:locked="false"
       inkscape:label=""
       inkscape:color="rgb(0,0,255)" />
    <inkscape:grid
       type="xygrid"
       id="grid3645"
       units="mm"
       spacingx="5.08"
       spacingy="32.625"
       empcolor="#3f3fff"
       empopacity="0.1254902"
       originx="0"
       originy="0" />
    <sodipodi:guide
       position="33.699138,10.899999"
       orientation="0,1"
       id="guide4744"
       inkscape:label=""
       inkscape:locked="false"
       inkscape:color="rgb(0,0,255)" />
    <sodipodi:guide
       position="-3.2586516,27.278131"
       orientation="0,-1"
       id="guide6243"
       inkscape:locked="false" />
  </sodipodi:namedview>
  <metadata
     id="metadata5">
    <rdf:RDF>
      <cc:Work
         rdf:about="">
        <dc:format>image/svg+xml</dc:format>
        <dc:type
           rdf:resource="http://purl.org/dc/dcmitype/StillImage" />
      </cc:Work>
    </rdf:RDF>
  </metadata>
  <g
     inkscape:groupmode="layer"
     id="layer6"
     inkscape:label="Panel"
     style="display:inline"
     sodipodi:insensitive="true">
    <rect
       style="display:inline;opacity:1;mix-blend-mode:normal;fill:#dad5d5;fill-opacity:1;fill-rule:evenodd;stroke-width:0.264584"
       id="rect28"
       width="162.56"
       height="128.5"
       x="0"
       y="0" />
  </g>
  <g
     inkscape:groupmode="layer"
     id="layer2"
     inkscape:label="Panel graphics"
     style="display:inline">
    <g
       aria-label="Rel"
       id="text785"
       style="font-size:10.5833px;line-height:1.25;letter-spacing:0px;stroke-width:0.264583">
      <path
         d="M 89.457996,58.670288 H 89.05957 l -0.772046,-0.917773 h -0.432531 v 0.917773 h -0.306958 v -2.308386 h 0.646472 q 0.209289,0 0.348816,0.0279 0.139526,0.02636 0.251147,0.09612 0.125574,0.07906 0.195337,0.199988 0.07131,0.119373 0.07131,0.303858 0,0.249597 -0.125574,0.418579 -0.125574,0.167431 -0.345715,0.252697 z M 88.74021,57.011475 q 0,-0.09922 -0.03566,-0.175183 -0.03411,-0.07751 -0.114721,-0.130225 -0.06666,-0.04496 -0.15813,-0.06201 -0.09147,-0.0186 -0.215491,-0.0186 h -0.361218 v 0.871264 h 0.310058 q 0.145728,0 0.254248,-0.0248 0.108521,-0.02636 0.184485,-0.09612 0.06976,-0.06511 0.102319,-0.148828 0.03411,-0.08527 0.03411,-0.21549 z"
         style="font-size:3.175px;-inkscape-font-specification:'sans-serif, Normal'"
         id="path794" />
      <path
         d="m 91.104407,57.83468 h -1.275892 q 0,0.15968 0.04806,0.279053 0.04806,0.117822 0.131774,0.193787 0.08062,0.07441 0.190686,0.111621 0.111622,0.03721 0.244947,0.03721 0.176733,0 0.355017,-0.06976 0.179834,-0.07131 0.255798,-0.139526 h 0.0155 v 0.31781 q -0.147278,0.06201 -0.300757,0.10387 -0.153479,0.04186 -0.322461,0.04186 -0.430981,0 -0.672827,-0.232544 -0.241845,-0.234094 -0.241845,-0.663526 0,-0.42478 0.230993,-0.674377 0.232544,-0.249597 0.610816,-0.249597 0.350366,0 0.539502,0.204638 0.190686,0.204639 0.190686,0.58136 z m -0.283704,-0.223242 q -0.0015,-0.229443 -0.116272,-0.355017 -0.113171,-0.125574 -0.345715,-0.125574 -0.234095,0 -0.373621,0.137976 -0.137976,0.137976 -0.15658,0.342615 z"
         style="font-size:3.175px;-inkscape-font-specification:'sans-serif, Normal'"
         id="path796" />
      <path
         d="M 91.840796,58.670288 H 91.54934 v -2.412256 h 0.291456 z"
         style="font-size:3.175px;-inkscape-font-specification:'sans-serif, Normal'"
         id="path798" />
    </g>
    <g
       aria-label="Toggle"
       id="text971"
       style="font-size:3.175px;stroke-width:0.2">
      <path
         d="m 36.174133,58.075011 h -0.824756 v 2.035535 H 35.042419 V 58.075011 H 34.217663 V 57.80216 h 1.95647 z"
         id="path1011" />
      <path
         d="m 37.595751,59.245483 q 0,0.42323 -0.217041,0.668176 -0.217041,0.244946 -0.58136,0.244946 -0.367419,0 -0.58446,-0.244946 -0.215491,-0.244946 -0.215491,-0.668176 0,-0.42323 0.215491,-0.668177 0.217041,-0.246496 0.58446,-0.246496 0.364319,0 0.58136,0.246496 0.217041,0.244947 0.217041,0.668177 z m -0.300757,0 q 0,-0.336414 -0.131775,-0.499195 -0.131775,-0.164331 -0.365869,-0.164331 -0.237195,0 -0.368969,0.164331 -0.130225,0.162781 -0.130225,0.499195 0,0.325561 0.131775,0.494543 0.131775,0.167432 0.367419,0.167432 0.232544,0 0.364319,-0.165882 0.133325,-0.167431 0.133325,-0.496093 z"
         id="path1013" />
      <path
         d="m 39.451452,59.913659 q 0,0.440283 -0.199988,0.646472 -0.199988,0.206189 -0.615466,0.206189 -0.137976,0 -0.269751,-0.02015 -0.130225,-0.0186 -0.257349,-0.05426 V 60.39425 h 0.0155 q 0.07131,0.0279 0.226343,0.06821 0.155029,0.04186 0.310058,0.04186 0.148829,0 0.246497,-0.03566 0.09767,-0.03566 0.151929,-0.09922 0.05426,-0.06046 0.07751,-0.145728 0.02325,-0.08527 0.02325,-0.190686 v -0.158129 q -0.131775,0.10542 -0.252698,0.158129 -0.119373,0.05116 -0.305408,0.05116 -0.310058,0 -0.492993,-0.223242 -0.181384,-0.224793 -0.181384,-0.63252 0,-0.223242 0.06201,-0.384472 0.06356,-0.162781 0.172082,-0.280603 0.100769,-0.110071 0.244946,-0.170532 0.144178,-0.06201 0.286805,-0.06201 0.150378,0 0.251147,0.03101 0.102319,0.02946 0.215491,0.09147 l 0.0186,-0.07441 h 0.272852 z m -0.291455,-0.279053 v -0.944128 q -0.116272,-0.05271 -0.217041,-0.07441 -0.09922,-0.02325 -0.198438,-0.02325 -0.240295,0 -0.378271,0.161231 -0.137976,0.16123 -0.137976,0.468188 0,0.291455 0.102319,0.441834 0.102319,0.150378 0.339514,0.150378 0.127124,0 0.254248,-0.04806 0.128675,-0.04961 0.235645,-0.131775 z"
         id="path1015" />
      <path
         d="m 41.429626,59.913659 q 0,0.440283 -0.199988,0.646472 -0.199988,0.206189 -0.615467,0.206189 -0.137976,0 -0.26975,-0.02015 -0.130225,-0.0186 -0.257349,-0.05426 V 60.39425 h 0.0155 q 0.07131,0.0279 0.226343,0.06821 0.155029,0.04186 0.310058,0.04186 0.148828,0 0.246497,-0.03566 0.09767,-0.03566 0.151928,-0.09922 0.05426,-0.06046 0.07751,-0.145728 0.02325,-0.08527 0.02325,-0.190686 v -0.158129 q -0.131775,0.10542 -0.252698,0.158129 -0.119373,0.05116 -0.305408,0.05116 -0.310059,0 -0.492993,-0.223242 -0.181384,-0.224793 -0.181384,-0.63252 0,-0.223242 0.06201,-0.384472 0.06356,-0.162781 0.172083,-0.280603 0.100769,-0.110071 0.244946,-0.170532 0.144177,-0.06201 0.286804,-0.06201 0.150379,0 0.251148,0.03101 0.102319,0.02946 0.215491,0.09147 l 0.0186,-0.07441 h 0.272852 z m -0.291455,-0.279053 v -0.944128 q -0.116272,-0.05271 -0.217042,-0.07441 -0.09922,-0.02325 -0.198437,-0.02325 -0.240295,0 -0.378271,0.161231 -0.137977,0.16123 -0.137977,0.468188 0,0.291455 0.10232,0.441834 0.102319,0.150378 0.339514,0.150378 0.127124,0 0.254248,-0.04806 0.128674,-0.04961 0.235645,-0.131775 z"
         id="path1017" />
      <path
         d="M 42.29779,60.110546 H 42.006334 V 57.69829 h 0.291456 z"
         id="path1019" />
      <path
         d="m 44.324022,59.274938 h -1.275891 q 0,0.15968 0.04806,0.279053 0.04806,0.117822 0.131775,0.193787 0.08062,0.07441 0.190686,0.111621 0.111621,0.03721 0.244946,0.03721 0.176734,0 0.355018,-0.06976 0.179834,-0.07131 0.255798,-0.139527 h 0.0155 v 0.31781 q -0.147278,0.06201 -0.300757,0.10387 -0.153479,0.04186 -0.322461,0.04186 -0.430981,0 -0.672827,-0.232544 -0.241846,-0.234094 -0.241846,-0.663526 0,-0.42478 0.230994,-0.674377 0.232544,-0.249597 0.610815,-0.249597 0.350366,0 0.539502,0.204638 0.190686,0.204639 0.190686,0.58136 z m -0.283703,-0.223242 q -0.0016,-0.229443 -0.116272,-0.355017 -0.113172,-0.125574 -0.345716,-0.125574 -0.234094,0 -0.37362,0.137976 -0.137976,0.137976 -0.15658,0.342615 z"
         id="path1021" />
    </g>
    <g
       aria-label="In"
       id="text886"
       style="font-size:3.175px;stroke-width:0.2">
      <path
         d="m 37.987461,102.44386 h -0.911572 v -0.23564 h 0.302307 v -1.8371 h -0.302307 v -0.23564 h 0.911572 v 0.23564 h -0.302307 v 1.8371 h 0.302307 z"
         id="path1024" />
      <path
         d="m 39.934629,102.44386 h -0.291455 v -0.98598 q 0,-0.11938 -0.01395,-0.22325 -0.01395,-0.10542 -0.05116,-0.16433 -0.03876,-0.0651 -0.111622,-0.0961 -0.07286,-0.0326 -0.189135,-0.0326 -0.119373,0 -0.249597,0.0589 -0.130225,0.0589 -0.249598,0.15038 v 1.29294 h -0.291455 v -1.73167 h 0.291455 v 0.19223 q 0.136426,-0.11317 0.282154,-0.17673 0.145727,-0.0636 0.299206,-0.0636 0.280603,0 0.427881,0.16898 0.147278,0.16898 0.147278,0.48679 z"
         id="path1026" />
    </g>
    <g
       aria-label="Out"
       id="text890"
       style="font-size:3.175px;stroke-width:0.2">
      <path
         d="m 51.928997,99.985965 q 0.141077,0.155025 0.215491,0.379825 0.07596,0.22479 0.07596,0.51004 0,0.28526 -0.07751,0.5116 -0.07596,0.22479 -0.21394,0.37517 -0.142627,0.15658 -0.337964,0.23565 -0.193786,0.0791 -0.443384,0.0791 -0.243396,0 -0.443383,-0.0806 -0.198438,-0.0806 -0.337964,-0.23409 -0.139527,-0.15348 -0.215491,-0.37672 -0.07441,-0.22324 -0.07441,-0.51005 0,-0.28215 0.07441,-0.50539 0.07441,-0.22479 0.217041,-0.384475 0.136426,-0.151929 0.337964,-0.232544 0.203088,-0.08062 0.441833,-0.08062 0.248047,0 0.444934,0.08217 0.198438,0.08062 0.336414,0.230994 z m -0.02791,0.889865 q 0,-0.44958 -0.201538,-0.69298 -0.201538,-0.244944 -0.550354,-0.244944 -0.351917,0 -0.553455,0.244944 -0.199988,0.2434 -0.199988,0.69298 0,0.45424 0.204639,0.69608 0.204639,0.2403 0.548804,0.2403 0.344165,0 0.547253,-0.2403 0.204639,-0.24184 0.204639,-0.69608 z"
         id="path1029" />
      <path
         d="m 54.119561,102.02925 h -0.291455 v -0.19224 q -0.147278,0.11628 -0.282153,0.17829 -0.134876,0.062 -0.297657,0.062 -0.272851,0 -0.42478,-0.16588 -0.151929,-0.16743 -0.151929,-0.48989 v -1.12397 h 0.291455 v 0.98599 q 0,0.13178 0.0124,0.22634 0.0124,0.093 0.05271,0.15968 0.04186,0.0682 0.10852,0.0992 0.06666,0.031 0.193787,0.031 0.113171,0 0.246496,-0.0589 0.134876,-0.0589 0.251148,-0.15038 v -1.29295 h 0.291455 z"
         id="path1031" />
      <path
         d="m 55.592339,102.01375 q -0.08217,0.0217 -0.179833,0.0357 -0.09612,0.014 -0.172083,0.014 -0.2651,0 -0.403076,-0.14263 -0.137976,-0.14263 -0.137976,-0.45734 v -0.92087 h -0.196887 v -0.24495 h 0.196887 v -0.49764 h 0.291455 v 0.49764 h 0.601513 v 0.24495 h -0.601513 v 0.7891 q 0,0.13643 0.0062,0.21394 0.0062,0.076 0.04341,0.14263 0.03411,0.062 0.09302,0.0915 0.06046,0.0279 0.182934,0.0279 0.07131,0 0.148828,-0.0202 0.07751,-0.0217 0.111622,-0.0357 h 0.0155 z"
         id="path1033" />
    </g>
    <g
       aria-label="Clock"
       id="text948"
       style="font-size:3.175px;stroke-width:0.2">
      <path
         d="m 101.88911,102.05818 q -0.0853,0.0372 -0.15502,0.0698 -0.0682,0.0326 -0.17984,0.0682 -0.0946,0.0295 -0.20619,0.0496 -0.11007,0.0217 -0.24339,0.0217 -0.25115,0 -0.45734,-0.0698 -0.20464,-0.0713 -0.35657,-0.22169 -0.14883,-0.14728 -0.23254,-0.37362 -0.08372,-0.22789 -0.08372,-0.52865 0,-0.28525 0.08062,-0.51005 0.0806,-0.22479 0.23254,-0.37982 0.14728,-0.15038 0.35502,-0.22944 0.20929,-0.07906 0.46354,-0.07906 0.18603,0 0.37052,0.04496 0.18603,0.04496 0.41237,0.158127 v 0.36432 h -0.0233 q -0.19069,-0.15968 -0.37827,-0.23254 -0.18759,-0.0729 -0.40153,-0.0729 -0.17518,0 -0.31626,0.0574 -0.13952,0.0558 -0.24959,0.17518 -0.10697,0.11627 -0.16744,0.29455 -0.0589,0.17674 -0.0589,0.40928 0,0.2434 0.0651,0.41858 0.0667,0.17518 0.17053,0.28525 0.10852,0.11473 0.2527,0.17054 0.14572,0.0543 0.30695,0.0543 0.2217,0 0.41548,-0.076 0.19379,-0.076 0.36277,-0.22789 h 0.0217 z"
         id="path1036" />
      <path
         d="m 102.5945,102.22561 h -0.29146 v -2.412257 h 0.29146 z"
         id="path1038" />
      <path
         d="m 104.64709,101.36055 q 0,0.42323 -0.21705,0.66817 -0.21704,0.24495 -0.58136,0.24495 -0.36741,0 -0.58446,-0.24495 -0.21549,-0.24494 -0.21549,-0.66817 0,-0.42323 0.21549,-0.66818 0.21705,-0.2465 0.58446,-0.2465 0.36432,0 0.58136,0.2465 0.21705,0.24495 0.21705,0.66818 z m -0.30076,0 q 0,-0.33642 -0.13178,-0.4992 -0.13177,-0.16433 -0.36587,-0.16433 -0.23719,0 -0.36896,0.16433 -0.13023,0.16278 -0.13023,0.4992 0,0.32556 0.13178,0.49454 0.13177,0.16743 0.36741,0.16743 0.23255,0 0.36432,-0.16588 0.13333,-0.16743 0.13333,-0.49609 z"
         id="path1040" />
      <path
         d="m 106.37876,102.11709 q -0.14572,0.0698 -0.2775,0.10852 -0.13022,0.0388 -0.2775,0.0388 -0.18759,0 -0.34417,-0.0543 -0.15658,-0.0558 -0.2682,-0.16744 -0.11317,-0.11162 -0.17518,-0.28215 -0.062,-0.17053 -0.062,-0.39842 0,-0.42478 0.23254,-0.66663 0.2341,-0.24185 0.61702,-0.24185 0.14883,0 0.29145,0.0419 0.14418,0.0419 0.26355,0.10232 v 0.32401 h -0.0155 q -0.13333,-0.10387 -0.27595,-0.15968 -0.14108,-0.0558 -0.27595,-0.0558 -0.24805,0 -0.39223,0.16743 -0.14263,0.16588 -0.14263,0.48835 0,0.31315 0.13953,0.48214 0.14108,0.16743 0.39533,0.16743 0.0884,0 0.17983,-0.0233 0.0915,-0.0233 0.16433,-0.0605 0.0636,-0.0326 0.11937,-0.0682 0.0558,-0.0372 0.0884,-0.0636 h 0.0155 z"
         id="path1042" />
      <path
         d="m 108.32438,102.22561 h -0.38447 l -0.69453,-0.75809 -0.18914,0.17983 v 0.57826 h -0.29145 v -2.412257 h 0.29145 v 1.547197 l 0.84181,-0.86662 h 0.36742 l -0.8046,0.79995 z"
         id="path1044" />
    </g>
    <rect
       style="display:inline;mix-blend-mode:normal;fill:#382d30;fill-opacity:1;stroke-width:1;stroke-miterlimit:4;stroke-dasharray:none"
       id="rect652"
       width="10.5"
       height="10.5"
       x="46.888432"
       y="104.52583"
       rx="0.99999994"
       ry="1"
       inkscape:label="SEND rect" />
    <rect
       style="display:inline;mix-blend-mode:normal;fill:#382d30;fill-opacity:1;stroke-width:1;stroke-miterlimit:4;stroke-dasharray:none"
       id="rect959"
       width="10.5"
       height="10.5"
       x="98.61953"
       y="-114.1966"
       rx="0.99999994"
       ry="1"
       inkscape:label="SEND rect"
       transform="scale(1,-1)" />
    <rect
       style="display:inline;mix-blend-mode:normal;fill:#382d30;fill-opacity:1;stroke-width:1;stroke-miterlimit:4;stroke-dasharray:none"
       id="rect961"
       width="10.5"
       height="10.5"
       x="114.49454"
       y="-114.1966"
       rx="0.99999994"
       ry="1"
       inkscape:label="SEND rect"
       transform="scale(1,-1)" />
    <g
       aria-label="Phase"
       id="text967"
       style="font-size:3.175px;stroke-width:0.2">
      <path
         d="m 117.29851,100.20024 q 0,0.15347 -0.0543,0.28525 -0.0527,0.13022 -0.14882,0.22634 -0.11938,0.11937 -0.28216,0.17984 -0.16278,0.0589 -0.41083,0.0589 h -0.30695 v 0.86041 h -0.30696 v -2.308387 h 0.62632 q 0.20774,0 0.35191,0.03566 0.14418,0.03411 0.2558,0.10852 0.13178,0.08837 0.20309,0.220142 0.0729,0.131775 0.0729,0.333318 z m -0.31936,0.008 q 0,-0.11938 -0.0419,-0.20774 -0.0419,-0.08837 -0.12713,-0.14418 -0.0744,-0.04806 -0.17053,-0.06821 -0.0946,-0.0217 -0.2403,-0.0217 h -0.30385 v 0.922427 h 0.2589 q 0.18603,0 0.3023,-0.0326 0.11627,-0.0341 0.18914,-0.10697 0.0729,-0.0744 0.10232,-0.15658 0.031,-0.0822 0.031,-0.18448 z"
         id="path1047" />
      <path
         d="M 119.12786,101.81099 H 118.8364 V 100.825 q 0,-0.11937 -0.0139,-0.22324 -0.014,-0.10542 -0.0512,-0.16433 -0.0388,-0.0651 -0.11162,-0.0961 -0.0729,-0.0325 -0.18913,-0.0325 -0.11938,0 -0.2496,0.0589 -0.13023,0.0589 -0.2496,0.15038 v 1.29294 h -0.29145 v -2.412256 h 0.29145 v 0.872816 q 0.13643,-0.11317 0.28215,-0.17673 0.14573,-0.0636 0.29921,-0.0636 0.2806,0 0.42788,0.16899 0.14728,0.16898 0.14728,0.48679 z"
         id="path1049" />
      <path
         d="m 121.03472,101.81099 h -0.28991 v -0.18449 q -0.0388,0.0264 -0.10541,0.0744 -0.0651,0.0465 -0.12713,0.0744 -0.0729,0.0357 -0.16743,0.0589 -0.0946,0.0248 -0.22169,0.0248 -0.2341,0 -0.39688,-0.15503 -0.16278,-0.15503 -0.16278,-0.39533 0,-0.19688 0.0837,-0.31781 0.0853,-0.12247 0.24184,-0.19223 0.15813,-0.0698 0.37983,-0.0946 0.22169,-0.0248 0.47593,-0.0372 v -0.045 q 0,-0.0992 -0.0357,-0.16433 -0.0341,-0.0651 -0.0992,-0.10232 -0.062,-0.0357 -0.14883,-0.0481 -0.0868,-0.0124 -0.18138,-0.0124 -0.11472,0 -0.2558,0.031 -0.14108,0.0294 -0.29146,0.0868 h -0.0155 v -0.29611 q 0.0853,-0.0233 0.2465,-0.0512 0.16123,-0.0279 0.31781,-0.0279 0.18293,0 0.31781,0.031 0.13642,0.0295 0.23564,0.10232 0.0977,0.0713 0.14883,0.18448 0.0512,0.11318 0.0512,0.28061 z m -0.28991,-0.42633 v -0.48214 q -0.13332,0.008 -0.3147,0.0233 -0.17984,0.0155 -0.28526,0.045 -0.12557,0.0357 -0.20309,0.11162 -0.0775,0.0744 -0.0775,0.20619 0,0.14883 0.0899,0.22479 0.0899,0.0744 0.2744,0.0744 0.15348,0 0.2806,-0.0589 0.12712,-0.0605 0.23564,-0.14418 z"
         id="path1051" />
      <path
         d="m 122.83306,101.3118 q 0,0.23719 -0.19689,0.38912 -0.19533,0.15193 -0.53485,0.15193 -0.19224,0 -0.35347,-0.045 -0.15968,-0.0465 -0.2682,-0.10077 v -0.32711 h 0.0155 q 0.13797,0.10387 0.30695,0.16588 0.16899,0.0605 0.32402,0.0605 0.19223,0 0.30075,-0.062 0.10852,-0.062 0.10852,-0.19534 0,-0.10232 -0.0589,-0.15503 -0.0589,-0.0527 -0.22634,-0.0899 -0.062,-0.014 -0.16278,-0.0326 -0.0992,-0.0186 -0.18139,-0.0403 -0.22789,-0.0605 -0.32401,-0.17673 -0.0946,-0.11782 -0.0946,-0.28836 0,-0.10697 0.0434,-0.20153 0.045,-0.0946 0.13488,-0.16899 0.0868,-0.0729 0.22014,-0.11472 0.13488,-0.0434 0.30076,-0.0434 0.15503,0 0.31316,0.0388 0.15968,0.0372 0.2651,0.0915 v 0.31161 h -0.0155 q -0.11162,-0.0822 -0.2713,-0.13798 -0.15968,-0.0574 -0.31316,-0.0574 -0.15968,0 -0.26975,0.062 -0.11007,0.0605 -0.11007,0.18139 0,0.10697 0.0667,0.16123 0.0651,0.0543 0.21084,0.0884 0.0806,0.0186 0.17984,0.0372 0.10077,0.0186 0.16743,0.0341 0.20309,0.0465 0.31316,0.15968 0.11007,0.11472 0.11007,0.30386 z"
         id="path1053" />
      <path
         d="m 124.69961,100.97538 h -1.27589 q 0,0.15968 0.0481,0.27905 0.0481,0.11783 0.13178,0.19379 0.0806,0.0744 0.19068,0.11162 0.11162,0.0372 0.24495,0.0372 0.17673,0 0.35501,-0.0698 0.17984,-0.0713 0.2558,-0.13953 h 0.0155 v 0.31781 q -0.14728,0.062 -0.30076,0.10387 -0.15348,0.0419 -0.32246,0.0419 -0.43098,0 -0.67283,-0.23255 -0.24184,-0.23409 -0.24184,-0.66352 0,-0.42478 0.23099,-0.67438 0.23254,-0.2496 0.61081,-0.2496 0.35037,0 0.53951,0.20464 0.19068,0.20464 0.19068,0.58136 z m -0.2837,-0.22324 q -0.002,-0.22944 -0.11627,-0.35502 -0.11317,-0.12557 -0.34572,-0.12557 -0.23409,0 -0.37362,0.13797 -0.13798,0.13798 -0.15658,0.34262 z"
         id="path1055" />
    </g>
    <g
       aria-label="Crossfade"
       id="text839"
       style="font-size:10.5833px;line-height:1.25;letter-spacing:0px;stroke-width:0.264583">
      <path
         d="m 41.705879,79.669528 q -0.08527,0.03721 -0.155029,0.06976 -0.06821,0.03256 -0.179834,0.06821 -0.09457,0.02946 -0.206189,0.04961 -0.110071,0.0217 -0.243396,0.0217 -0.251148,0 -0.457336,-0.06976 -0.204639,-0.07131 -0.356568,-0.221692 -0.148828,-0.147278 -0.232544,-0.373621 -0.08372,-0.227893 -0.08372,-0.52865 0,-0.285254 0.08062,-0.510046 0.08062,-0.224793 0.232544,-0.379822 0.147277,-0.150378 0.355017,-0.229443 0.209289,-0.07906 0.463537,-0.07906 0.186035,0 0.37052,0.04496 0.186035,0.04496 0.412378,0.15813 v 0.364319 h -0.02325 q -0.190686,-0.15968 -0.378272,-0.232544 -0.187585,-0.07286 -0.401526,-0.07286 -0.175183,0 -0.316259,0.05736 -0.139527,0.05581 -0.249597,0.175183 -0.106971,0.116272 -0.167432,0.294556 -0.05891,0.176733 -0.05891,0.409277 0,0.243396 0.06511,0.418579 0.06666,0.175183 0.170532,0.285254 0.108521,0.114722 0.252698,0.170532 0.145728,0.05426 0.306958,0.05426 0.221692,0 0.415479,-0.07597 0.193786,-0.07596 0.362768,-0.227893 h 0.0217 z"
         style="font-size:3.175px;-inkscape-font-specification:'sans-serif, Normal'"
         id="path895" />
      <path
         d="m 43.197261,78.423093 h -0.0155 q -0.06511,-0.0155 -0.127124,-0.0217 -0.06046,-0.0078 -0.144177,-0.0078 -0.134876,0 -0.260449,0.06046 -0.125574,0.05891 -0.241846,0.153479 v 1.229382 h -0.291455 v -1.731677 h 0.291455 v 0.255798 q 0.173633,-0.139526 0.305408,-0.196887 0.133325,-0.05891 0.271301,-0.05891 0.07596,0 0.110071,0.0046 0.03411,0.0031 0.102319,0.01395 z"
         style="font-size:3.175px;-inkscape-font-specification:'sans-serif, Normal'"
         id="path897" />
      <path
         d="m 44.947542,78.971896 q 0,0.42323 -0.217041,0.668177 -0.217041,0.244946 -0.58136,0.244946 -0.367419,0 -0.58446,-0.244946 -0.215491,-0.244947 -0.215491,-0.668177 0,-0.42323 0.215491,-0.668176 0.217041,-0.246496 0.58446,-0.246496 0.364319,0 0.58136,0.246496 0.217041,0.244946 0.217041,0.668176 z m -0.300757,0 q 0,-0.336413 -0.131775,-0.499194 -0.131775,-0.164331 -0.365869,-0.164331 -0.237195,0 -0.36897,0.164331 -0.130224,0.162781 -0.130224,0.499194 0,0.325562 0.131775,0.494544 0.131774,0.167431 0.367419,0.167431 0.232544,0 0.364319,-0.165881 0.133325,-0.167432 0.133325,-0.496094 z"
         style="font-size:3.175px;-inkscape-font-specification:'sans-serif, Normal'"
         id="path899" />
      <path
         d="m 46.635811,79.337766 q 0,0.237194 -0.196888,0.389123 -0.195336,0.151929 -0.534851,0.151929 -0.192236,0 -0.353466,-0.04496 -0.159681,-0.04651 -0.268201,-0.100769 v -0.327112 h 0.0155 q 0.137976,0.10387 0.306958,0.165882 0.168982,0.06046 0.324011,0.06046 0.192236,0 0.300757,-0.06201 0.10852,-0.06201 0.10852,-0.195336 0,-0.10232 -0.05891,-0.15503 -0.05891,-0.05271 -0.226343,-0.08992 -0.06201,-0.01395 -0.16278,-0.03256 -0.09922,-0.0186 -0.181385,-0.04031 -0.227893,-0.06046 -0.324011,-0.176733 -0.09457,-0.117822 -0.09457,-0.288354 0,-0.106971 0.04341,-0.201538 0.04496,-0.09457 0.134875,-0.168982 0.08682,-0.07286 0.220142,-0.114722 0.134875,-0.04341 0.300756,-0.04341 0.15503,0 0.31316,0.03876 0.15968,0.03721 0.2651,0.09147 v 0.311609 h -0.0155 q -0.111621,-0.08217 -0.271301,-0.137976 -0.159681,-0.05736 -0.31316,-0.05736 -0.15968,0 -0.269751,0.06201 -0.11007,0.06046 -0.11007,0.181384 0,0.10697 0.06666,0.161231 0.06511,0.05426 0.21084,0.08837 0.08061,0.0186 0.179834,0.03721 0.100769,0.0186 0.167432,0.03411 0.203088,0.04651 0.313159,0.15968 0.110071,0.114722 0.110071,0.303858 z"
         style="font-size:3.175px;-inkscape-font-specification:'sans-serif, Normal'"
         id="path901" />
      <path
         d="m 48.289973,79.337766 q 0,0.237194 -0.196887,0.389123 -0.195337,0.151929 -0.534851,0.151929 -0.192237,0 -0.353467,-0.04496 -0.15968,-0.04651 -0.268201,-0.100769 v -0.327112 h 0.0155 q 0.137976,0.10387 0.306958,0.165882 0.168982,0.06046 0.324011,0.06046 0.192237,0 0.300757,-0.06201 0.108521,-0.06201 0.108521,-0.195336 0,-0.10232 -0.05891,-0.15503 -0.05891,-0.05271 -0.226343,-0.08992 -0.06201,-0.01395 -0.162781,-0.03256 -0.09922,-0.0186 -0.181384,-0.04031 -0.227893,-0.06046 -0.324011,-0.176733 -0.09457,-0.117822 -0.09457,-0.288354 0,-0.106971 0.04341,-0.201538 0.04496,-0.09457 0.134875,-0.168982 0.08682,-0.07286 0.220142,-0.114722 0.134876,-0.04341 0.300757,-0.04341 0.155029,0 0.313159,0.03876 0.15968,0.03721 0.2651,0.09147 v 0.311609 h -0.0155 q -0.111621,-0.08217 -0.271301,-0.137976 -0.15968,-0.05736 -0.313159,-0.05736 -0.15968,0 -0.269751,0.06201 -0.110071,0.06046 -0.110071,0.181384 0,0.10697 0.06666,0.161231 0.06511,0.05426 0.210839,0.08837 0.08062,0.0186 0.179834,0.03721 0.100769,0.0186 0.167432,0.03411 0.203088,0.04651 0.313159,0.15968 0.110071,0.114722 0.110071,0.303858 z"
         style="font-size:3.175px;-inkscape-font-specification:'sans-serif, Normal'"
         id="path903" />
      <path
         d="m 49.638728,77.706857 h -0.0155 q -0.04806,-0.01395 -0.125574,-0.02791 -0.07751,-0.0155 -0.136426,-0.0155 -0.187585,0 -0.272851,0.08372 -0.08372,0.08217 -0.08372,0.299206 v 0.05891 h 0.525549 v 0.244946 H 49.01396 v 1.486731 h -0.291455 v -1.486731 h -0.196888 v -0.244946 h 0.196888 v -0.05736 q 0,-0.308509 0.153479,-0.47284 0.153479,-0.165881 0.443383,-0.165881 0.09767,0 0.175183,0.0093 0.07906,0.0093 0.144178,0.0217 z"
         style="font-size:3.175px;-inkscape-font-specification:'sans-serif, Normal'"
         id="path905" />
      <path
         d="m 51.168867,79.83696 h -0.289905 v -0.184485 q -0.03876,0.02636 -0.10542,0.07441 -0.06511,0.04651 -0.127124,0.07441 -0.07286,0.03566 -0.167431,0.05891 -0.09457,0.02481 -0.221692,0.02481 -0.234095,0 -0.396875,-0.155029 -0.162781,-0.15503 -0.162781,-0.395325 0,-0.196887 0.08372,-0.31781 0.08527,-0.122473 0.241845,-0.192236 0.15813,-0.06976 0.379822,-0.09457 0.221692,-0.02481 0.47594,-0.03721 v -0.04496 q 0,-0.09922 -0.03566,-0.164331 -0.03411,-0.06511 -0.09922,-0.102319 -0.06201,-0.03566 -0.148828,-0.04806 -0.08682,-0.0124 -0.181385,-0.0124 -0.114721,0 -0.255798,0.03101 -0.141077,0.02946 -0.291455,0.08682 h -0.0155 V 78.14249 q 0.08527,-0.02325 0.246496,-0.05116 0.161231,-0.02791 0.317811,-0.02791 0.182934,0 0.31781,0.03101 0.136425,0.02945 0.235644,0.102319 0.09767,0.07131 0.148828,0.184485 0.05116,0.113171 0.05116,0.280603 z m -0.289905,-0.426331 v -0.482141 q -0.133325,0.0078 -0.314709,0.02325 -0.179834,0.0155 -0.285254,0.04496 -0.125574,0.03566 -0.203089,0.111621 -0.07751,0.07441 -0.07751,0.206189 0,0.148828 0.08992,0.224793 0.08992,0.07441 0.274402,0.07441 0.153479,0 0.280603,-0.05891 0.127124,-0.06046 0.235644,-0.144178 z"
         style="font-size:3.175px;-inkscape-font-specification:'sans-serif, Normal'"
         id="path907" />
      <path
         d="m 53.134638,79.83696 h -0.291455 v -0.181384 q -0.125573,0.10852 -0.261999,0.168981 -0.136426,0.06046 -0.296106,0.06046 -0.310059,0 -0.492993,-0.238745 -0.181385,-0.238745 -0.181385,-0.661975 0,-0.220142 0.06201,-0.392224 0.06356,-0.172083 0.170532,-0.293006 0.10542,-0.117822 0.244947,-0.179834 0.141076,-0.06201 0.291455,-0.06201 0.136425,0 0.241845,0.02945 0.10542,0.0279 0.221692,0.08837 v -0.750342 h 0.291455 z m -0.291455,-0.426331 v -0.993737 q -0.117822,-0.05271 -0.21084,-0.07286 -0.09302,-0.02015 -0.203088,-0.02015 -0.244946,0 -0.381372,0.170532 -0.136426,0.170532 -0.136426,0.483692 0,0.308508 0.10542,0.469738 0.10542,0.15968 0.337964,0.15968 0.124023,0 0.251147,-0.05426 0.127125,-0.05581 0.237195,-0.142627 z"
         style="font-size:3.175px;-inkscape-font-specification:'sans-serif, Normal'"
         id="path909" />
      <path
         d="M 55.157771,79.001352 H 53.88188 q 0,0.15968 0.04806,0.279053 0.04806,0.117822 0.131775,0.193786 0.08061,0.07441 0.190686,0.111621 0.111621,0.03721 0.244946,0.03721 0.176734,0 0.355017,-0.06976 0.179834,-0.07131 0.255799,-0.139526 h 0.0155 v 0.31781 q -0.147278,0.06201 -0.300757,0.10387 -0.153479,0.04186 -0.322461,0.04186 -0.430982,0 -0.672827,-0.232543 -0.241846,-0.234095 -0.241846,-0.663526 0,-0.42478 0.230994,-0.674377 0.232544,-0.249597 0.610815,-0.249597 0.350366,0 0.539502,0.204638 0.190686,0.204639 0.190686,0.58136 z M 54.874067,78.77811 q -0.0015,-0.229444 -0.116271,-0.355017 -0.113172,-0.125574 -0.345716,-0.125574 -0.234094,0 -0.37362,0.137976 -0.137976,0.137976 -0.15658,0.342615 z"
         style="font-size:3.175px;-inkscape-font-specification:'sans-serif, Normal'"
         id="path911" />
    </g>
    <text
       xml:space="preserve"
       style="font-size:10.5833px;line-height:1.25;font-family:sans-serif;letter-spacing:0px;stroke-width:0.264583"
       x="66.07132"
       y="127.46194"
       id="text893"><tspan
         sodipodi:role="line"
         id="tspan891"
         style="font-style:normal;font-variant:normal;font-weight:normal;font-stretch:normal;font-size:3.175px;font-family:sans-serif;-inkscape-font-specification:'sans-serif, Normal';font-variant-ligatures:normal;font-variant-caps:normal;font-variant-numeric:normal;font-variant-east-asian:normal;stroke-width:0.264583"
         x="66.07132"
         y="127.46194">Text…</tspan></text>
    <g
       aria-label="Att"
       id="text781"
       style="font-size:10.5833px;line-height:1.25;letter-spacing:0px;stroke-width:0.264583">
      <path
         d="m 78.78475,58.670288 h -0.327111 l -0.226343,-0.643371 h -0.998389 l -0.226343,0.643371 h -0.311609 l 0.840259,-2.308386 h 0.409278 z m -0.648022,-0.906921 -0.404627,-1.133264 -0.406176,1.133264 z"
         style="font-size:3.175px;-inkscape-font-specification:'sans-serif, Normal'"
         id="path787" />
      <path
         d="m 79.980026,58.654785 q -0.08216,0.0217 -0.179834,0.03566 -0.09612,0.01395 -0.172082,0.01395 -0.2651,0 -0.403076,-0.142627 -0.137977,-0.142627 -0.137977,-0.457337 V 57.183557 H 78.89017 v -0.244946 h 0.196887 v -0.497644 h 0.291456 v 0.497644 h 0.601513 v 0.244946 h -0.601513 v 0.789099 q 0,0.136426 0.0062,0.213941 0.0062,0.07596 0.04341,0.142627 0.03411,0.06201 0.09302,0.09147 0.06046,0.02791 0.182934,0.02791 0.07131,0 0.148828,-0.02015 0.07752,-0.0217 0.111621,-0.03566 h 0.0155 z"
         style="font-size:3.175px;-inkscape-font-specification:'sans-serif, Normal'"
         id="path789" />
      <path
         d="m 81.231112,58.654785 q -0.08216,0.0217 -0.179834,0.03566 -0.09612,0.01395 -0.172082,0.01395 -0.2651,0 -0.403076,-0.142627 -0.137976,-0.142627 -0.137976,-0.457337 v -0.920874 h -0.196887 v -0.244946 h 0.196887 v -0.497644 h 0.291455 v 0.497644 h 0.601513 v 0.244946 h -0.601513 v 0.789099 q 0,0.136426 0.0062,0.213941 0.0062,0.07596 0.04341,0.142627 0.03411,0.06201 0.09302,0.09147 0.06046,0.02791 0.182934,0.02791 0.07131,0 0.148828,-0.02015 0.07752,-0.0217 0.111622,-0.03566 h 0.0155 z"
         style="font-size:3.175px;-inkscape-font-specification:'sans-serif, Normal'"
         id="path791" />
    </g>
  </g>
  <g
     inkscape:groupmode="layer"
     id="layer1"
     inkscape:label="components">
    <circle
       style="display:inline;fill:#0000ff;stroke-width:4.10001"
       cx="52.138439"
       cy="109.77583"
       inkscape:label="MAIN_1"
       id="circle45"
       r="4.0999999" />
    <circle
       style="display:inline;fill:#00ff00;stroke-width:4.10001"
       cx="38.42152"
       cy="109.77583"
       inkscape:label="MAIN_1"
       id="circle1406"
       r="4.0999999" />
    <circle
       style="display:inline;fill:#ff00ff;stroke-width:1.59999"
       cx="50.90934"
       cy="67.358505"
       inkscape:label="RECORD_STATUS"
       id="circle253"
       r="1.6" />
    <circle
       style="display:inline;fill:#0000ff;stroke-width:4.10001"
       cx="103.86954"
       cy="108.9466"
       inkscape:label="CLOCK"
       id="circle950"
       r="4.0999999" />
    <circle
       style="display:inline;fill:#0000ff;stroke-width:4.10001"
       cx="119.74455"
       cy="108.9466"
       inkscape:label="PHASE"
       id="circle963"
       r="4.0999999" />
    <circle
       style="display:inline;fill:#00ff00;stroke-width:4.10001"
       cx="38.42152"
       cy="67.44252"
       inkscape:label="TOGGLE"
       id="circle973"
       r="4.0999999" />
    <circle
       style="display:inline;fill:#ff00ff;stroke-width:1.59999"
       cx="56.201008"
       cy="67.358505"
       inkscape:label="PLAY_STATUS"
       id="circle975"
       r="1.6" />
    <circle
       style="display:inline;fill:#ff0000;stroke-width:4.10001"
       cx="52.474453"
       cy="86.607101"
       inkscape:label="CROSSFADE"
       id="circle577"
       r="4.0999999" />
    <circle
       style="display:inline;fill:#00ff00;stroke-width:4.10001"
       cx="41.585594"
       cy="86.607101"
       inkscape:label="CROSSFADE"
       id="circle731"
       r="4.0999999" />
    <circle
       style="display:inline;fill:#ff0000;stroke-width:4.10001"
       cx="78.932785"
       cy="65.440445"
       inkscape:label="ATTACK"
       id="circle619"
       r="4.0999999" />
    <circle
       style="display:inline;fill:#ff0000;stroke-width:4.10001"
       cx="89.516113"
       cy="65.440445"
       inkscape:label="RELEASE"
       id="circle671"
       r="4.0999999" />
    <circle
       style="display:inline;fill:#00ff00;stroke-width:4.10001"
       cx="78.932785"
       cy="75.494606"
       inkscape:label="ATTACK"
       id="circle801"
       r="4.0999999" />
    <circle
       style="display:inline;fill:#00ff00;stroke-width:4.10001"
       cx="89.516113"
       cy="75.494606"
       inkscape:label="RELEASE"
       id="circle803"
       r="4.0999999" />
  </g>
</svg>
