<?xml version="1.0" encoding="UTF-8" standalone="no"?>
<!-- Generator: Adobe Illustrator 25.2.3, SVG Export Plug-In . SVG Version: 6.00 Build 0)  -->

<svg
   version="1.0"
   id="svg18800"
   x="0px"
   y="0px"
   width="15px"
   height="14.9989px"
   viewBox="0 0 15 14.9989"
   enable-background="new 0 0 15 14.9989"
   xml:space="preserve"
   sodipodi:docname="LilacScrew.svg"
   inkscape:version="1.2.1 (9c6d41e, 2022-07-14)"
   xmlns:inkscape="http://www.inkscape.org/namespaces/inkscape"
   xmlns:sodipodi="http://sodipodi.sourceforge.net/DTD/sodipodi-0.dtd"
   xmlns:xlink="http://www.w3.org/1999/xlink"
   xmlns="http://www.w3.org/2000/svg"
   xmlns:svg="http://www.w3.org/2000/svg"><defs
   id="defs8827"><linearGradient
     id="SVGID_2_-2"
     gradientUnits="userSpaceOnUse"
     x1="220.68697"
     y1="6477.3999"
     x2="232.31085"
     y2="6477.3999"
     gradientTransform="matrix(0,0.99999997,0.99999997,0,-6469.9028,-218.99288)">
	<stop
   offset="0.00559"
   style="stop-color:#e5e0e0;stop-opacity:1;"
   id="stop8808-5" />
	<stop
   offset="1"
   style="stop-color:#d4cfcf;stop-opacity:1;"
   id="stop8810-4" />
</linearGradient><linearGradient
     inkscape:collect="always"
     xlink:href="#SVGID_2_-2"
     id="linearGradient16968"
     gradientUnits="userSpaceOnUse"
     gradientTransform="matrix(0,1.0325887,1.0325887,0,-6680.9929,-226.37418)"
     x1="220.68697"
     y1="6477.3999"
     x2="232.31085"
     y2="6477.3999" /></defs>
<sodipodi:namedview
   bordercolor="#666666"
   borderopacity="1.0"
   fit-margin-bottom="0"
   fit-margin-left="0"
   fit-margin-right="0"
   fit-margin-top="0"
   id="base"
   inkscape:current-layer="svg18800"
   inkscape:cx="10.625"
   inkscape:cy="9.1741071"
   inkscape:document-units="mm"
   inkscape:pageopacity="0.0"
   inkscape:pageshadow="2"
   inkscape:window-height="1051"
   inkscape:window-maximized="0"
   inkscape:window-width="1728"
   inkscape:window-x="0"
   inkscape:window-y="38"
   inkscape:zoom="22.4"
   pagecolor="#ffffff"
   showgrid="false"
   units="px"
   inkscape:showpageshadow="2"
   inkscape:pagecheckerboard="0"
   inkscape:deskcolor="#d1d1d1">
	</sodipodi:namedview>
<linearGradient
   id="SVGID_1_"
   gradientUnits="userSpaceOnUse"
   x1="219.99944"
   y1="6477.3999"
   x2="232.99944"
   y2="6477.3999"
   gradientTransform="matrix(6.123234e-17 1 1 -6.123234e-17 -6469.8999 -219)">
	<stop
   offset="0"
   style="stop-color:#ABA9A9"
   id="stop8801" />
	<stop
   offset="1"
   style="stop-color:#8F8F8F"
   id="stop8803" />
</linearGradient>

<linearGradient
   id="SVGID_2_"
   gradientUnits="userSpaceOnUse"
   x1="220.68697"
   y1="6477.3999"
   x2="232.31085"
   y2="6477.3999"
   gradientTransform="matrix(6.123234e-17 1 1 -6.123234e-17 -6469.8999 -219)">
	<stop
   offset="0.00559"
   style="stop-color:#F5F5F5"
   id="stop8808" />
	<stop
   offset="1"
   style="stop-color:#C2C2C2"
   id="stop8810" />
</linearGradient>

<linearGradient
   id="SVGID_3_"
   gradientUnits="userSpaceOnUse"
   x1="221.13403"
   y1="6477.3999"
   x2="231.86378"
   y2="6477.3999"
   gradientTransform="matrix(6.123234e-17 1 1 -6.123234e-17 -6469.8999 -219)">
	<stop
   offset="0.00559"
   style="stop-color:#EBEBEB"
   id="stop8815" />
	<stop
   offset="1"
   style="stop-color:#CCCCCC"
   id="stop8817" />
</linearGradient>


<circle
   fill="url(#SVGID_1_)"
   cx="7.4999948"
   cy="7.5060101"
   r="6.5"
   id="circle8806-5"
   style="display:inline;fill:#bdb1b3;fill-opacity:1;stroke-width:0.999999" /><ellipse
   fill="url(#SVGID_2_)"
   cx="27.499994"
   cy="7.5060101"
   id="circle8813-3"
   style="display:inline;fill:#d9d4d4;fill-opacity:1;stroke-width:1.06912"
   rx="6.1914043"
   ry="6.2360473" /><circle
   fill="url(#SVGID_2_)"
   cx="7.4999948"
   cy="7.5060101"
   id="circle16966"
   style="display:inline;fill:url(#linearGradient16968);stroke-width:1.03258"
   r="6.0013437" /><g
   id="g26948"
   style="fill:#b9acae;fill-opacity:1"><rect
     style="fill:#b9acae;fill-opacity:1;stroke-width:5.06188"
     id="rect18186"
     width="1.3646365"
     height="7.2104187"
     x="6.8176765"
     y="-11.111219"
     transform="scale(1,-1)" /><rect
     style="fill:#b9acae;fill-opacity:1;stroke-width:5.06188"
     id="rect18188"
     width="1.3646365"
     height="7.2104187"
     x="6.8236918"
     y="3.8947854"
     transform="matrix(0,1,1,0,0,0)" /></g><circle
   fill="url(#SVGID_2_)"
   cx="-12.500005"
   cy="-12.49399"
   id="circle20400"
   style="display:inline;fill:#dad5d5;fill-opacity:1;stroke-width:0.999999"
   r="5.8119402" /><rect
   style="opacity:0.25;fill:#dad5d5;fill-opacity:1;stroke-width:4.74366"
   id="rect26518"
   width="0.82892221"
   height="10.424705"
   x="18.335537"
   y="12.787648"
   transform="matrix(0,1,1,0,0,0)" /><g
   id="g16529"
   style="display:inline;fill:#b9acae;fill-opacity:1"
   transform="translate(-20)">
	<path
   fill="#8c8c8c"
   d="M 10.96889,6.80997 9.00528,6.57471 C 8.70384,6.5386 8.46626,6.30092 8.43027,5.99947 L 8.19598,4.03719 C 8.18577,3.95166 8.11322,3.88726 8.02708,3.88726 H 6.97294 c -0.08613,0 -0.15867,0.06438 -0.16889,0.1499 L 6.56921,6.00056 C 6.53315,6.30204 6.29544,6.5397 5.99394,6.57569 L 4.03118,6.81003 C 3.94564,6.82024 3.88125,6.89279 3.88125,6.97893 v 1.0542 c 0,0.08613 0.06438,0.15866 0.1499,0.16889 l 1.96299,0.2348 C 6.29557,8.47287 6.5332,8.7105 6.56925,9.01193 l 0.23479,1.96293 c 0.01023,0.08552 0.08277,0.1499 0.16889,0.1499 h 1.0542 c 0.08612,0 0.15865,-0.06436 0.16889,-0.14986 L 8.43123,9.01172 C 8.46734,8.71033 8.70495,8.47277 9.00635,8.43673 l 1.96249,-0.2347 c 0.08552,-0.01023 0.1499,-0.08276 0.1499,-0.16889 V 6.97886 c 10e-6,-0.08611 -0.06435,-0.15864 -0.14985,-0.16889 z"
   id="path16527"
   style="fill:#b9acae;fill-opacity:1" />
</g></svg>
